<?xml version="1.0" encoding="utf-8"?>
<!-- Generator: Adobe Illustrator 28.1.0, SVG Export Plug-In . SVG Version: 6.00 Build 0)  -->
<svg version="1.1" id="Layer_1" xmlns="http://www.w3.org/2000/svg" xmlns:xlink="http://www.w3.org/1999/xlink" x="0px" y="0px"
	 viewBox="0 0 85 17" style="enable-background:new 0 0 85 17;" xml:space="preserve">
<style type="text/css">
	.st0{display:none;}
	.st1{display:inline;}
	.st2{font-family:'RobotoMono-Thin';}
	.st3{font-size:14.1732px;}
	.st4{font-family:'RobotoMono-MediumItalic';}
</style>
<text transform="matrix(1 0 0 1 0.1457 12.6457)" class="st0"><tspan x="0" y="0" class="st1 st2 st3">ergo</tspan><tspan x="34" y="0" class="st1 st4 st3">THWACK</tspan></text>
<g>
	<path d="M53.3,12.5c-0.5,0-1,0-1.6,0c0.1-3.3,0.2-6.6,0.3-10c0.5,0,1,0,1.5,0c-0.1,2-0.2,4-0.3,6c0,0,0,0,0.1,0c0.6-2,1.2-4,1.9-6
		c0.4,0,0.8,0,1.3,0c0,2,0,4.1,0,6.1c0,0,0.1,0,0.1,0c0.5-2,1.1-4.1,1.6-6.1c0.5,0,1,0,1.6,0c-0.9,3.3-1.9,6.7-2.8,10
		c-0.5,0-1,0-1.6,0c0-2.1,0-4.1,0-6.2c0,0-0.1,0-0.1,0C54.6,8.4,53.9,10.5,53.3,12.5z"/>
	<path d="M80.6,7c0.8,1.8,1.6,3.7,2.5,5.5c-0.7,0-1.3,0-1.9,0c-0.6-1.4-1.2-2.8-1.8-4.3c-0.4,0.4-0.8,0.8-1.3,1.2
		c-0.2,1-0.4,2-0.5,3.1c-0.5,0-1.1,0-1.7,0c0.6-3.3,1.2-6.6,1.7-10c0.5,0,1.1,0,1.7,0c-0.3,1.5-0.5,2.9-0.8,4.4
		C80,5.6,81.3,4,82.6,2.6c0.7,0,1.4,0,2.1,0C83.4,4.1,82,5.5,80.6,7z"/>
	<path d="M48.3,8.1c-1.1,0-2.2,0-3.3,0c-0.3,1.5-0.5,2.9-0.8,4.4c-0.5,0-1,0-1.6,0c0.6-3.3,1.2-6.6,1.7-10c0.5,0,1,0,1.6,0
		c-0.2,1.4-0.5,2.8-0.7,4.2c1.1,0,2.1,0,3.2,0C48.7,5.4,49,4,49.2,2.6c0.5,0,1.1,0,1.6,0c-0.6,3.3-1.2,6.6-1.7,10
		c-0.5,0-1.1,0-1.6,0C47.8,11.1,48,9.6,48.3,8.1z"/>
	<path d="M64.5,10.3c-1,0-2,0-3,0c-0.4,0.8-0.7,1.5-1.1,2.3c-0.6,0-1.1,0-1.8,0c1.6-3.4,3.3-6.7,4.9-10c0.5,0,1,0,1.5,0
		c0.4,3.3,0.9,6.6,1.4,10c-0.6,0-1.1,0-1.6,0C64.7,11.8,64.6,11.1,64.5,10.3z M63.9,5.2C63.9,5.2,63.9,5.2,63.9,5.2
		c-0.7,1.2-1.2,2.4-1.8,3.6c0.8,0,1.4,0,2.2,0C64.2,7.6,64.1,6.4,63.9,5.2z"/>
	<path d="M75.4,5.7c-0.5,0-1,0-1.6,0c0-0.2-0.1-0.4-0.1-0.7c-0.2-1.3-1.3-1.5-2.3-1.1c-0.4,0.2-0.7,0.5-1,1
		c-0.4,0.7-0.6,1.5-0.7,2.3c-0.1,0.6-0.2,1.1-0.2,1.7c0,0.4,0,0.8,0.1,1.2c0.2,1,0.9,1.3,1.8,1.1c0.6-0.1,1-0.5,1.2-1
		c0.1-0.2,0.2-0.5,0.4-0.8c0.2,0,0.5,0,0.8,0c0.3,0,0.5,0,0.8,0c-0.3,2-2,3.2-3.7,3.2c-1.7,0-2.7-1.1-3-2.5c-0.2-0.8-0.1-1.5,0-2.3
		c0.2-1,0.3-2,0.8-3c0.5-1.1,1.3-2,2.5-2.4c0.7-0.2,1.5-0.2,2.2,0c1.2,0.4,1.7,1.3,1.9,2.5c0,0.2,0,0.4,0.1,0.5
		C75.5,5.6,75.4,5.7,75.4,5.7z"/>
	<path d="M38.3,12.5c-0.6,0-1.1,0-1.6,0c0.5-2.9,1-5.7,1.5-8.7c-1,0-2,0-3,0c0.1-0.5,0.2-0.9,0.2-1.3c2.5,0,5.1,0,7.6,0
		C43,3,42.9,3.4,42.8,3.9c-1,0-2,0-3,0C39.3,6.8,38.8,9.6,38.3,12.5z"/>
	<path d="M18.9,14.3c0.1-0.1,0.2-0.2,0.3-0.3c0,0.1,0.1,0.2,0.1,0.2c0.6,0.6,1.3,1,2.2,0.9c0.9-0.1,1.6-0.5,1.9-1.4
		c0.3-0.7,0.3-1.4,0.2-2.1c-0.1,0.1-0.2,0.2-0.3,0.3c-0.9,0.9-2.5,1-3.4,0.5c-0.5-0.3-0.9-0.7-1.1-1.2c-0.7-1.5-0.7-2.9-0.1-4.4
		c0.9-2.1,3.5-2.2,4.7-0.6c0,0.1,0.1,0.1,0.2,0.2c0-0.4,0-0.8,0-1.2c0.2,0,0.3,0,0.4,0c0,0.1,0,0.1,0,0.2c0,1.1,0,2.2,0,3.4
		c0,1.4,0,2.8,0,4.1c-0.1,1.3-1,2.4-2.2,2.6C20.7,15.7,19.6,15.3,18.9,14.3z M23.7,9c0-0.5,0-1,0-1.5c0-0.1,0-0.3-0.1-0.4
		c-0.3-0.9-1.3-1.6-2.3-1.6c-1,0-1.9,0.5-2.3,1.5c-0.5,1.2-0.5,2.4,0,3.7c0.7,1.8,2.9,2.2,4.2,0.8c0.3-0.3,0.4-0.6,0.4-1
		C23.7,9.9,23.7,9.5,23.7,9z"/>
	<path d="M7.5,8.6c-1.9,0-3.9,0-5.8,0c-0.2,1.3,0.5,2.7,1.6,3.3c1.1,0.7,2.4,0.4,3.7-0.6c0.1,0,0.2,0.1,0.2,0.1c0,0.1,0,0.1,0,0.1
		c-0.6,0.7-1.3,1-2.2,1.1C2.6,12.8,1.3,10.8,1.3,9c0-1,0.2-2,0.9-2.8c1.1-1.4,3.2-1.5,4.4-0.5C7.3,6.4,7.6,7.4,7.5,8.6z M1.8,8.2
		c1.8,0,3.6,0,5.3,0c0.1-1-0.5-2-1.3-2.4C4,4.9,2,6.1,1.8,8.2z"/>
	<path d="M33.2,8.8c0,0.9-0.2,1.6-0.6,2.4c-1.2,2-4.1,1.9-5.3,0.1c-0.9-1.3-0.9-3.5,0-4.8C28,5.4,29,4.9,30.3,5.1
		c1.2,0.1,2,0.8,2.5,1.8C33.1,7.5,33.2,8.2,33.2,8.8z M32.8,8.8c0-0.5-0.1-1.1-0.3-1.6c-0.5-1-1.2-1.6-2.3-1.7
		c-1.2-0.1-2,0.4-2.6,1.4c-0.8,1.4-0.8,2.8,0.1,4.1c1.1,1.7,3.4,1.7,4.6,0.1C32.6,10.4,32.8,9.7,32.8,8.8z"/>
	<path d="M11.4,5.2c0.1,0,0.2,0,0.3,0c0,0.5,0,1,0.1,1.6c1-1.7,2.6-1.8,4.3-1.7c0,0.2,0,0.3,0,0.4c-0.5,0-1-0.1-1.4,0
		c-0.9,0.1-1.7,0.4-2.3,1.2c-0.4,0.5-0.6,1-0.6,1.6c0,1.3,0,2.5,0,3.8c0,0.1,0,0.3,0,0.4c-0.1,0-0.3,0-0.4,0
		C11.4,10.1,11.4,7.6,11.4,5.2z"/>
</g>
</svg>
