<?xml version="1.0" encoding="utf-8"?>
<!-- Generator: Adobe Illustrator 28.2.0, SVG Export Plug-In . SVG Version: 6.00 Build 0)  -->
<svg version="1.1" id="Layer_1" xmlns="http://www.w3.org/2000/svg" xmlns:xlink="http://www.w3.org/1999/xlink" x="0px" y="0px"
	 viewBox="0 0 842 1191" style="enable-background:new 0 0 842 1191;" xml:space="preserve">
<style type="text/css">
	.st0{fill:none;stroke:#000000;stroke-width:6.000000e-02;stroke-linecap:round;stroke-linejoin:round;stroke-miterlimit:10;}
	.st1{display:none;}
	
		.st2{display:inline;fill:none;stroke:#000000;stroke-width:6.000000e-02;stroke-linecap:round;stroke-linejoin:round;stroke-miterlimit:10;}
</style>
<g>
	<path class="st0" d="M741.9,576.3l-0.7,0.1l-0.6,0.2c-2.7,1.3-2.3,5.1,0.6,5.8l0.7,0.1l0.7-0.1c2.9-0.7,3.3-4.5,0.6-5.8l-0.6-0.2
		L741.9,576.3z"/>
	<path class="st0" d="M559,384l-0.7,0.1l-0.6,0.2c-2.7,1.3-2.3,5.1,0.6,5.8l0.7,0.1l0.7-0.1c2.9-0.7,3.3-4.5,0.6-5.8l-0.6-0.2
		L559,384z"/>
	<path class="st0" d="M721,314.6l-0.7,0.1l-0.6,0.2c-2.7,1.3-2.3,5.1,0.6,5.8l0.7,0.1l0.7-0.1c2.9-0.7,3.3-4.5,0.6-5.8l-0.6-0.2
		L721,314.6z"/>
	
		<rect x="772.3" y="526.3" transform="matrix(0.5002 -0.8659 0.8659 0.5002 -77.0124 958.8765)" class="st0" width="39.7" height="39.7"/>
	<path class="st0" d="M786.7,498l-0.7,0.1l-0.6,0.2c-2.7,1.3-2.3,5.1,0.6,5.8l0.7,0.1l0.7-0.1c2.9-0.7,3.3-4.5,0.6-5.8l-0.6-0.2
		L786.7,498z"/>
	<path class="st0" d="M817.8,479.5l-0.7,0.1l-0.6,0.2c-2.7,1.3-2.3,5.1,0.6,5.8l0.7,0.1l0.7-0.1c2.9-0.7,3.3-4.5,0.6-5.8l-0.6-0.2
		L817.8,479.5z"/>
	<path class="st0" d="M786.7,387.7l-0.7,0.1l-0.6,0.2c-2.7,1.3-2.3,5.1,0.6,5.8l0.7,0.1l0.7-0.1c2.9-0.7,3.3-4.5,0.6-5.8l-0.6-0.2
		L786.7,387.7z"/>
	<path class="st0" d="M698.8,509.8l-0.7,0.1l-0.6,0.2c-2.7,1.3-2.3,5.1,0.6,5.8l0.7,0.1l0.7-0.1c2.9-0.7,3.3-4.5,0.6-5.8l-0.6-0.2
		L698.8,509.8z"/>
	<path class="st0" d="M640.8,508.3l-0.7,0.1l-0.6,0.2c-2.7,1.3-2.3,5.1,0.6,5.8l0.7,0.1l0.7-0.1c2.9-0.7,3.3-4.5,0.6-5.8l-0.6-0.2
		L640.8,508.3z"/>
	<path class="st0" d="M451,346.8l-0.7,0.1l-0.6,0.2c-2.7,1.3-2.3,5.1,0.6,5.8l0.7,0.1l0.7-0.1c2.9-0.7,3.3-4.5,0.6-5.8l-0.6-0.2
		L451,346.8z"/>
	<path class="st0" d="M424,508.8l-0.7,0.1l-0.6,0.2c-2.7,1.3-2.3,5.1,0.6,5.8l0.7,0.1l0.7-0.1c2.9-0.7,3.3-4.5,0.6-5.8l-0.6-0.2
		L424,508.8z"/>
	<rect x="620.2" y="289.5" class="st0" width="39.7" height="39.7"/>
	<path class="st0" d="M659.9,329.2"/>
	<path class="st0" d="M572.1,552.1l-0.7,0.1l-0.6,0.2c-2.7,1.3-2.3,5.1,0.6,5.8l0.7,0.1l0.7-0.1c2.9-0.7,3.3-4.5,0.6-5.8l-0.6-0.2
		L572.1,552.1z"/>
	<rect x="620.2" y="451.5" class="st0" width="39.7" height="39.7"/>
	<path class="st0" d="M620.2,451.5"/>
	<rect x="674.2" y="458.3" class="st0" width="39.7" height="39.7"/>
	<path class="st0" d="M674.2,458.3"/>
	<rect x="674.2" y="404.3" class="st0" width="39.7" height="39.7"/>
	<path class="st0" d="M674.2,404.3"/>
	<rect x="620.2" y="343.5" class="st0" width="39.7" height="39.7"/>
	<path class="st0" d="M620.2,343.5"/>
	<rect x="674.2" y="350.3" class="st0" width="39.7" height="39.7"/>
	<rect x="620.2" y="397.5" class="st0" width="39.7" height="39.7"/>
	<path class="st0" d="M620.2,397.5"/>
	<rect x="728.2" y="431.3" class="st0" width="39.7" height="39.7"/>
	<path class="st0" d="M728.2,431.3"/>
	<rect x="512.2" y="343.5" class="st0" width="39.7" height="39.7"/>
	<path class="st0" d="M512.2,343.5"/>
	<rect x="512.2" y="397.5" class="st0" width="39.7" height="39.7"/>
	<path class="st0" d="M512.2,397.5"/>
	<rect x="587.8" y="505.5" class="st0" width="39.7" height="39.7"/>
	<path class="st0" d="M587.8,505.5"/>
	<rect x="566.2" y="444.8" class="st0" width="39.7" height="39.7"/>
	<path class="st0" d="M566.2,444.8"/>
	<rect x="566.2" y="390.8" class="st0" width="39.7" height="39.7"/>
	<path class="st0" d="M566.2,390.8"/>
	<rect x="566.2" y="336.8" class="st0" width="39.7" height="39.7"/>
	<path class="st0" d="M566.2,336.8"/>
	<rect x="566.2" y="282.8" class="st0" width="39.7" height="39.7"/>
	<path class="st0" d="M566.2,282.8"/>
	<rect x="512.2" y="505.5" class="st0" width="39.7" height="39.7"/>
	<path class="st0" d="M512.2,505.5"/>
	<rect x="458.2" y="519" class="st0" width="39.7" height="39.7"/>
	<path class="st0" d="M458.2,519"/>
	
		<rect x="745.3" y="573.1" transform="matrix(0.5002 -0.8659 0.8659 0.5002 -131.0314 958.8874)" class="st0" width="39.7" height="39.7"/>
	<polygon class="st0" points="718.2,526.4 738.1,492 772.5,511.8 752.6,546.2 	"/>
	<rect x="404.2" y="357" class="st0" width="39.7" height="39.7"/>
	<path class="st0" d="M404.2,357"/>
	<rect x="404.2" y="411" class="st0" width="39.7" height="39.7"/>
	<path class="st0" d="M404.2,411"/>
	<rect x="404.2" y="465" class="st0" width="39.7" height="39.7"/>
	<path class="st0" d="M404.2,465"/>
	<rect x="458.2" y="465" class="st0" width="39.7" height="39.7"/>
	<path class="st0" d="M458.2,465"/>
	<polygon class="st0" points="667.7,559.7 673.4,549.8 668.3,546.9 663.7,554.7 649.4,546.5 667,516 681.3,524.3 676.8,532.1 
		681.9,535.1 687.6,525.3 721.9,545.1 716.2,554.9 721.3,557.9 725.9,550 740.2,558.3 722.7,588.8 708.3,580.5 712.9,572.6 
		707.8,569.7 702.1,579.5 	"/>
	<rect x="404.2" y="519" class="st0" width="39.7" height="39.7"/>
	<path class="st0" d="M404.2,519"/>
	<rect x="458.2" y="411" class="st0" width="39.7" height="39.7"/>
	<path class="st0" d="M458.2,411"/>
	<rect x="458.2" y="357" class="st0" width="39.7" height="39.7"/>
	<path class="st0" d="M458.2,357"/>
	<rect x="512.2" y="451.5" class="st0" width="39.7" height="39.7"/>
	<path class="st0" d="M512.2,451.5"/>
	<rect x="404.2" y="303" class="st0" width="39.7" height="39.7"/>
	<path class="st0" d="M404.2,303"/>
	<rect x="674.2" y="296.3" class="st0" width="39.7" height="39.7"/>
	<path class="st0" d="M674.2,296.3"/>
	<rect x="512.2" y="289.5" class="st0" width="39.7" height="39.7"/>
	<path class="st0" d="M512.2,289.5"/>
	<rect x="728.2" y="377.3" class="st0" width="39.7" height="39.7"/>
	<path class="st0" d="M728.2,377.3"/>
	<rect x="458.2" y="303" class="st0" width="39.7" height="39.7"/>
	<path class="st0" d="M458.2,303"/>
	<rect x="728.2" y="323.3" class="st0" width="39.7" height="39.7"/>
	<line class="st0" x1="746.4" y1="315.9" x2="763.9" y2="315.9"/>
	<polyline class="st0" points="743.6,315.5 744.3,315.7 745,315.8 745.6,315.9 746.4,315.9 	"/>
	<line class="st0" x1="743.6" y1="315.5" x2="729.9" y2="312.1"/>
	<path class="st0" d="M721.2,301.1l0.1,1.1c0.4,4.4,3.4,8.2,7.6,9.7l1,0.3"/>
	<polyline class="st0" points="721.2,301.1 721.2,289.1 611.6,275.6 560.5,275.6 396.9,295.8 396.9,566 665.1,566 775,630 
		829.3,536.1 803.9,521.4 	"/>
	<path class="st0" d="M798.2,511.4l0.1,1.2c0.2,2.9,2.3,6.6,4.7,8.1l1,0.7"/>
	<line class="st0" x1="798.1" y1="505.7" x2="798.1" y2="511.4"/>
	<path class="st0" d="M809.7,494.1l-1.1,0.1c-5.5,0.6-9.7,4.8-10.3,10.3l-0.1,1.1"/>
	<line class="st0" x1="817.8" y1="494.1" x2="809.7" y2="494.1"/>
	<path class="st0" d="M817.8,494.1l1.2-0.1c13.7-1.9,13.7-21,0-22.9l-1.2-0.1"/>
	<line class="st0" x1="786.9" y1="471" x2="817.8" y2="471"/>
	<path class="st0" d="M775.4,459.5l0.1,1.1c0.6,5.5,4.8,9.7,10.3,10.3l1.1,0.1"/>
	<line class="st0" x1="775.3" y1="459.5" x2="775.3" y2="413.6"/>
	<path class="st0" d="M786.7,402.2l-1.1,0.1c-5.3,0.4-9.8,4.9-10.2,10.2l-0.1,1.1"/>
	<path class="st0" d="M786.7,402.2l1.2-0.1c13.6-1.9,13.6-20.8,0-22.7l-1.2-0.1"/>
	<path class="st0" d="M775.3,368l0.1,1.1c0.4,5.3,4.9,9.8,10.2,10.2l1.1,0.1"/>
	<line class="st0" x1="775.3" y1="327.3" x2="775.3" y2="368"/>
	<path class="st0" d="M775.3,327.3l-0.1-1.1c-0.4-5.3-4.9-9.8-10.2-10.2l-1.1-0.1"/>
</g>
<g class="st1">
	<path class="st2" d="M41,650.2l1-0.1l1-0.2c7.3-2.4,6.6-12.4-1-13.8l-1-0.1l-1,0.1c-7.5,1.4-8.2,11.4-1,13.8l1,0.2L41,650.2z"/>
	<path class="st2" d="M422.5,711.4l1-0.1l1-0.2c7.3-2.4,6.6-12.4-1-13.8l-1-0.1l-1,0.1c-7.5,1.4-8.2,11.4-1,13.8l1,0.2L422.5,711.4z
		"/>
	<path class="st2" d="M439.4,871l1-0.1l1-0.2c7.3-2.4,6.6-12.4-1-13.8l-1-0.1l-1,0.1c-7.5,1.4-8.2,11.4-1,13.8l1,0.2L439.4,871z"/>
	<path class="st2" d="M161,700.1l1-0.1l1-0.2c7.3-2.4,6.6-12.4-1-13.8l-1-0.1l-1,0.1c-7.5,1.4-8.2,11.4-1,13.8l1,0.2L161,700.1z"/>
	<path class="st2" d="M58,734.1l1-0.1l1-0.2c7.3-2.4,6.6-12.4-1-13.8l-1-0.1l-1,0.1c-7.5,1.4-8.2,11.4-1,13.8l1,0.2L58,734.1z"/>
	<path class="st2" d="M439.4,668.8l1-0.1l1-0.2c7.3-2.4,6.6-12.4-1-13.8l-1-0.1l-1,0.1c-7.5,1.4-8.2,11.4-1,13.8l1,0.2L439.4,668.8z
		"/>
	<path class="st2" d="M260.2,677.4l1-0.1l1-0.2c7.3-2.4,6.6-12.4-1-13.8l-1-0.1l-1,0.1c-7.5,1.4-8.2,11.4-1,13.8l1,0.2L260.2,677.4z
		"/>
	<path class="st2" d="M58,885.7l1-0.1l1-0.2c7.3-2.4,6.6-12.4-1-13.8l-1-0.1l-1,0.1c-7.5,1.4-8.2,11.4-1,13.8l1,0.2L58,885.7z"/>
	<path class="st2" d="M273.2,1158.6l1-0.1l1-0.2c7.3-2.4,6.6-12.4-1-13.8l-1-0.1l-1,0.1c-7.5,1.4-8.2,11.4-1,13.8l1,0.2
		L273.2,1158.6z"/>
	<path class="st2" d="M41,1158.6l1-0.1l1-0.2c7.3-2.4,6.6-12.4-1-13.8l-1-0.1l-1,0.1c-7.5,1.4-8.2,11.4-1,13.8l1,0.2L41,1158.6z"/>
	<path class="st2" d="M413.9,727.6l0.8-0.1l0.8-0.2c4.3-1.8,3.8-7.6-0.8-8.6l-0.8-0.1l-0.8,0.1c-4.5,0.9-5.1,7-0.8,8.6l0.8,0.2
		L413.9,727.6z"/>
	<path class="st2" d="M444.9,819.4l0.8-0.1l0.8-0.2c4.3-1.8,3.8-7.6-0.8-8.6l-0.8-0.1l-0.8,0.1c-4.5,0.9-5.1,7-0.8,8.6l0.8,0.2
		L444.9,819.4z"/>
	<path class="st2" d="M348.2,654.5l0.8-0.1l0.8-0.2c4.3-1.8,3.8-7.6-0.8-8.6l-0.8-0.1l-0.8,0.1c-4.5,0.9-5.1,7-0.8,8.6l0.8,0.2
		L348.2,654.5z"/>
	<path class="st2" d="M337.4,919.7l1-0.1l1-0.2c7.3-2.4,6.6-12.4-1-13.8l-1-0.1l-1,0.1c-7.5,1.4-8.2,11.4-1,13.8l1,0.2L337.4,919.7z
		"/>
	<path class="st2" d="M413.9,838l0.8-0.1l0.8-0.2c4.3-1.8,3.8-7.6-0.8-8.6l-0.8-0.1l-0.8,0.1c-4.5,0.9-5.1,7-0.8,8.6l0.8,0.2
		L413.9,838z"/>
	<path class="st2" d="M368.9,916.3l0.8-0.1l0.8-0.2c4.3-1.8,3.8-7.6-0.8-8.6l-0.8-0.1l-0.8,0.1c-4.5,0.9-5.1,7-0.8,8.6l0.8,0.2
		L368.9,916.3z"/>
	<path class="st2" d="M78.1,686.7l0.8-0.1l0.8-0.2c4.3-1.8,3.8-7.6-0.8-8.6l-0.8-0.1l-0.8,0.1c-4.5,0.9-5.1,7-0.8,8.6l0.8,0.2
		L78.1,686.7z"/>
	<path class="st2" d="M51.1,848.8l0.8-0.1l0.8-0.2c4.3-1.8,3.8-7.6-0.8-8.6l-0.8-0.1l-0.8,0.1c-4.5,0.9-5.1,7-0.8,8.6l0.8,0.2
		L51.1,848.8z"/>
	<polyline class="st2" points="456.5,648.4 348.4,621.4 243.2,608.5 243.2,687.3 405.4,687.3 	"/>
	<path class="st2" d="M405.4,698.6l0.9-0.1c6.3-1.3,6.3-9.8,0-11.2l-0.9-0.1"/>
	<line class="st2" x1="405.4" y1="698.6" x2="405.4" y2="895.7"/>
	<path class="st2" d="M394.1,895.7l0.1,0.9c1.3,6.3,9.8,6.3,11.2,0l0.1-0.9"/>
	<line class="st2" x1="394.1" y1="895.7" x2="75.1" y2="895.7"/>
	<path class="st2" d="M75.1,884.3l-0.9,0.1c-6.3,1.3-6.3,9.8,0,11.2l0.9,0.1"/>
	<line class="st2" x1="75.1" y1="884.3" x2="75.1" y2="710"/>
	<path class="st2" d="M86.3,710l-0.1-0.9c-1.3-6.3-9.8-6.3-11.2,0l-0.1,0.9"/>
	<polyline class="st2" points="86.4,710 178,710 178,609.1 24,628.1 24,1151.5 	"/>
	<path class="st2" d="M24.1,1151.5l0.1,1.5c0.8,8.3,7.1,14.6,15.4,15.4l1.5,0.1"/>
	<line class="st2" x1="41" y1="1168.6" x2="273.2" y2="1168.6"/>
	<path class="st2" d="M273.2,1168.5l1.5-0.1c4.9-0.4,9.6-3.1,12.4-7.2l0.8-1.2l168.5-291.6v-220"/>
</g>
<g class="st1">
	<path class="st2" d="M398,63.2l0.8-0.1l0.8-0.2c4.3-1.8,3.8-7.6-0.8-8.6l-0.8-0.1l-0.8,0.1c-4.5,0.9-5.1,7-0.8,8.6l0.8,0.2
		L398,63.2z"/>
	<path class="st2" d="M235.7,29.1l0.8-0.1l0.8-0.2c4.3-1.8,3.8-7.6-0.8-8.6l-0.8-0.1l-0.8,0.1c-4.5,0.9-5.1,7-0.8,8.6l0.8,0.2
		L235.7,29.1z"/>
	<path class="st2" d="M33.5,237.6l0.8-0.1l0.8-0.2c4.3-1.8,3.8-7.6-0.8-8.6l-0.8-0.1l-0.8,0.1c-4.5,0.9-5.1,7-0.8,8.6l0.8,0.2
		L33.5,237.6z"/>
	<path class="st2" d="M33.5,85.8l0.8-0.1l0.8-0.2c4.3-1.8,3.8-7.6-0.8-8.6l-0.8-0.1l-0.8,0.1c-4.5,0.9-5.1,7-0.8,8.6l0.8,0.2
		L33.5,85.8z"/>
	<path class="st2" d="M312.9,271.6l0.8-0.1l0.8-0.2c4.3-1.8,3.8-7.6-0.8-8.6l-0.8-0.1l-0.8,0.1c-4.5,0.9-5.1,7-0.8,8.6l0.8,0.2
		L312.9,271.6z"/>
	<path class="st2" d="M136.5,51.8l0.8-0.1l0.8-0.2c4.3-1.8,3.8-7.6-0.8-8.6l-0.8-0.1l-0.8,0.1c-4.5,0.9-5.1,7-0.8,8.6l0.8,0.2
		L136.5,51.8z"/>
	<path class="st2" d="M119.5,64.4H50.6L30.2,75.1l-0.8,0.5c-3.9,2.9-3.9,8.6,0,11.5l0.8,0.5"/>
	<polyline class="st2" points="30.2,87.6 50.6,98.4 50.6,216 30.2,226.8 	"/>
	<path class="st2" d="M30.2,226.8l-0.8,0.5c-3.9,2.9-3.9,8.6,0,11.5l0.8,0.5l20.3,10.7h245.3l10.7,20.3l0.5,0.8
		c2.9,3.9,8.6,3.9,11.5,0l0.5-0.8"/>
	<path class="st2" d="M319.2,270.4l10.7-20.3h51V65.7h17l1-0.1c6.4-0.9,8.4-9.1,3.1-12.8l-0.8-0.5l-20.3-10.7l-128.2,0L242,21.3
		l-0.5-0.8c-2.9-3.9-8.6-3.9-11.5,0l-0.5,0.8l-10.8,20.3v22.7h-65.2L142.7,44l-0.5-0.8c-2.9-3.9-8.6-3.9-11.5,0l-0.5,0.8"/>
	<line class="st2" x1="130.2" y1="44" x2="119.5" y2="64.4"/>
</g>
</svg>
