<?xml version="1.0" encoding="utf-8"?>
<!-- Generator: Adobe Illustrator 28.2.0, SVG Export Plug-In . SVG Version: 6.00 Build 0)  -->
<svg version="1.1" id="Layer_1" xmlns="http://www.w3.org/2000/svg" xmlns:xlink="http://www.w3.org/1999/xlink" x="0px" y="0px"
	 viewBox="0 0 842 1191" style="enable-background:new 0 0 842 1191;" xml:space="preserve">
<style type="text/css">
	.st0{fill:none;stroke:#000000;stroke-width:6.000000e-02;stroke-linecap:round;stroke-linejoin:round;stroke-miterlimit:10;}
</style>
<polygon class="st0" points="382.6,465.6 348.2,485.4 328.4,451.1 362.8,431.2 "/>
<polygon class="st0" points="335.8,492.6 301.4,512.5 281.5,478.1 315.9,458.3 "/>
<rect x="421.1" y="418.3" class="st0" width="39.7" height="39.7"/>
<path class="st0" d="M298.7,333.1l-0.1-1.1c-0.6-5.5-4.8-9.7-10.3-10.3l-1.1-0.1"/>
<path class="st0" d="M287.2,390.4l1.1-0.1c5.5-0.6,9.7-4.8,10.3-10.3l0.1-1.1"/>
<line class="st0" x1="298.7" y1="333.1" x2="298.7" y2="378.8"/>
<line class="st0" x1="240.2" y1="321.5" x2="287.2" y2="321.5"/>
<line class="st0" x1="287.2" y1="390.4" x2="209.2" y2="390.4"/>
<path class="st0" d="M209.2,390.5l-1.2,0.1c-13.7,1.9-13.7,21,0,22.9l1.2,0.1h8"/>
<path class="st0" d="M228.7,425.1l-0.1-1.1c-0.6-5.5-4.8-9.7-10.3-10.3l-1.1-0.1"/>
<line class="st0" x1="228.8" y1="425.1" x2="228.8" y2="430.8"/>
<path class="st0" d="M223,440.8l1-0.7c2.4-1.5,4.5-5.2,4.7-8.1l0.1-1.2"/>
<polyline class="st0" points="223,440.8 197.6,455.5 251.9,549.4 361.8,485.4 630.1,485.4 630.1,215.2 466.4,194.9 415.3,194.9 
	305.7,208.4 305.7,220.4 "/>
<path class="st0" d="M297.1,231.5l1-0.3c4.2-1.5,7.2-5.2,7.6-9.7l0.1-1.1"/>
<line class="st0" x1="297.1" y1="231.5" x2="283.3" y2="234.9"/>
<polyline class="st0" points="280.6,235.3 281.3,235.3 281.9,235.2 282.7,235.1 283.3,234.9 "/>
<path class="st0" d="M280.6,235.3H263l-1.1,0.1c-5.3,0.4-9.8,4.9-10.2,10.2l-0.1,1.1v40.7"/>
<path class="st0" d="M240.2,298.7l1.1-0.1c5.3-0.4,9.8-4.9,10.2-10.2l0.1-1.1"/>
<path class="st0" d="M240.2,298.7l-1.2,0.1c-13.6,1.9-13.6,20.8,0,22.7l1.2,0.1"/>
<path class="st0" d="M285.1,501.8l0.7-0.1l0.6-0.2c2.7-1.4,2.3-5.1-0.6-5.8l-0.7-0.1l-0.7,0.1c-2.9,0.8-3.3,4.4-0.6,5.8l0.6,0.2
	L285.1,501.8z"/>
<path class="st0" d="M467.9,309.5l0.7-0.1l0.6-0.2c2.7-1.4,2.3-5.1-0.6-5.8l-0.7-0.1l-0.7,0.1c-2.9,0.8-3.3,4.4-0.6,5.8l0.6,0.2
	L467.9,309.5z"/>
<path class="st0" d="M305.9,240.1l0.7-0.1l0.6-0.2c2.7-1.4,2.3-5.1-0.6-5.8l-0.7-0.1l-0.7,0.1c-2.9,0.8-3.3,4.4-0.6,5.8l0.6,0.2
	L305.9,240.1z"/>
<rect x="214.9" y="445.7" transform="matrix(0.8659 -0.5002 0.5002 0.8659 -201.413 179.8709)" class="st0" width="39.7" height="39.7"/>
<path class="st0" d="M240.2,423.5l0.7-0.1l0.6-0.2c2.7-1.4,2.3-5.1-0.6-5.8l-0.7-0.1l-0.7,0.1c-2.9,0.8-3.3,4.4-0.6,5.8l0.6,0.2
	L240.2,423.5z"/>
<path class="st0" d="M209.2,405.1l0.7-0.1l0.6-0.2c2.7-1.4,2.3-5.1-0.6-5.8l-0.7-0.1l-0.7,0.1c-2.9,0.8-3.3,4.4-0.6,5.8l0.6,0.2
	L209.2,405.1z"/>
<path class="st0" d="M240.2,313.2l0.7-0.1l0.6-0.2c2.7-1.4,2.3-5.1-0.6-5.8l-0.7-0.1l-0.7,0.1c-2.9,0.8-3.3,4.4-0.6,5.8l0.6,0.2
	L240.2,313.2z"/>
<path class="st0" d="M328.1,435.4l0.7-0.1l0.6-0.2c2.7-1.4,2.3-5.1-0.6-5.8l-0.7-0.1l-0.7,0.1c-2.9,0.8-3.3,4.4-0.6,5.8l0.6,0.2
	L328.1,435.4z"/>
<path class="st0" d="M386.2,433.9l0.7-0.1l0.6-0.2c2.7-1.4,2.3-5.1-0.6-5.8l-0.7-0.1l-0.7,0.1c-2.9,0.8-3.3,4.4-0.6,5.8l0.6,0.2
	L386.2,433.9z"/>
<path class="st0" d="M575.9,272.3l0.7-0.1l0.6-0.2c2.7-1.4,2.3-5.1-0.6-5.8l-0.7-0.1l-0.7,0.1c-2.9,0.8-3.3,4.4-0.6,5.8l0.6,0.2
	L575.9,272.3z"/>
<path class="st0" d="M602.9,434.3l0.7-0.1l0.6-0.2c2.7-1.4,2.3-5.1-0.6-5.8l-0.7-0.1l-0.7,0.1c-2.9,0.8-3.3,4.4-0.6,5.8l0.6,0.2
	L602.9,434.3z"/>
<rect x="367.1" y="208.9" class="st0" width="39.7" height="39.7"/>
<path class="st0" d="M454.8,477.7l0.7-0.1l0.6-0.2c2.7-1.4,2.3-5.1-0.6-5.8l-0.7-0.1l-0.7,0.1c-2.9,0.8-3.3,4.4-0.6,5.8l0.6,0.2
	L454.8,477.7z"/>
<rect x="367.1" y="370.9" class="st0" width="39.7" height="39.7"/>
<rect x="313.1" y="377.8" class="st0" width="39.7" height="39.7"/>
<rect x="313.1" y="323.7" class="st0" width="39.7" height="39.7"/>
<rect x="367.1" y="262.9" class="st0" width="39.7" height="39.7"/>
<rect x="313.1" y="269.7" class="st0" width="39.7" height="39.7"/>
<path class="st0" d="M313.1,269.7"/>
<rect x="367.1" y="316.9" class="st0" width="39.7" height="39.7"/>
<rect x="475.1" y="262.9" class="st0" width="39.7" height="39.7"/>
<rect x="475.1" y="316.9" class="st0" width="39.7" height="39.7"/>
<rect x="421.1" y="364.3" class="st0" width="39.7" height="39.7"/>
<rect x="421.1" y="310.2" class="st0" width="39.7" height="39.7"/>
<rect x="421.1" y="256.2" class="st0" width="39.7" height="39.7"/>
<rect x="421.1" y="202.2" class="st0" width="39.7" height="39.7"/>
<rect x="475.1" y="424.9" class="st0" width="39.7" height="39.7"/>
<rect x="529.1" y="438.5" class="st0" width="39.7" height="39.7"/>
<rect x="241.9" y="492.5" transform="matrix(0.8659 -0.5002 0.5002 0.8659 -221.2019 199.6518)" class="st0" width="39.7" height="39.7"/>
<rect x="261.7" y="418.6" transform="matrix(0.8659 -0.5002 0.5002 0.8659 -181.572 199.6439)" class="st0" width="39.7" height="39.7"/>
<rect x="583.1" y="276.4" class="st0" width="39.7" height="39.7"/>
<rect x="583.1" y="330.4" class="st0" width="39.7" height="39.7"/>
<rect x="583.1" y="384.4" class="st0" width="39.7" height="39.7"/>
<rect x="529.1" y="384.4" class="st0" width="39.7" height="39.7"/>
<rect x="583.1" y="438.5" class="st0" width="39.7" height="39.7"/>
<rect x="529.1" y="330.4" class="st0" width="39.7" height="39.7"/>
<rect x="529.1" y="276.4" class="st0" width="39.7" height="39.7"/>
<rect x="475.1" y="370.9" class="st0" width="39.7" height="39.7"/>
<rect x="583.1" y="222.4" class="st0" width="39.7" height="39.7"/>
<rect x="313.1" y="215.7" class="st0" width="39.7" height="39.7"/>
<rect x="475.1" y="208.9" class="st0" width="39.7" height="39.7"/>
<rect x="529.1" y="222.4" class="st0" width="39.7" height="39.7"/>
<rect x="259.1" y="242.7" class="st0" width="39.7" height="39.7"/>
<path class="st0" d="M298.7,282.4"/>
</svg>
