<?xml version="1.0" encoding="utf-8"?>
<!-- Generator: Adobe Illustrator 28.2.0, SVG Export Plug-In . SVG Version: 6.00 Build 0)  -->
<svg version="1.1" id="Layer_1" xmlns="http://www.w3.org/2000/svg" xmlns:xlink="http://www.w3.org/1999/xlink" x="0px" y="0px"
	 viewBox="0 0 842 1191" style="enable-background:new 0 0 842 1191;" xml:space="preserve">
<style type="text/css">
	.st0{fill:none;stroke:#000000;stroke-width:6.000000e-02;stroke-linecap:round;stroke-linejoin:round;stroke-miterlimit:10;}
</style>
<path class="st0" d="M370.4,667.9l0.5-0.1l0.5-0.2c1.8-1,1.4-3.4-0.5-3.9l-0.5-0.1l-0.5,0.1c-1.9,0.5-2.2,2.9-0.5,3.9l0.5,0.2
	L370.4,667.9z"/>
<path class="st0" d="M350.7,747.7l0.7-0.1l0.6-0.2c2.7-1.4,2.3-5.1-0.6-5.8l-0.7-0.1l-0.7,0.1c-2.9,0.8-3.3,4.4-0.6,5.8l0.6,0.2
	L350.7,747.7z"/>
<path class="st0" d="M381.7,766.3l0.7-0.1l0.6-0.2c2.7-1.4,2.3-5.1-0.6-5.8l-0.7-0.1l-0.7,0.1c-2.9,0.8-3.3,4.4-0.6,5.8l0.6,0.2
	L381.7,766.3z"/>
<line class="st0" x1="363.5" y1="677.1" x2="367" y2="673.6"/>
<path class="st0" d="M363.5,677.1l-1.5,1.6c-9.2,10.3-12.7,23.8-10,37.3l0.5,2.2"/>
<path class="st0" d="M352.6,718.2l0.7,2.4l0.8,2.4c12.8,31.8,54,38.9,76.6,13l1.6-2l1.4-2c19.2-28.3,1.6-66.7-32.4-70.6l-2.5-0.2
	l-2.5-0.1"/>
<line class="st0" x1="396.4" y1="661.1" x2="396.4" y2="661.1"/>
<path class="st0" d="M396.3,661.2l-2.3,0.1c-9.3,0.7-18.3,4.5-25.3,10.7l-1.7,1.6"/>
<path class="st0" d="M381.7,655.9l0.7-0.1l0.6-0.2c2.7-1.4,2.3-5.1-0.6-5.8l-0.7-0.1l-0.7,0.1c-2.9,0.8-3.3,4.4-0.6,5.8l0.6,0.2
	L381.7,655.9z"/>
<path class="st0" d="M355.7,682.6l0.5-0.1l0.5-0.2c1.8-1,1.4-3.4-0.5-3.9l-0.5-0.1l-0.5,0.1c-1.9,0.5-2.2,2.9-0.5,3.9l0.5,0.2
	L355.7,682.6z"/>
<line class="st0" x1="339.1" y1="666.5" x2="339.1" y2="746.3"/>
<path class="st0" d="M446,657.4l-2.2-2.1c-30.3-27.9-77.7-23.9-102.8,8.8l-1.8,2.5"/>
<line class="st0" x1="446" y1="706.4" x2="446" y2="657.4"/>
<path class="st0" d="M421.1,749.4l2.2-1.3c13.3-8.7,21.7-23.2,22.6-39.1l0.1-2.6"/>
<line class="st0" x1="378.7" y1="773.9" x2="421.1" y2="749.4"/>
<path class="st0" d="M339.2,746.3l1.8,2.5c8.6,11.4,21.1,20.1,34.8,24.2l2.9,0.8"/>
</svg>
