<?xml version="1.0" encoding="utf-8"?>
<!-- Generator: Adobe Illustrator 28.2.0, SVG Export Plug-In . SVG Version: 6.00 Build 0)  -->
<svg version="1.1" id="Layer_1" xmlns="http://www.w3.org/2000/svg" xmlns:xlink="http://www.w3.org/1999/xlink" x="0px" y="0px"
	 viewBox="0 0 842 1191" style="enable-background:new 0 0 842 1191;" xml:space="preserve">
<style type="text/css">
	.st0{fill:none;stroke:#000000;stroke-width:6.000000e-02;stroke-linecap:round;stroke-linejoin:round;stroke-miterlimit:10;}
</style>
<line class="st0" x1="344.3" y1="919.7" x2="344.3" y2="943.3"/>
<path class="st0" d="M439.4,915.2l-1-2.5c-18.5-43.1-79-40.3-93.4,4.4l-0.7,2.6"/>
<path class="st0" d="M344.3,943.2l0.7,2.5c7,23.4,30.1,38.3,54.4,34.9l2.5-0.4"/>
<path class="st0" d="M402.8,982.8l0.3-0.2c0.8-1,0.3-2.1-0.9-2.3h-0.4"/>
<path class="st0" d="M439.4,915.2l0.2,0.3c0.8,1,2,0.8,2.5-0.4l0.1-0.4"/>
<path class="st0" d="M377.9,991.3l0.7-0.1l0.6-0.2c2.7-1.4,2.3-5.1-0.6-5.8l-0.7-0.1l-0.7,0.1c-2.9,0.8-3.3,4.4-0.6,5.8l0.6,0.2
	L377.9,991.3z"/>
<path class="st0" d="M346.9,972.7l0.7-0.1l0.6-0.2c2.7-1.4,2.3-5.1-0.6-5.8l-0.7-0.1l-0.7,0.1c-2.9,0.8-3.3,4.4-0.6,5.8l0.6,0.2
	L346.9,972.7z"/>
<path class="st0" d="M377.9,880.9l0.7-0.1l0.6-0.2c2.7-1.4,2.3-5.1-0.6-5.8l-0.7-0.1l-0.7,0.1c-2.9,0.8-3.3,4.4-0.6,5.8l0.6,0.2
	L377.9,880.9z"/>
<path class="st0" d="M442.1,882.4l-2.2-2.1c-30.3-27.9-77.7-23.9-102.8,8.8l-1.8,2.5"/>
<line class="st0" x1="442.1" y1="914.7" x2="442.1" y2="882.5"/>
<line class="st0" x1="374.9" y1="998.9" x2="402.8" y2="982.8"/>
<path class="st0" d="M335.3,971.3l1.8,2.5c8.6,11.4,21.1,20.1,34.8,24.2l2.9,0.8"/>
<line class="st0" x1="335.3" y1="891.6" x2="335.3" y2="971.3"/>
</svg>
