<?xml version="1.0" encoding="utf-8"?>
<!-- Generator: Adobe Illustrator 28.3.0, SVG Export Plug-In . SVG Version: 6.00 Build 0)  -->
<svg version="1.1" id="Layer_1" xmlns="http://www.w3.org/2000/svg" xmlns:xlink="http://www.w3.org/1999/xlink" x="0px" y="0px"
	 viewBox="0 0 612 792" style="enable-background:new 0 0 612 792;" xml:space="preserve">
<style type="text/css">
	.st0{fill:none;stroke:#000000;stroke-width:6.000000e-02;stroke-linecap:round;stroke-linejoin:round;stroke-miterlimit:10;}
</style>
<g>
	<polyline class="st0" points="329.7,61.2 439.6,125.2 325.4,322.9 	"/>
	<path class="st0" d="M310.7,331.4l1.5-0.1c4.9-0.4,9.6-3.1,12.4-7.2l0.8-1.2"/>
	<line class="st0" x1="78.5" y1="331.5" x2="310.7" y2="331.5"/>
	<path class="st0" d="M61.6,314.4l0.1,1.5c0.8,8.3,7.1,14.6,15.4,15.4l1.5,0.1"/>
	<polyline class="st0" points="61.5,314.4 61.5,61.2 329.7,61.2 	"/>
</g>
<g>
	<polyline class="st0" points="329.7,601.7 439.6,537.7 325.4,340 	"/>
	<path class="st0" d="M310.7,331.5l1.5,0.1c4.9,0.4,9.6,3.1,12.4,7.2l0.8,1.2"/>
	<line class="st0" x1="78.5" y1="331.5" x2="310.7" y2="331.5"/>
	<path class="st0" d="M61.6,348.5l0.1-1.5c0.8-8.3,7.1-14.6,15.4-15.4l1.5-0.1"/>
	<polyline class="st0" points="61.5,348.5 61.5,601.7 329.7,601.7 	"/>
</g>
</svg>
