%TF.GenerationSoftware,KiCad,Pcbnew,7.0.8*%
%TF.CreationDate,2024-02-17T13:20:42-05:00*%
%TF.ProjectId,ergothwack,6572676f-7468-4776-9163-6b2e6b696361,rev?*%
%TF.SameCoordinates,Original*%
%TF.FileFunction,Legend,Bot*%
%TF.FilePolarity,Positive*%
%FSLAX46Y46*%
G04 Gerber Fmt 4.6, Leading zero omitted, Abs format (unit mm)*
G04 Created by KiCad (PCBNEW 7.0.8) date 2024-02-17 13:20:42*
%MOMM*%
%LPD*%
G01*
G04 APERTURE LIST*
%ADD10C,0.150000*%
%ADD11C,0.300000*%
%ADD12C,0.120000*%
G04 APERTURE END LIST*
D10*
X156012295Y-244492810D02*
X156012295Y-244569000D01*
X156012295Y-244569000D02*
X156050390Y-244645191D01*
X156050390Y-244645191D02*
X156088485Y-244683286D01*
X156088485Y-244683286D02*
X156164676Y-244721381D01*
X156164676Y-244721381D02*
X156317057Y-244759476D01*
X156317057Y-244759476D02*
X156507533Y-244759476D01*
X156507533Y-244759476D02*
X156659914Y-244721381D01*
X156659914Y-244721381D02*
X156736104Y-244683286D01*
X156736104Y-244683286D02*
X156774200Y-244645191D01*
X156774200Y-244645191D02*
X156812295Y-244569000D01*
X156812295Y-244569000D02*
X156812295Y-244492810D01*
X156812295Y-244492810D02*
X156774200Y-244416619D01*
X156774200Y-244416619D02*
X156736104Y-244378524D01*
X156736104Y-244378524D02*
X156659914Y-244340429D01*
X156659914Y-244340429D02*
X156507533Y-244302333D01*
X156507533Y-244302333D02*
X156317057Y-244302333D01*
X156317057Y-244302333D02*
X156164676Y-244340429D01*
X156164676Y-244340429D02*
X156088485Y-244378524D01*
X156088485Y-244378524D02*
X156050390Y-244416619D01*
X156050390Y-244416619D02*
X156012295Y-244492810D01*
X156088485Y-245064238D02*
X156050390Y-245102334D01*
X156050390Y-245102334D02*
X156012295Y-245178524D01*
X156012295Y-245178524D02*
X156012295Y-245369000D01*
X156012295Y-245369000D02*
X156050390Y-245445191D01*
X156050390Y-245445191D02*
X156088485Y-245483286D01*
X156088485Y-245483286D02*
X156164676Y-245521381D01*
X156164676Y-245521381D02*
X156240866Y-245521381D01*
X156240866Y-245521381D02*
X156355152Y-245483286D01*
X156355152Y-245483286D02*
X156812295Y-245026143D01*
X156812295Y-245026143D02*
X156812295Y-245521381D01*
X156012295Y-246016620D02*
X156012295Y-246092810D01*
X156012295Y-246092810D02*
X156050390Y-246169001D01*
X156050390Y-246169001D02*
X156088485Y-246207096D01*
X156088485Y-246207096D02*
X156164676Y-246245191D01*
X156164676Y-246245191D02*
X156317057Y-246283286D01*
X156317057Y-246283286D02*
X156507533Y-246283286D01*
X156507533Y-246283286D02*
X156659914Y-246245191D01*
X156659914Y-246245191D02*
X156736104Y-246207096D01*
X156736104Y-246207096D02*
X156774200Y-246169001D01*
X156774200Y-246169001D02*
X156812295Y-246092810D01*
X156812295Y-246092810D02*
X156812295Y-246016620D01*
X156812295Y-246016620D02*
X156774200Y-245940429D01*
X156774200Y-245940429D02*
X156736104Y-245902334D01*
X156736104Y-245902334D02*
X156659914Y-245864239D01*
X156659914Y-245864239D02*
X156507533Y-245826143D01*
X156507533Y-245826143D02*
X156317057Y-245826143D01*
X156317057Y-245826143D02*
X156164676Y-245864239D01*
X156164676Y-245864239D02*
X156088485Y-245902334D01*
X156088485Y-245902334D02*
X156050390Y-245940429D01*
X156050390Y-245940429D02*
X156012295Y-246016620D01*
X161022295Y-244492810D02*
X161022295Y-244569000D01*
X161022295Y-244569000D02*
X161060390Y-244645191D01*
X161060390Y-244645191D02*
X161098485Y-244683286D01*
X161098485Y-244683286D02*
X161174676Y-244721381D01*
X161174676Y-244721381D02*
X161327057Y-244759476D01*
X161327057Y-244759476D02*
X161517533Y-244759476D01*
X161517533Y-244759476D02*
X161669914Y-244721381D01*
X161669914Y-244721381D02*
X161746104Y-244683286D01*
X161746104Y-244683286D02*
X161784200Y-244645191D01*
X161784200Y-244645191D02*
X161822295Y-244569000D01*
X161822295Y-244569000D02*
X161822295Y-244492810D01*
X161822295Y-244492810D02*
X161784200Y-244416619D01*
X161784200Y-244416619D02*
X161746104Y-244378524D01*
X161746104Y-244378524D02*
X161669914Y-244340429D01*
X161669914Y-244340429D02*
X161517533Y-244302333D01*
X161517533Y-244302333D02*
X161327057Y-244302333D01*
X161327057Y-244302333D02*
X161174676Y-244340429D01*
X161174676Y-244340429D02*
X161098485Y-244378524D01*
X161098485Y-244378524D02*
X161060390Y-244416619D01*
X161060390Y-244416619D02*
X161022295Y-244492810D01*
X161098485Y-245064238D02*
X161060390Y-245102334D01*
X161060390Y-245102334D02*
X161022295Y-245178524D01*
X161022295Y-245178524D02*
X161022295Y-245369000D01*
X161022295Y-245369000D02*
X161060390Y-245445191D01*
X161060390Y-245445191D02*
X161098485Y-245483286D01*
X161098485Y-245483286D02*
X161174676Y-245521381D01*
X161174676Y-245521381D02*
X161250866Y-245521381D01*
X161250866Y-245521381D02*
X161365152Y-245483286D01*
X161365152Y-245483286D02*
X161822295Y-245026143D01*
X161822295Y-245026143D02*
X161822295Y-245521381D01*
X161288961Y-246207096D02*
X161822295Y-246207096D01*
X160984200Y-246016620D02*
X161555628Y-245826143D01*
X161555628Y-245826143D02*
X161555628Y-246321382D01*
X150862295Y-255300524D02*
X151662295Y-255567191D01*
X151662295Y-255567191D02*
X150862295Y-255833857D01*
X151586104Y-256557667D02*
X151624200Y-256519571D01*
X151624200Y-256519571D02*
X151662295Y-256405286D01*
X151662295Y-256405286D02*
X151662295Y-256329095D01*
X151662295Y-256329095D02*
X151624200Y-256214809D01*
X151624200Y-256214809D02*
X151548009Y-256138619D01*
X151548009Y-256138619D02*
X151471819Y-256100524D01*
X151471819Y-256100524D02*
X151319438Y-256062428D01*
X151319438Y-256062428D02*
X151205152Y-256062428D01*
X151205152Y-256062428D02*
X151052771Y-256100524D01*
X151052771Y-256100524D02*
X150976580Y-256138619D01*
X150976580Y-256138619D02*
X150900390Y-256214809D01*
X150900390Y-256214809D02*
X150862295Y-256329095D01*
X150862295Y-256329095D02*
X150862295Y-256405286D01*
X150862295Y-256405286D02*
X150900390Y-256519571D01*
X150900390Y-256519571D02*
X150938485Y-256557667D01*
X151586104Y-257357667D02*
X151624200Y-257319571D01*
X151624200Y-257319571D02*
X151662295Y-257205286D01*
X151662295Y-257205286D02*
X151662295Y-257129095D01*
X151662295Y-257129095D02*
X151624200Y-257014809D01*
X151624200Y-257014809D02*
X151548009Y-256938619D01*
X151548009Y-256938619D02*
X151471819Y-256900524D01*
X151471819Y-256900524D02*
X151319438Y-256862428D01*
X151319438Y-256862428D02*
X151205152Y-256862428D01*
X151205152Y-256862428D02*
X151052771Y-256900524D01*
X151052771Y-256900524D02*
X150976580Y-256938619D01*
X150976580Y-256938619D02*
X150900390Y-257014809D01*
X150900390Y-257014809D02*
X150862295Y-257129095D01*
X150862295Y-257129095D02*
X150862295Y-257205286D01*
X150862295Y-257205286D02*
X150900390Y-257319571D01*
X150900390Y-257319571D02*
X150938485Y-257357667D01*
X145712295Y-244492810D02*
X145712295Y-244569000D01*
X145712295Y-244569000D02*
X145750390Y-244645191D01*
X145750390Y-244645191D02*
X145788485Y-244683286D01*
X145788485Y-244683286D02*
X145864676Y-244721381D01*
X145864676Y-244721381D02*
X146017057Y-244759476D01*
X146017057Y-244759476D02*
X146207533Y-244759476D01*
X146207533Y-244759476D02*
X146359914Y-244721381D01*
X146359914Y-244721381D02*
X146436104Y-244683286D01*
X146436104Y-244683286D02*
X146474200Y-244645191D01*
X146474200Y-244645191D02*
X146512295Y-244569000D01*
X146512295Y-244569000D02*
X146512295Y-244492810D01*
X146512295Y-244492810D02*
X146474200Y-244416619D01*
X146474200Y-244416619D02*
X146436104Y-244378524D01*
X146436104Y-244378524D02*
X146359914Y-244340429D01*
X146359914Y-244340429D02*
X146207533Y-244302333D01*
X146207533Y-244302333D02*
X146017057Y-244302333D01*
X146017057Y-244302333D02*
X145864676Y-244340429D01*
X145864676Y-244340429D02*
X145788485Y-244378524D01*
X145788485Y-244378524D02*
X145750390Y-244416619D01*
X145750390Y-244416619D02*
X145712295Y-244492810D01*
X145712295Y-245254715D02*
X145712295Y-245330905D01*
X145712295Y-245330905D02*
X145750390Y-245407096D01*
X145750390Y-245407096D02*
X145788485Y-245445191D01*
X145788485Y-245445191D02*
X145864676Y-245483286D01*
X145864676Y-245483286D02*
X146017057Y-245521381D01*
X146017057Y-245521381D02*
X146207533Y-245521381D01*
X146207533Y-245521381D02*
X146359914Y-245483286D01*
X146359914Y-245483286D02*
X146436104Y-245445191D01*
X146436104Y-245445191D02*
X146474200Y-245407096D01*
X146474200Y-245407096D02*
X146512295Y-245330905D01*
X146512295Y-245330905D02*
X146512295Y-245254715D01*
X146512295Y-245254715D02*
X146474200Y-245178524D01*
X146474200Y-245178524D02*
X146436104Y-245140429D01*
X146436104Y-245140429D02*
X146359914Y-245102334D01*
X146359914Y-245102334D02*
X146207533Y-245064238D01*
X146207533Y-245064238D02*
X146017057Y-245064238D01*
X146017057Y-245064238D02*
X145864676Y-245102334D01*
X145864676Y-245102334D02*
X145788485Y-245140429D01*
X145788485Y-245140429D02*
X145750390Y-245178524D01*
X145750390Y-245178524D02*
X145712295Y-245254715D01*
X146055152Y-245978524D02*
X146017057Y-245902334D01*
X146017057Y-245902334D02*
X145978961Y-245864239D01*
X145978961Y-245864239D02*
X145902771Y-245826143D01*
X145902771Y-245826143D02*
X145864676Y-245826143D01*
X145864676Y-245826143D02*
X145788485Y-245864239D01*
X145788485Y-245864239D02*
X145750390Y-245902334D01*
X145750390Y-245902334D02*
X145712295Y-245978524D01*
X145712295Y-245978524D02*
X145712295Y-246130905D01*
X145712295Y-246130905D02*
X145750390Y-246207096D01*
X145750390Y-246207096D02*
X145788485Y-246245191D01*
X145788485Y-246245191D02*
X145864676Y-246283286D01*
X145864676Y-246283286D02*
X145902771Y-246283286D01*
X145902771Y-246283286D02*
X145978961Y-246245191D01*
X145978961Y-246245191D02*
X146017057Y-246207096D01*
X146017057Y-246207096D02*
X146055152Y-246130905D01*
X146055152Y-246130905D02*
X146055152Y-245978524D01*
X146055152Y-245978524D02*
X146093247Y-245902334D01*
X146093247Y-245902334D02*
X146131342Y-245864239D01*
X146131342Y-245864239D02*
X146207533Y-245826143D01*
X146207533Y-245826143D02*
X146359914Y-245826143D01*
X146359914Y-245826143D02*
X146436104Y-245864239D01*
X146436104Y-245864239D02*
X146474200Y-245902334D01*
X146474200Y-245902334D02*
X146512295Y-245978524D01*
X146512295Y-245978524D02*
X146512295Y-246130905D01*
X146512295Y-246130905D02*
X146474200Y-246207096D01*
X146474200Y-246207096D02*
X146436104Y-246245191D01*
X146436104Y-246245191D02*
X146359914Y-246283286D01*
X146359914Y-246283286D02*
X146207533Y-246283286D01*
X146207533Y-246283286D02*
X146131342Y-246245191D01*
X146131342Y-246245191D02*
X146093247Y-246207096D01*
X146093247Y-246207096D02*
X146055152Y-246130905D01*
X143242295Y-244492810D02*
X143242295Y-244569000D01*
X143242295Y-244569000D02*
X143280390Y-244645191D01*
X143280390Y-244645191D02*
X143318485Y-244683286D01*
X143318485Y-244683286D02*
X143394676Y-244721381D01*
X143394676Y-244721381D02*
X143547057Y-244759476D01*
X143547057Y-244759476D02*
X143737533Y-244759476D01*
X143737533Y-244759476D02*
X143889914Y-244721381D01*
X143889914Y-244721381D02*
X143966104Y-244683286D01*
X143966104Y-244683286D02*
X144004200Y-244645191D01*
X144004200Y-244645191D02*
X144042295Y-244569000D01*
X144042295Y-244569000D02*
X144042295Y-244492810D01*
X144042295Y-244492810D02*
X144004200Y-244416619D01*
X144004200Y-244416619D02*
X143966104Y-244378524D01*
X143966104Y-244378524D02*
X143889914Y-244340429D01*
X143889914Y-244340429D02*
X143737533Y-244302333D01*
X143737533Y-244302333D02*
X143547057Y-244302333D01*
X143547057Y-244302333D02*
X143394676Y-244340429D01*
X143394676Y-244340429D02*
X143318485Y-244378524D01*
X143318485Y-244378524D02*
X143280390Y-244416619D01*
X143280390Y-244416619D02*
X143242295Y-244492810D01*
X143242295Y-245254715D02*
X143242295Y-245330905D01*
X143242295Y-245330905D02*
X143280390Y-245407096D01*
X143280390Y-245407096D02*
X143318485Y-245445191D01*
X143318485Y-245445191D02*
X143394676Y-245483286D01*
X143394676Y-245483286D02*
X143547057Y-245521381D01*
X143547057Y-245521381D02*
X143737533Y-245521381D01*
X143737533Y-245521381D02*
X143889914Y-245483286D01*
X143889914Y-245483286D02*
X143966104Y-245445191D01*
X143966104Y-245445191D02*
X144004200Y-245407096D01*
X144004200Y-245407096D02*
X144042295Y-245330905D01*
X144042295Y-245330905D02*
X144042295Y-245254715D01*
X144042295Y-245254715D02*
X144004200Y-245178524D01*
X144004200Y-245178524D02*
X143966104Y-245140429D01*
X143966104Y-245140429D02*
X143889914Y-245102334D01*
X143889914Y-245102334D02*
X143737533Y-245064238D01*
X143737533Y-245064238D02*
X143547057Y-245064238D01*
X143547057Y-245064238D02*
X143394676Y-245102334D01*
X143394676Y-245102334D02*
X143318485Y-245140429D01*
X143318485Y-245140429D02*
X143280390Y-245178524D01*
X143280390Y-245178524D02*
X143242295Y-245254715D01*
X143242295Y-246207096D02*
X143242295Y-246054715D01*
X143242295Y-246054715D02*
X143280390Y-245978524D01*
X143280390Y-245978524D02*
X143318485Y-245940429D01*
X143318485Y-245940429D02*
X143432771Y-245864239D01*
X143432771Y-245864239D02*
X143585152Y-245826143D01*
X143585152Y-245826143D02*
X143889914Y-245826143D01*
X143889914Y-245826143D02*
X143966104Y-245864239D01*
X143966104Y-245864239D02*
X144004200Y-245902334D01*
X144004200Y-245902334D02*
X144042295Y-245978524D01*
X144042295Y-245978524D02*
X144042295Y-246130905D01*
X144042295Y-246130905D02*
X144004200Y-246207096D01*
X144004200Y-246207096D02*
X143966104Y-246245191D01*
X143966104Y-246245191D02*
X143889914Y-246283286D01*
X143889914Y-246283286D02*
X143699438Y-246283286D01*
X143699438Y-246283286D02*
X143623247Y-246245191D01*
X143623247Y-246245191D02*
X143585152Y-246207096D01*
X143585152Y-246207096D02*
X143547057Y-246130905D01*
X143547057Y-246130905D02*
X143547057Y-245978524D01*
X143547057Y-245978524D02*
X143585152Y-245902334D01*
X143585152Y-245902334D02*
X143623247Y-245864239D01*
X143623247Y-245864239D02*
X143699438Y-245826143D01*
X158482295Y-255567191D02*
X158482295Y-255643381D01*
X158482295Y-255643381D02*
X158520390Y-255719572D01*
X158520390Y-255719572D02*
X158558485Y-255757667D01*
X158558485Y-255757667D02*
X158634676Y-255795762D01*
X158634676Y-255795762D02*
X158787057Y-255833857D01*
X158787057Y-255833857D02*
X158977533Y-255833857D01*
X158977533Y-255833857D02*
X159129914Y-255795762D01*
X159129914Y-255795762D02*
X159206104Y-255757667D01*
X159206104Y-255757667D02*
X159244200Y-255719572D01*
X159244200Y-255719572D02*
X159282295Y-255643381D01*
X159282295Y-255643381D02*
X159282295Y-255567191D01*
X159282295Y-255567191D02*
X159244200Y-255491000D01*
X159244200Y-255491000D02*
X159206104Y-255452905D01*
X159206104Y-255452905D02*
X159129914Y-255414810D01*
X159129914Y-255414810D02*
X158977533Y-255376714D01*
X158977533Y-255376714D02*
X158787057Y-255376714D01*
X158787057Y-255376714D02*
X158634676Y-255414810D01*
X158634676Y-255414810D02*
X158558485Y-255452905D01*
X158558485Y-255452905D02*
X158520390Y-255491000D01*
X158520390Y-255491000D02*
X158482295Y-255567191D01*
X158482295Y-256329096D02*
X158482295Y-256405286D01*
X158482295Y-256405286D02*
X158520390Y-256481477D01*
X158520390Y-256481477D02*
X158558485Y-256519572D01*
X158558485Y-256519572D02*
X158634676Y-256557667D01*
X158634676Y-256557667D02*
X158787057Y-256595762D01*
X158787057Y-256595762D02*
X158977533Y-256595762D01*
X158977533Y-256595762D02*
X159129914Y-256557667D01*
X159129914Y-256557667D02*
X159206104Y-256519572D01*
X159206104Y-256519572D02*
X159244200Y-256481477D01*
X159244200Y-256481477D02*
X159282295Y-256405286D01*
X159282295Y-256405286D02*
X159282295Y-256329096D01*
X159282295Y-256329096D02*
X159244200Y-256252905D01*
X159244200Y-256252905D02*
X159206104Y-256214810D01*
X159206104Y-256214810D02*
X159129914Y-256176715D01*
X159129914Y-256176715D02*
X158977533Y-256138619D01*
X158977533Y-256138619D02*
X158787057Y-256138619D01*
X158787057Y-256138619D02*
X158634676Y-256176715D01*
X158634676Y-256176715D02*
X158558485Y-256214810D01*
X158558485Y-256214810D02*
X158520390Y-256252905D01*
X158520390Y-256252905D02*
X158482295Y-256329096D01*
X158558485Y-256900524D02*
X158520390Y-256938620D01*
X158520390Y-256938620D02*
X158482295Y-257014810D01*
X158482295Y-257014810D02*
X158482295Y-257205286D01*
X158482295Y-257205286D02*
X158520390Y-257281477D01*
X158520390Y-257281477D02*
X158558485Y-257319572D01*
X158558485Y-257319572D02*
X158634676Y-257357667D01*
X158634676Y-257357667D02*
X158710866Y-257357667D01*
X158710866Y-257357667D02*
X158825152Y-257319572D01*
X158825152Y-257319572D02*
X159282295Y-256862429D01*
X159282295Y-256862429D02*
X159282295Y-257357667D01*
X149122295Y-255979905D02*
X148741342Y-255713238D01*
X149122295Y-255522762D02*
X148322295Y-255522762D01*
X148322295Y-255522762D02*
X148322295Y-255827524D01*
X148322295Y-255827524D02*
X148360390Y-255903714D01*
X148360390Y-255903714D02*
X148398485Y-255941809D01*
X148398485Y-255941809D02*
X148474676Y-255979905D01*
X148474676Y-255979905D02*
X148588961Y-255979905D01*
X148588961Y-255979905D02*
X148665152Y-255941809D01*
X148665152Y-255941809D02*
X148703247Y-255903714D01*
X148703247Y-255903714D02*
X148741342Y-255827524D01*
X148741342Y-255827524D02*
X148741342Y-255522762D01*
X149084200Y-256284666D02*
X149122295Y-256398952D01*
X149122295Y-256398952D02*
X149122295Y-256589428D01*
X149122295Y-256589428D02*
X149084200Y-256665619D01*
X149084200Y-256665619D02*
X149046104Y-256703714D01*
X149046104Y-256703714D02*
X148969914Y-256741809D01*
X148969914Y-256741809D02*
X148893723Y-256741809D01*
X148893723Y-256741809D02*
X148817533Y-256703714D01*
X148817533Y-256703714D02*
X148779438Y-256665619D01*
X148779438Y-256665619D02*
X148741342Y-256589428D01*
X148741342Y-256589428D02*
X148703247Y-256437047D01*
X148703247Y-256437047D02*
X148665152Y-256360857D01*
X148665152Y-256360857D02*
X148627057Y-256322762D01*
X148627057Y-256322762D02*
X148550866Y-256284666D01*
X148550866Y-256284666D02*
X148474676Y-256284666D01*
X148474676Y-256284666D02*
X148398485Y-256322762D01*
X148398485Y-256322762D02*
X148360390Y-256360857D01*
X148360390Y-256360857D02*
X148322295Y-256437047D01*
X148322295Y-256437047D02*
X148322295Y-256627524D01*
X148322295Y-256627524D02*
X148360390Y-256741809D01*
X148322295Y-256970381D02*
X148322295Y-257427524D01*
X149122295Y-257198952D02*
X148322295Y-257198952D01*
X153402295Y-255567191D02*
X153402295Y-255643381D01*
X153402295Y-255643381D02*
X153440390Y-255719572D01*
X153440390Y-255719572D02*
X153478485Y-255757667D01*
X153478485Y-255757667D02*
X153554676Y-255795762D01*
X153554676Y-255795762D02*
X153707057Y-255833857D01*
X153707057Y-255833857D02*
X153897533Y-255833857D01*
X153897533Y-255833857D02*
X154049914Y-255795762D01*
X154049914Y-255795762D02*
X154126104Y-255757667D01*
X154126104Y-255757667D02*
X154164200Y-255719572D01*
X154164200Y-255719572D02*
X154202295Y-255643381D01*
X154202295Y-255643381D02*
X154202295Y-255567191D01*
X154202295Y-255567191D02*
X154164200Y-255491000D01*
X154164200Y-255491000D02*
X154126104Y-255452905D01*
X154126104Y-255452905D02*
X154049914Y-255414810D01*
X154049914Y-255414810D02*
X153897533Y-255376714D01*
X153897533Y-255376714D02*
X153707057Y-255376714D01*
X153707057Y-255376714D02*
X153554676Y-255414810D01*
X153554676Y-255414810D02*
X153478485Y-255452905D01*
X153478485Y-255452905D02*
X153440390Y-255491000D01*
X153440390Y-255491000D02*
X153402295Y-255567191D01*
X153402295Y-256100524D02*
X153402295Y-256595762D01*
X153402295Y-256595762D02*
X153707057Y-256329096D01*
X153707057Y-256329096D02*
X153707057Y-256443381D01*
X153707057Y-256443381D02*
X153745152Y-256519572D01*
X153745152Y-256519572D02*
X153783247Y-256557667D01*
X153783247Y-256557667D02*
X153859438Y-256595762D01*
X153859438Y-256595762D02*
X154049914Y-256595762D01*
X154049914Y-256595762D02*
X154126104Y-256557667D01*
X154126104Y-256557667D02*
X154164200Y-256519572D01*
X154164200Y-256519572D02*
X154202295Y-256443381D01*
X154202295Y-256443381D02*
X154202295Y-256214810D01*
X154202295Y-256214810D02*
X154164200Y-256138619D01*
X154164200Y-256138619D02*
X154126104Y-256100524D01*
X154202295Y-257357667D02*
X154202295Y-256900524D01*
X154202295Y-257129096D02*
X153402295Y-257129096D01*
X153402295Y-257129096D02*
X153516580Y-257052905D01*
X153516580Y-257052905D02*
X153592771Y-256976715D01*
X153592771Y-256976715D02*
X153630866Y-256900524D01*
X145820390Y-255675143D02*
X145782295Y-255598953D01*
X145782295Y-255598953D02*
X145782295Y-255484667D01*
X145782295Y-255484667D02*
X145820390Y-255370381D01*
X145820390Y-255370381D02*
X145896580Y-255294191D01*
X145896580Y-255294191D02*
X145972771Y-255256096D01*
X145972771Y-255256096D02*
X146125152Y-255218000D01*
X146125152Y-255218000D02*
X146239438Y-255218000D01*
X146239438Y-255218000D02*
X146391819Y-255256096D01*
X146391819Y-255256096D02*
X146468009Y-255294191D01*
X146468009Y-255294191D02*
X146544200Y-255370381D01*
X146544200Y-255370381D02*
X146582295Y-255484667D01*
X146582295Y-255484667D02*
X146582295Y-255560858D01*
X146582295Y-255560858D02*
X146544200Y-255675143D01*
X146544200Y-255675143D02*
X146506104Y-255713239D01*
X146506104Y-255713239D02*
X146239438Y-255713239D01*
X146239438Y-255713239D02*
X146239438Y-255560858D01*
X146582295Y-256056096D02*
X145782295Y-256056096D01*
X145782295Y-256056096D02*
X146582295Y-256513239D01*
X146582295Y-256513239D02*
X145782295Y-256513239D01*
X146582295Y-256894191D02*
X145782295Y-256894191D01*
X145782295Y-256894191D02*
X145782295Y-257084667D01*
X145782295Y-257084667D02*
X145820390Y-257198953D01*
X145820390Y-257198953D02*
X145896580Y-257275143D01*
X145896580Y-257275143D02*
X145972771Y-257313238D01*
X145972771Y-257313238D02*
X146125152Y-257351334D01*
X146125152Y-257351334D02*
X146239438Y-257351334D01*
X146239438Y-257351334D02*
X146391819Y-257313238D01*
X146391819Y-257313238D02*
X146468009Y-257275143D01*
X146468009Y-257275143D02*
X146544200Y-257198953D01*
X146544200Y-257198953D02*
X146582295Y-257084667D01*
X146582295Y-257084667D02*
X146582295Y-256894191D01*
X166902295Y-255833857D02*
X166902295Y-255376714D01*
X166902295Y-255605286D02*
X166102295Y-255605286D01*
X166102295Y-255605286D02*
X166216580Y-255529095D01*
X166216580Y-255529095D02*
X166292771Y-255452905D01*
X166292771Y-255452905D02*
X166330866Y-255376714D01*
X166902295Y-256595762D02*
X166902295Y-256138619D01*
X166902295Y-256367191D02*
X166102295Y-256367191D01*
X166102295Y-256367191D02*
X166216580Y-256291000D01*
X166216580Y-256291000D02*
X166292771Y-256214810D01*
X166292771Y-256214810D02*
X166330866Y-256138619D01*
X166902295Y-257357667D02*
X166902295Y-256900524D01*
X166902295Y-257129096D02*
X166102295Y-257129096D01*
X166102295Y-257129096D02*
X166216580Y-257052905D01*
X166216580Y-257052905D02*
X166292771Y-256976715D01*
X166292771Y-256976715D02*
X166330866Y-256900524D01*
X150900390Y-244759476D02*
X150862295Y-244683286D01*
X150862295Y-244683286D02*
X150862295Y-244569000D01*
X150862295Y-244569000D02*
X150900390Y-244454714D01*
X150900390Y-244454714D02*
X150976580Y-244378524D01*
X150976580Y-244378524D02*
X151052771Y-244340429D01*
X151052771Y-244340429D02*
X151205152Y-244302333D01*
X151205152Y-244302333D02*
X151319438Y-244302333D01*
X151319438Y-244302333D02*
X151471819Y-244340429D01*
X151471819Y-244340429D02*
X151548009Y-244378524D01*
X151548009Y-244378524D02*
X151624200Y-244454714D01*
X151624200Y-244454714D02*
X151662295Y-244569000D01*
X151662295Y-244569000D02*
X151662295Y-244645191D01*
X151662295Y-244645191D02*
X151624200Y-244759476D01*
X151624200Y-244759476D02*
X151586104Y-244797572D01*
X151586104Y-244797572D02*
X151319438Y-244797572D01*
X151319438Y-244797572D02*
X151319438Y-244645191D01*
X151662295Y-245140429D02*
X150862295Y-245140429D01*
X150862295Y-245140429D02*
X151662295Y-245597572D01*
X151662295Y-245597572D02*
X150862295Y-245597572D01*
X151662295Y-245978524D02*
X150862295Y-245978524D01*
X150862295Y-245978524D02*
X150862295Y-246169000D01*
X150862295Y-246169000D02*
X150900390Y-246283286D01*
X150900390Y-246283286D02*
X150976580Y-246359476D01*
X150976580Y-246359476D02*
X151052771Y-246397571D01*
X151052771Y-246397571D02*
X151205152Y-246435667D01*
X151205152Y-246435667D02*
X151319438Y-246435667D01*
X151319438Y-246435667D02*
X151471819Y-246397571D01*
X151471819Y-246397571D02*
X151548009Y-246359476D01*
X151548009Y-246359476D02*
X151624200Y-246283286D01*
X151624200Y-246283286D02*
X151662295Y-246169000D01*
X151662295Y-246169000D02*
X151662295Y-245978524D01*
X169442295Y-244759476D02*
X169442295Y-244302333D01*
X169442295Y-244530905D02*
X168642295Y-244530905D01*
X168642295Y-244530905D02*
X168756580Y-244454714D01*
X168756580Y-244454714D02*
X168832771Y-244378524D01*
X168832771Y-244378524D02*
X168870866Y-244302333D01*
X168642295Y-245254715D02*
X168642295Y-245330905D01*
X168642295Y-245330905D02*
X168680390Y-245407096D01*
X168680390Y-245407096D02*
X168718485Y-245445191D01*
X168718485Y-245445191D02*
X168794676Y-245483286D01*
X168794676Y-245483286D02*
X168947057Y-245521381D01*
X168947057Y-245521381D02*
X169137533Y-245521381D01*
X169137533Y-245521381D02*
X169289914Y-245483286D01*
X169289914Y-245483286D02*
X169366104Y-245445191D01*
X169366104Y-245445191D02*
X169404200Y-245407096D01*
X169404200Y-245407096D02*
X169442295Y-245330905D01*
X169442295Y-245330905D02*
X169442295Y-245254715D01*
X169442295Y-245254715D02*
X169404200Y-245178524D01*
X169404200Y-245178524D02*
X169366104Y-245140429D01*
X169366104Y-245140429D02*
X169289914Y-245102334D01*
X169289914Y-245102334D02*
X169137533Y-245064238D01*
X169137533Y-245064238D02*
X168947057Y-245064238D01*
X168947057Y-245064238D02*
X168794676Y-245102334D01*
X168794676Y-245102334D02*
X168718485Y-245140429D01*
X168718485Y-245140429D02*
X168680390Y-245178524D01*
X168680390Y-245178524D02*
X168642295Y-245254715D01*
X168908961Y-246207096D02*
X169442295Y-246207096D01*
X168604200Y-246016620D02*
X169175628Y-245826143D01*
X169175628Y-245826143D02*
X169175628Y-246321382D01*
X161822295Y-255833857D02*
X161822295Y-255376714D01*
X161822295Y-255605286D02*
X161022295Y-255605286D01*
X161022295Y-255605286D02*
X161136580Y-255529095D01*
X161136580Y-255529095D02*
X161212771Y-255452905D01*
X161212771Y-255452905D02*
X161250866Y-255376714D01*
X161822295Y-256595762D02*
X161822295Y-256138619D01*
X161822295Y-256367191D02*
X161022295Y-256367191D01*
X161022295Y-256367191D02*
X161136580Y-256291000D01*
X161136580Y-256291000D02*
X161212771Y-256214810D01*
X161212771Y-256214810D02*
X161250866Y-256138619D01*
X161022295Y-257319572D02*
X161022295Y-256938620D01*
X161022295Y-256938620D02*
X161403247Y-256900524D01*
X161403247Y-256900524D02*
X161365152Y-256938620D01*
X161365152Y-256938620D02*
X161327057Y-257014810D01*
X161327057Y-257014810D02*
X161327057Y-257205286D01*
X161327057Y-257205286D02*
X161365152Y-257281477D01*
X161365152Y-257281477D02*
X161403247Y-257319572D01*
X161403247Y-257319572D02*
X161479438Y-257357667D01*
X161479438Y-257357667D02*
X161669914Y-257357667D01*
X161669914Y-257357667D02*
X161746104Y-257319572D01*
X161746104Y-257319572D02*
X161784200Y-257281477D01*
X161784200Y-257281477D02*
X161822295Y-257205286D01*
X161822295Y-257205286D02*
X161822295Y-257014810D01*
X161822295Y-257014810D02*
X161784200Y-256938620D01*
X161784200Y-256938620D02*
X161746104Y-256900524D01*
X158512295Y-244492810D02*
X158512295Y-244569000D01*
X158512295Y-244569000D02*
X158550390Y-244645191D01*
X158550390Y-244645191D02*
X158588485Y-244683286D01*
X158588485Y-244683286D02*
X158664676Y-244721381D01*
X158664676Y-244721381D02*
X158817057Y-244759476D01*
X158817057Y-244759476D02*
X159007533Y-244759476D01*
X159007533Y-244759476D02*
X159159914Y-244721381D01*
X159159914Y-244721381D02*
X159236104Y-244683286D01*
X159236104Y-244683286D02*
X159274200Y-244645191D01*
X159274200Y-244645191D02*
X159312295Y-244569000D01*
X159312295Y-244569000D02*
X159312295Y-244492810D01*
X159312295Y-244492810D02*
X159274200Y-244416619D01*
X159274200Y-244416619D02*
X159236104Y-244378524D01*
X159236104Y-244378524D02*
X159159914Y-244340429D01*
X159159914Y-244340429D02*
X159007533Y-244302333D01*
X159007533Y-244302333D02*
X158817057Y-244302333D01*
X158817057Y-244302333D02*
X158664676Y-244340429D01*
X158664676Y-244340429D02*
X158588485Y-244378524D01*
X158588485Y-244378524D02*
X158550390Y-244416619D01*
X158550390Y-244416619D02*
X158512295Y-244492810D01*
X158588485Y-245064238D02*
X158550390Y-245102334D01*
X158550390Y-245102334D02*
X158512295Y-245178524D01*
X158512295Y-245178524D02*
X158512295Y-245369000D01*
X158512295Y-245369000D02*
X158550390Y-245445191D01*
X158550390Y-245445191D02*
X158588485Y-245483286D01*
X158588485Y-245483286D02*
X158664676Y-245521381D01*
X158664676Y-245521381D02*
X158740866Y-245521381D01*
X158740866Y-245521381D02*
X158855152Y-245483286D01*
X158855152Y-245483286D02*
X159312295Y-245026143D01*
X159312295Y-245026143D02*
X159312295Y-245521381D01*
X158588485Y-245826143D02*
X158550390Y-245864239D01*
X158550390Y-245864239D02*
X158512295Y-245940429D01*
X158512295Y-245940429D02*
X158512295Y-246130905D01*
X158512295Y-246130905D02*
X158550390Y-246207096D01*
X158550390Y-246207096D02*
X158588485Y-246245191D01*
X158588485Y-246245191D02*
X158664676Y-246283286D01*
X158664676Y-246283286D02*
X158740866Y-246283286D01*
X158740866Y-246283286D02*
X158855152Y-246245191D01*
X158855152Y-246245191D02*
X159312295Y-245788048D01*
X159312295Y-245788048D02*
X159312295Y-246283286D01*
X144042295Y-255751334D02*
X143661342Y-255484667D01*
X144042295Y-255294191D02*
X143242295Y-255294191D01*
X143242295Y-255294191D02*
X143242295Y-255598953D01*
X143242295Y-255598953D02*
X143280390Y-255675143D01*
X143280390Y-255675143D02*
X143318485Y-255713238D01*
X143318485Y-255713238D02*
X143394676Y-255751334D01*
X143394676Y-255751334D02*
X143508961Y-255751334D01*
X143508961Y-255751334D02*
X143585152Y-255713238D01*
X143585152Y-255713238D02*
X143623247Y-255675143D01*
X143623247Y-255675143D02*
X143661342Y-255598953D01*
X143661342Y-255598953D02*
X143661342Y-255294191D01*
X143813723Y-256056095D02*
X143813723Y-256437048D01*
X144042295Y-255979905D02*
X143242295Y-256246572D01*
X143242295Y-256246572D02*
X144042295Y-256513238D01*
X143242295Y-256703714D02*
X144042295Y-256894190D01*
X144042295Y-256894190D02*
X143470866Y-257046571D01*
X143470866Y-257046571D02*
X144042295Y-257198952D01*
X144042295Y-257198952D02*
X143242295Y-257389429D01*
X153412295Y-244492810D02*
X153412295Y-244569000D01*
X153412295Y-244569000D02*
X153450390Y-244645191D01*
X153450390Y-244645191D02*
X153488485Y-244683286D01*
X153488485Y-244683286D02*
X153564676Y-244721381D01*
X153564676Y-244721381D02*
X153717057Y-244759476D01*
X153717057Y-244759476D02*
X153907533Y-244759476D01*
X153907533Y-244759476D02*
X154059914Y-244721381D01*
X154059914Y-244721381D02*
X154136104Y-244683286D01*
X154136104Y-244683286D02*
X154174200Y-244645191D01*
X154174200Y-244645191D02*
X154212295Y-244569000D01*
X154212295Y-244569000D02*
X154212295Y-244492810D01*
X154212295Y-244492810D02*
X154174200Y-244416619D01*
X154174200Y-244416619D02*
X154136104Y-244378524D01*
X154136104Y-244378524D02*
X154059914Y-244340429D01*
X154059914Y-244340429D02*
X153907533Y-244302333D01*
X153907533Y-244302333D02*
X153717057Y-244302333D01*
X153717057Y-244302333D02*
X153564676Y-244340429D01*
X153564676Y-244340429D02*
X153488485Y-244378524D01*
X153488485Y-244378524D02*
X153450390Y-244416619D01*
X153450390Y-244416619D02*
X153412295Y-244492810D01*
X154212295Y-245521381D02*
X154212295Y-245064238D01*
X154212295Y-245292810D02*
X153412295Y-245292810D01*
X153412295Y-245292810D02*
X153526580Y-245216619D01*
X153526580Y-245216619D02*
X153602771Y-245140429D01*
X153602771Y-245140429D02*
X153640866Y-245064238D01*
X153412295Y-245788048D02*
X153412295Y-246321382D01*
X153412295Y-246321382D02*
X154212295Y-245978524D01*
X164362295Y-244759476D02*
X164362295Y-244302333D01*
X164362295Y-244530905D02*
X163562295Y-244530905D01*
X163562295Y-244530905D02*
X163676580Y-244454714D01*
X163676580Y-244454714D02*
X163752771Y-244378524D01*
X163752771Y-244378524D02*
X163790866Y-244302333D01*
X163562295Y-245254715D02*
X163562295Y-245330905D01*
X163562295Y-245330905D02*
X163600390Y-245407096D01*
X163600390Y-245407096D02*
X163638485Y-245445191D01*
X163638485Y-245445191D02*
X163714676Y-245483286D01*
X163714676Y-245483286D02*
X163867057Y-245521381D01*
X163867057Y-245521381D02*
X164057533Y-245521381D01*
X164057533Y-245521381D02*
X164209914Y-245483286D01*
X164209914Y-245483286D02*
X164286104Y-245445191D01*
X164286104Y-245445191D02*
X164324200Y-245407096D01*
X164324200Y-245407096D02*
X164362295Y-245330905D01*
X164362295Y-245330905D02*
X164362295Y-245254715D01*
X164362295Y-245254715D02*
X164324200Y-245178524D01*
X164324200Y-245178524D02*
X164286104Y-245140429D01*
X164286104Y-245140429D02*
X164209914Y-245102334D01*
X164209914Y-245102334D02*
X164057533Y-245064238D01*
X164057533Y-245064238D02*
X163867057Y-245064238D01*
X163867057Y-245064238D02*
X163714676Y-245102334D01*
X163714676Y-245102334D02*
X163638485Y-245140429D01*
X163638485Y-245140429D02*
X163600390Y-245178524D01*
X163600390Y-245178524D02*
X163562295Y-245254715D01*
X163562295Y-246016620D02*
X163562295Y-246092810D01*
X163562295Y-246092810D02*
X163600390Y-246169001D01*
X163600390Y-246169001D02*
X163638485Y-246207096D01*
X163638485Y-246207096D02*
X163714676Y-246245191D01*
X163714676Y-246245191D02*
X163867057Y-246283286D01*
X163867057Y-246283286D02*
X164057533Y-246283286D01*
X164057533Y-246283286D02*
X164209914Y-246245191D01*
X164209914Y-246245191D02*
X164286104Y-246207096D01*
X164286104Y-246207096D02*
X164324200Y-246169001D01*
X164324200Y-246169001D02*
X164362295Y-246092810D01*
X164362295Y-246092810D02*
X164362295Y-246016620D01*
X164362295Y-246016620D02*
X164324200Y-245940429D01*
X164324200Y-245940429D02*
X164286104Y-245902334D01*
X164286104Y-245902334D02*
X164209914Y-245864239D01*
X164209914Y-245864239D02*
X164057533Y-245826143D01*
X164057533Y-245826143D02*
X163867057Y-245826143D01*
X163867057Y-245826143D02*
X163714676Y-245864239D01*
X163714676Y-245864239D02*
X163638485Y-245902334D01*
X163638485Y-245902334D02*
X163600390Y-245940429D01*
X163600390Y-245940429D02*
X163562295Y-246016620D01*
X155942295Y-255567191D02*
X155942295Y-255643381D01*
X155942295Y-255643381D02*
X155980390Y-255719572D01*
X155980390Y-255719572D02*
X156018485Y-255757667D01*
X156018485Y-255757667D02*
X156094676Y-255795762D01*
X156094676Y-255795762D02*
X156247057Y-255833857D01*
X156247057Y-255833857D02*
X156437533Y-255833857D01*
X156437533Y-255833857D02*
X156589914Y-255795762D01*
X156589914Y-255795762D02*
X156666104Y-255757667D01*
X156666104Y-255757667D02*
X156704200Y-255719572D01*
X156704200Y-255719572D02*
X156742295Y-255643381D01*
X156742295Y-255643381D02*
X156742295Y-255567191D01*
X156742295Y-255567191D02*
X156704200Y-255491000D01*
X156704200Y-255491000D02*
X156666104Y-255452905D01*
X156666104Y-255452905D02*
X156589914Y-255414810D01*
X156589914Y-255414810D02*
X156437533Y-255376714D01*
X156437533Y-255376714D02*
X156247057Y-255376714D01*
X156247057Y-255376714D02*
X156094676Y-255414810D01*
X156094676Y-255414810D02*
X156018485Y-255452905D01*
X156018485Y-255452905D02*
X155980390Y-255491000D01*
X155980390Y-255491000D02*
X155942295Y-255567191D01*
X156018485Y-256138619D02*
X155980390Y-256176715D01*
X155980390Y-256176715D02*
X155942295Y-256252905D01*
X155942295Y-256252905D02*
X155942295Y-256443381D01*
X155942295Y-256443381D02*
X155980390Y-256519572D01*
X155980390Y-256519572D02*
X156018485Y-256557667D01*
X156018485Y-256557667D02*
X156094676Y-256595762D01*
X156094676Y-256595762D02*
X156170866Y-256595762D01*
X156170866Y-256595762D02*
X156285152Y-256557667D01*
X156285152Y-256557667D02*
X156742295Y-256100524D01*
X156742295Y-256100524D02*
X156742295Y-256595762D01*
X156742295Y-256976715D02*
X156742295Y-257129096D01*
X156742295Y-257129096D02*
X156704200Y-257205286D01*
X156704200Y-257205286D02*
X156666104Y-257243382D01*
X156666104Y-257243382D02*
X156551819Y-257319572D01*
X156551819Y-257319572D02*
X156399438Y-257357667D01*
X156399438Y-257357667D02*
X156094676Y-257357667D01*
X156094676Y-257357667D02*
X156018485Y-257319572D01*
X156018485Y-257319572D02*
X155980390Y-257281477D01*
X155980390Y-257281477D02*
X155942295Y-257205286D01*
X155942295Y-257205286D02*
X155942295Y-257052905D01*
X155942295Y-257052905D02*
X155980390Y-256976715D01*
X155980390Y-256976715D02*
X156018485Y-256938620D01*
X156018485Y-256938620D02*
X156094676Y-256900524D01*
X156094676Y-256900524D02*
X156285152Y-256900524D01*
X156285152Y-256900524D02*
X156361342Y-256938620D01*
X156361342Y-256938620D02*
X156399438Y-256976715D01*
X156399438Y-256976715D02*
X156437533Y-257052905D01*
X156437533Y-257052905D02*
X156437533Y-257205286D01*
X156437533Y-257205286D02*
X156399438Y-257281477D01*
X156399438Y-257281477D02*
X156361342Y-257319572D01*
X156361342Y-257319572D02*
X156285152Y-257357667D01*
D11*
X170790328Y-246048285D02*
X171790328Y-246048285D01*
X170933185Y-246048285D02*
X170861757Y-246119714D01*
X170861757Y-246119714D02*
X170790328Y-246262571D01*
X170790328Y-246262571D02*
X170790328Y-246476857D01*
X170790328Y-246476857D02*
X170861757Y-246619714D01*
X170861757Y-246619714D02*
X171004614Y-246691143D01*
X171004614Y-246691143D02*
X171790328Y-246691143D01*
X171790328Y-247405428D02*
X170790328Y-247405428D01*
X170290328Y-247405428D02*
X170361757Y-247334000D01*
X170361757Y-247334000D02*
X170433185Y-247405428D01*
X170433185Y-247405428D02*
X170361757Y-247476857D01*
X170361757Y-247476857D02*
X170290328Y-247405428D01*
X170290328Y-247405428D02*
X170433185Y-247405428D01*
X171718900Y-248762572D02*
X171790328Y-248619714D01*
X171790328Y-248619714D02*
X171790328Y-248334000D01*
X171790328Y-248334000D02*
X171718900Y-248191143D01*
X171718900Y-248191143D02*
X171647471Y-248119714D01*
X171647471Y-248119714D02*
X171504614Y-248048286D01*
X171504614Y-248048286D02*
X171076042Y-248048286D01*
X171076042Y-248048286D02*
X170933185Y-248119714D01*
X170933185Y-248119714D02*
X170861757Y-248191143D01*
X170861757Y-248191143D02*
X170790328Y-248334000D01*
X170790328Y-248334000D02*
X170790328Y-248619714D01*
X170790328Y-248619714D02*
X170861757Y-248762572D01*
X171718900Y-249976857D02*
X171790328Y-249834000D01*
X171790328Y-249834000D02*
X171790328Y-249548286D01*
X171790328Y-249548286D02*
X171718900Y-249405428D01*
X171718900Y-249405428D02*
X171576042Y-249334000D01*
X171576042Y-249334000D02*
X171004614Y-249334000D01*
X171004614Y-249334000D02*
X170861757Y-249405428D01*
X170861757Y-249405428D02*
X170790328Y-249548286D01*
X170790328Y-249548286D02*
X170790328Y-249834000D01*
X170790328Y-249834000D02*
X170861757Y-249976857D01*
X170861757Y-249976857D02*
X171004614Y-250048286D01*
X171004614Y-250048286D02*
X171147471Y-250048286D01*
X171147471Y-250048286D02*
X171290328Y-249334000D01*
X171647471Y-250691142D02*
X171718900Y-250762571D01*
X171718900Y-250762571D02*
X171790328Y-250691142D01*
X171790328Y-250691142D02*
X171718900Y-250619714D01*
X171718900Y-250619714D02*
X171647471Y-250691142D01*
X171647471Y-250691142D02*
X171790328Y-250691142D01*
X171218900Y-250691142D02*
X170361757Y-250619714D01*
X170361757Y-250619714D02*
X170290328Y-250691142D01*
X170290328Y-250691142D02*
X170361757Y-250762571D01*
X170361757Y-250762571D02*
X171218900Y-250691142D01*
X171218900Y-250691142D02*
X170290328Y-250691142D01*
X170790328Y-251405428D02*
X171790328Y-251405428D01*
X170933185Y-251405428D02*
X170861757Y-251476857D01*
X170861757Y-251476857D02*
X170790328Y-251619714D01*
X170790328Y-251619714D02*
X170790328Y-251834000D01*
X170790328Y-251834000D02*
X170861757Y-251976857D01*
X170861757Y-251976857D02*
X171004614Y-252048286D01*
X171004614Y-252048286D02*
X171790328Y-252048286D01*
X171790328Y-253405429D02*
X171004614Y-253405429D01*
X171004614Y-253405429D02*
X170861757Y-253334000D01*
X170861757Y-253334000D02*
X170790328Y-253191143D01*
X170790328Y-253191143D02*
X170790328Y-252905429D01*
X170790328Y-252905429D02*
X170861757Y-252762571D01*
X171718900Y-253405429D02*
X171790328Y-253262571D01*
X171790328Y-253262571D02*
X171790328Y-252905429D01*
X171790328Y-252905429D02*
X171718900Y-252762571D01*
X171718900Y-252762571D02*
X171576042Y-252691143D01*
X171576042Y-252691143D02*
X171433185Y-252691143D01*
X171433185Y-252691143D02*
X171290328Y-252762571D01*
X171290328Y-252762571D02*
X171218900Y-252905429D01*
X171218900Y-252905429D02*
X171218900Y-253262571D01*
X171218900Y-253262571D02*
X171147471Y-253405429D01*
X170790328Y-254119714D02*
X171790328Y-254119714D01*
X170933185Y-254119714D02*
X170861757Y-254191143D01*
X170861757Y-254191143D02*
X170790328Y-254334000D01*
X170790328Y-254334000D02*
X170790328Y-254548286D01*
X170790328Y-254548286D02*
X170861757Y-254691143D01*
X170861757Y-254691143D02*
X171004614Y-254762572D01*
X171004614Y-254762572D02*
X171790328Y-254762572D01*
X171790328Y-255691143D02*
X171718900Y-255548286D01*
X171718900Y-255548286D02*
X171647471Y-255476857D01*
X171647471Y-255476857D02*
X171504614Y-255405429D01*
X171504614Y-255405429D02*
X171076042Y-255405429D01*
X171076042Y-255405429D02*
X170933185Y-255476857D01*
X170933185Y-255476857D02*
X170861757Y-255548286D01*
X170861757Y-255548286D02*
X170790328Y-255691143D01*
X170790328Y-255691143D02*
X170790328Y-255905429D01*
X170790328Y-255905429D02*
X170861757Y-256048286D01*
X170861757Y-256048286D02*
X170933185Y-256119715D01*
X170933185Y-256119715D02*
X171076042Y-256191143D01*
X171076042Y-256191143D02*
X171504614Y-256191143D01*
X171504614Y-256191143D02*
X171647471Y-256119715D01*
X171647471Y-256119715D02*
X171718900Y-256048286D01*
X171718900Y-256048286D02*
X171790328Y-255905429D01*
X171790328Y-255905429D02*
X171790328Y-255691143D01*
D10*
X164362295Y-255833857D02*
X164362295Y-255376714D01*
X164362295Y-255605286D02*
X163562295Y-255605286D01*
X163562295Y-255605286D02*
X163676580Y-255529095D01*
X163676580Y-255529095D02*
X163752771Y-255452905D01*
X163752771Y-255452905D02*
X163790866Y-255376714D01*
X164362295Y-256595762D02*
X164362295Y-256138619D01*
X164362295Y-256367191D02*
X163562295Y-256367191D01*
X163562295Y-256367191D02*
X163676580Y-256291000D01*
X163676580Y-256291000D02*
X163752771Y-256214810D01*
X163752771Y-256214810D02*
X163790866Y-256138619D01*
X163562295Y-256862429D02*
X163562295Y-257357667D01*
X163562295Y-257357667D02*
X163867057Y-257091001D01*
X163867057Y-257091001D02*
X163867057Y-257205286D01*
X163867057Y-257205286D02*
X163905152Y-257281477D01*
X163905152Y-257281477D02*
X163943247Y-257319572D01*
X163943247Y-257319572D02*
X164019438Y-257357667D01*
X164019438Y-257357667D02*
X164209914Y-257357667D01*
X164209914Y-257357667D02*
X164286104Y-257319572D01*
X164286104Y-257319572D02*
X164324200Y-257281477D01*
X164324200Y-257281477D02*
X164362295Y-257205286D01*
X164362295Y-257205286D02*
X164362295Y-256976715D01*
X164362295Y-256976715D02*
X164324200Y-256900524D01*
X164324200Y-256900524D02*
X164286104Y-256862429D01*
X148360390Y-244759476D02*
X148322295Y-244683286D01*
X148322295Y-244683286D02*
X148322295Y-244569000D01*
X148322295Y-244569000D02*
X148360390Y-244454714D01*
X148360390Y-244454714D02*
X148436580Y-244378524D01*
X148436580Y-244378524D02*
X148512771Y-244340429D01*
X148512771Y-244340429D02*
X148665152Y-244302333D01*
X148665152Y-244302333D02*
X148779438Y-244302333D01*
X148779438Y-244302333D02*
X148931819Y-244340429D01*
X148931819Y-244340429D02*
X149008009Y-244378524D01*
X149008009Y-244378524D02*
X149084200Y-244454714D01*
X149084200Y-244454714D02*
X149122295Y-244569000D01*
X149122295Y-244569000D02*
X149122295Y-244645191D01*
X149122295Y-244645191D02*
X149084200Y-244759476D01*
X149084200Y-244759476D02*
X149046104Y-244797572D01*
X149046104Y-244797572D02*
X148779438Y-244797572D01*
X148779438Y-244797572D02*
X148779438Y-244645191D01*
X149122295Y-245140429D02*
X148322295Y-245140429D01*
X148322295Y-245140429D02*
X149122295Y-245597572D01*
X149122295Y-245597572D02*
X148322295Y-245597572D01*
X149122295Y-245978524D02*
X148322295Y-245978524D01*
X148322295Y-245978524D02*
X148322295Y-246169000D01*
X148322295Y-246169000D02*
X148360390Y-246283286D01*
X148360390Y-246283286D02*
X148436580Y-246359476D01*
X148436580Y-246359476D02*
X148512771Y-246397571D01*
X148512771Y-246397571D02*
X148665152Y-246435667D01*
X148665152Y-246435667D02*
X148779438Y-246435667D01*
X148779438Y-246435667D02*
X148931819Y-246397571D01*
X148931819Y-246397571D02*
X149008009Y-246359476D01*
X149008009Y-246359476D02*
X149084200Y-246283286D01*
X149084200Y-246283286D02*
X149122295Y-246169000D01*
X149122295Y-246169000D02*
X149122295Y-245978524D01*
X168642295Y-255567191D02*
X168642295Y-255643381D01*
X168642295Y-255643381D02*
X168680390Y-255719572D01*
X168680390Y-255719572D02*
X168718485Y-255757667D01*
X168718485Y-255757667D02*
X168794676Y-255795762D01*
X168794676Y-255795762D02*
X168947057Y-255833857D01*
X168947057Y-255833857D02*
X169137533Y-255833857D01*
X169137533Y-255833857D02*
X169289914Y-255795762D01*
X169289914Y-255795762D02*
X169366104Y-255757667D01*
X169366104Y-255757667D02*
X169404200Y-255719572D01*
X169404200Y-255719572D02*
X169442295Y-255643381D01*
X169442295Y-255643381D02*
X169442295Y-255567191D01*
X169442295Y-255567191D02*
X169404200Y-255491000D01*
X169404200Y-255491000D02*
X169366104Y-255452905D01*
X169366104Y-255452905D02*
X169289914Y-255414810D01*
X169289914Y-255414810D02*
X169137533Y-255376714D01*
X169137533Y-255376714D02*
X168947057Y-255376714D01*
X168947057Y-255376714D02*
X168794676Y-255414810D01*
X168794676Y-255414810D02*
X168718485Y-255452905D01*
X168718485Y-255452905D02*
X168680390Y-255491000D01*
X168680390Y-255491000D02*
X168642295Y-255567191D01*
X169442295Y-256595762D02*
X169442295Y-256138619D01*
X169442295Y-256367191D02*
X168642295Y-256367191D01*
X168642295Y-256367191D02*
X168756580Y-256291000D01*
X168756580Y-256291000D02*
X168832771Y-256214810D01*
X168832771Y-256214810D02*
X168870866Y-256138619D01*
X168642295Y-257091001D02*
X168642295Y-257167191D01*
X168642295Y-257167191D02*
X168680390Y-257243382D01*
X168680390Y-257243382D02*
X168718485Y-257281477D01*
X168718485Y-257281477D02*
X168794676Y-257319572D01*
X168794676Y-257319572D02*
X168947057Y-257357667D01*
X168947057Y-257357667D02*
X169137533Y-257357667D01*
X169137533Y-257357667D02*
X169289914Y-257319572D01*
X169289914Y-257319572D02*
X169366104Y-257281477D01*
X169366104Y-257281477D02*
X169404200Y-257243382D01*
X169404200Y-257243382D02*
X169442295Y-257167191D01*
X169442295Y-257167191D02*
X169442295Y-257091001D01*
X169442295Y-257091001D02*
X169404200Y-257014810D01*
X169404200Y-257014810D02*
X169366104Y-256976715D01*
X169366104Y-256976715D02*
X169289914Y-256938620D01*
X169289914Y-256938620D02*
X169137533Y-256900524D01*
X169137533Y-256900524D02*
X168947057Y-256900524D01*
X168947057Y-256900524D02*
X168794676Y-256938620D01*
X168794676Y-256938620D02*
X168718485Y-256976715D01*
X168718485Y-256976715D02*
X168680390Y-257014810D01*
X168680390Y-257014810D02*
X168642295Y-257091001D01*
X26519292Y-123828437D02*
X26519292Y-123904627D01*
X26519292Y-123904627D02*
X26557387Y-123980818D01*
X26557387Y-123980818D02*
X26595482Y-124018913D01*
X26595482Y-124018913D02*
X26671673Y-124057008D01*
X26671673Y-124057008D02*
X26824054Y-124095103D01*
X26824054Y-124095103D02*
X27014530Y-124095103D01*
X27014530Y-124095103D02*
X27166911Y-124057008D01*
X27166911Y-124057008D02*
X27243101Y-124018913D01*
X27243101Y-124018913D02*
X27281197Y-123980818D01*
X27281197Y-123980818D02*
X27319292Y-123904627D01*
X27319292Y-123904627D02*
X27319292Y-123828437D01*
X27319292Y-123828437D02*
X27281197Y-123752246D01*
X27281197Y-123752246D02*
X27243101Y-123714151D01*
X27243101Y-123714151D02*
X27166911Y-123676056D01*
X27166911Y-123676056D02*
X27014530Y-123637960D01*
X27014530Y-123637960D02*
X26824054Y-123637960D01*
X26824054Y-123637960D02*
X26671673Y-123676056D01*
X26671673Y-123676056D02*
X26595482Y-123714151D01*
X26595482Y-123714151D02*
X26557387Y-123752246D01*
X26557387Y-123752246D02*
X26519292Y-123828437D01*
X27319292Y-124857008D02*
X27319292Y-124399865D01*
X27319292Y-124628437D02*
X26519292Y-124628437D01*
X26519292Y-124628437D02*
X26633577Y-124552246D01*
X26633577Y-124552246D02*
X26709768Y-124476056D01*
X26709768Y-124476056D02*
X26747863Y-124399865D01*
X26519292Y-125352247D02*
X26519292Y-125428437D01*
X26519292Y-125428437D02*
X26557387Y-125504628D01*
X26557387Y-125504628D02*
X26595482Y-125542723D01*
X26595482Y-125542723D02*
X26671673Y-125580818D01*
X26671673Y-125580818D02*
X26824054Y-125618913D01*
X26824054Y-125618913D02*
X27014530Y-125618913D01*
X27014530Y-125618913D02*
X27166911Y-125580818D01*
X27166911Y-125580818D02*
X27243101Y-125542723D01*
X27243101Y-125542723D02*
X27281197Y-125504628D01*
X27281197Y-125504628D02*
X27319292Y-125428437D01*
X27319292Y-125428437D02*
X27319292Y-125352247D01*
X27319292Y-125352247D02*
X27281197Y-125276056D01*
X27281197Y-125276056D02*
X27243101Y-125237961D01*
X27243101Y-125237961D02*
X27166911Y-125199866D01*
X27166911Y-125199866D02*
X27014530Y-125161770D01*
X27014530Y-125161770D02*
X26824054Y-125161770D01*
X26824054Y-125161770D02*
X26671673Y-125199866D01*
X26671673Y-125199866D02*
X26595482Y-125237961D01*
X26595482Y-125237961D02*
X26557387Y-125276056D01*
X26557387Y-125276056D02*
X26519292Y-125352247D01*
X46877387Y-135017104D02*
X46839292Y-134940914D01*
X46839292Y-134940914D02*
X46839292Y-134826628D01*
X46839292Y-134826628D02*
X46877387Y-134712342D01*
X46877387Y-134712342D02*
X46953577Y-134636152D01*
X46953577Y-134636152D02*
X47029768Y-134598057D01*
X47029768Y-134598057D02*
X47182149Y-134559961D01*
X47182149Y-134559961D02*
X47296435Y-134559961D01*
X47296435Y-134559961D02*
X47448816Y-134598057D01*
X47448816Y-134598057D02*
X47525006Y-134636152D01*
X47525006Y-134636152D02*
X47601197Y-134712342D01*
X47601197Y-134712342D02*
X47639292Y-134826628D01*
X47639292Y-134826628D02*
X47639292Y-134902819D01*
X47639292Y-134902819D02*
X47601197Y-135017104D01*
X47601197Y-135017104D02*
X47563101Y-135055200D01*
X47563101Y-135055200D02*
X47296435Y-135055200D01*
X47296435Y-135055200D02*
X47296435Y-134902819D01*
X47639292Y-135398057D02*
X46839292Y-135398057D01*
X46839292Y-135398057D02*
X47639292Y-135855200D01*
X47639292Y-135855200D02*
X46839292Y-135855200D01*
X47639292Y-136236152D02*
X46839292Y-136236152D01*
X46839292Y-136236152D02*
X46839292Y-136426628D01*
X46839292Y-136426628D02*
X46877387Y-136540914D01*
X46877387Y-136540914D02*
X46953577Y-136617104D01*
X46953577Y-136617104D02*
X47029768Y-136655199D01*
X47029768Y-136655199D02*
X47182149Y-136693295D01*
X47182149Y-136693295D02*
X47296435Y-136693295D01*
X47296435Y-136693295D02*
X47448816Y-136655199D01*
X47448816Y-136655199D02*
X47525006Y-136617104D01*
X47525006Y-136617104D02*
X47601197Y-136540914D01*
X47601197Y-136540914D02*
X47639292Y-136426628D01*
X47639292Y-136426628D02*
X47639292Y-136236152D01*
X32399292Y-124095103D02*
X32399292Y-123637960D01*
X32399292Y-123866532D02*
X31599292Y-123866532D01*
X31599292Y-123866532D02*
X31713577Y-123790341D01*
X31713577Y-123790341D02*
X31789768Y-123714151D01*
X31789768Y-123714151D02*
X31827863Y-123637960D01*
X32399292Y-124857008D02*
X32399292Y-124399865D01*
X32399292Y-124628437D02*
X31599292Y-124628437D01*
X31599292Y-124628437D02*
X31713577Y-124552246D01*
X31713577Y-124552246D02*
X31789768Y-124476056D01*
X31789768Y-124476056D02*
X31827863Y-124399865D01*
X31599292Y-125123675D02*
X31599292Y-125618913D01*
X31599292Y-125618913D02*
X31904054Y-125352247D01*
X31904054Y-125352247D02*
X31904054Y-125466532D01*
X31904054Y-125466532D02*
X31942149Y-125542723D01*
X31942149Y-125542723D02*
X31980244Y-125580818D01*
X31980244Y-125580818D02*
X32056435Y-125618913D01*
X32056435Y-125618913D02*
X32246911Y-125618913D01*
X32246911Y-125618913D02*
X32323101Y-125580818D01*
X32323101Y-125580818D02*
X32361197Y-125542723D01*
X32361197Y-125542723D02*
X32399292Y-125466532D01*
X32399292Y-125466532D02*
X32399292Y-125237961D01*
X32399292Y-125237961D02*
X32361197Y-125161770D01*
X32361197Y-125161770D02*
X32323101Y-125123675D01*
D11*
X24603325Y-124875913D02*
X25603325Y-124875913D01*
X24746182Y-124875913D02*
X24674754Y-124947342D01*
X24674754Y-124947342D02*
X24603325Y-125090199D01*
X24603325Y-125090199D02*
X24603325Y-125304485D01*
X24603325Y-125304485D02*
X24674754Y-125447342D01*
X24674754Y-125447342D02*
X24817611Y-125518771D01*
X24817611Y-125518771D02*
X25603325Y-125518771D01*
X25603325Y-126233056D02*
X24603325Y-126233056D01*
X24103325Y-126233056D02*
X24174754Y-126161628D01*
X24174754Y-126161628D02*
X24246182Y-126233056D01*
X24246182Y-126233056D02*
X24174754Y-126304485D01*
X24174754Y-126304485D02*
X24103325Y-126233056D01*
X24103325Y-126233056D02*
X24246182Y-126233056D01*
X25531897Y-127590200D02*
X25603325Y-127447342D01*
X25603325Y-127447342D02*
X25603325Y-127161628D01*
X25603325Y-127161628D02*
X25531897Y-127018771D01*
X25531897Y-127018771D02*
X25460468Y-126947342D01*
X25460468Y-126947342D02*
X25317611Y-126875914D01*
X25317611Y-126875914D02*
X24889039Y-126875914D01*
X24889039Y-126875914D02*
X24746182Y-126947342D01*
X24746182Y-126947342D02*
X24674754Y-127018771D01*
X24674754Y-127018771D02*
X24603325Y-127161628D01*
X24603325Y-127161628D02*
X24603325Y-127447342D01*
X24603325Y-127447342D02*
X24674754Y-127590200D01*
X25531897Y-128804485D02*
X25603325Y-128661628D01*
X25603325Y-128661628D02*
X25603325Y-128375914D01*
X25603325Y-128375914D02*
X25531897Y-128233056D01*
X25531897Y-128233056D02*
X25389039Y-128161628D01*
X25389039Y-128161628D02*
X24817611Y-128161628D01*
X24817611Y-128161628D02*
X24674754Y-128233056D01*
X24674754Y-128233056D02*
X24603325Y-128375914D01*
X24603325Y-128375914D02*
X24603325Y-128661628D01*
X24603325Y-128661628D02*
X24674754Y-128804485D01*
X24674754Y-128804485D02*
X24817611Y-128875914D01*
X24817611Y-128875914D02*
X24960468Y-128875914D01*
X24960468Y-128875914D02*
X25103325Y-128161628D01*
X25460468Y-129518770D02*
X25531897Y-129590199D01*
X25531897Y-129590199D02*
X25603325Y-129518770D01*
X25603325Y-129518770D02*
X25531897Y-129447342D01*
X25531897Y-129447342D02*
X25460468Y-129518770D01*
X25460468Y-129518770D02*
X25603325Y-129518770D01*
X25031897Y-129518770D02*
X24174754Y-129447342D01*
X24174754Y-129447342D02*
X24103325Y-129518770D01*
X24103325Y-129518770D02*
X24174754Y-129590199D01*
X24174754Y-129590199D02*
X25031897Y-129518770D01*
X25031897Y-129518770D02*
X24103325Y-129518770D01*
X24603325Y-130233056D02*
X25603325Y-130233056D01*
X24746182Y-130233056D02*
X24674754Y-130304485D01*
X24674754Y-130304485D02*
X24603325Y-130447342D01*
X24603325Y-130447342D02*
X24603325Y-130661628D01*
X24603325Y-130661628D02*
X24674754Y-130804485D01*
X24674754Y-130804485D02*
X24817611Y-130875914D01*
X24817611Y-130875914D02*
X25603325Y-130875914D01*
X25603325Y-132233057D02*
X24817611Y-132233057D01*
X24817611Y-132233057D02*
X24674754Y-132161628D01*
X24674754Y-132161628D02*
X24603325Y-132018771D01*
X24603325Y-132018771D02*
X24603325Y-131733057D01*
X24603325Y-131733057D02*
X24674754Y-131590199D01*
X25531897Y-132233057D02*
X25603325Y-132090199D01*
X25603325Y-132090199D02*
X25603325Y-131733057D01*
X25603325Y-131733057D02*
X25531897Y-131590199D01*
X25531897Y-131590199D02*
X25389039Y-131518771D01*
X25389039Y-131518771D02*
X25246182Y-131518771D01*
X25246182Y-131518771D02*
X25103325Y-131590199D01*
X25103325Y-131590199D02*
X25031897Y-131733057D01*
X25031897Y-131733057D02*
X25031897Y-132090199D01*
X25031897Y-132090199D02*
X24960468Y-132233057D01*
X24603325Y-132947342D02*
X25603325Y-132947342D01*
X24746182Y-132947342D02*
X24674754Y-133018771D01*
X24674754Y-133018771D02*
X24603325Y-133161628D01*
X24603325Y-133161628D02*
X24603325Y-133375914D01*
X24603325Y-133375914D02*
X24674754Y-133518771D01*
X24674754Y-133518771D02*
X24817611Y-133590200D01*
X24817611Y-133590200D02*
X25603325Y-133590200D01*
X25603325Y-134518771D02*
X25531897Y-134375914D01*
X25531897Y-134375914D02*
X25460468Y-134304485D01*
X25460468Y-134304485D02*
X25317611Y-134233057D01*
X25317611Y-134233057D02*
X24889039Y-134233057D01*
X24889039Y-134233057D02*
X24746182Y-134304485D01*
X24746182Y-134304485D02*
X24674754Y-134375914D01*
X24674754Y-134375914D02*
X24603325Y-134518771D01*
X24603325Y-134518771D02*
X24603325Y-134733057D01*
X24603325Y-134733057D02*
X24674754Y-134875914D01*
X24674754Y-134875914D02*
X24746182Y-134947343D01*
X24746182Y-134947343D02*
X24889039Y-135018771D01*
X24889039Y-135018771D02*
X25317611Y-135018771D01*
X25317611Y-135018771D02*
X25460468Y-134947343D01*
X25460468Y-134947343D02*
X25531897Y-134875914D01*
X25531897Y-134875914D02*
X25603325Y-134733057D01*
X25603325Y-134733057D02*
X25603325Y-134518771D01*
D10*
X39219292Y-123828437D02*
X39219292Y-123904627D01*
X39219292Y-123904627D02*
X39257387Y-123980818D01*
X39257387Y-123980818D02*
X39295482Y-124018913D01*
X39295482Y-124018913D02*
X39371673Y-124057008D01*
X39371673Y-124057008D02*
X39524054Y-124095103D01*
X39524054Y-124095103D02*
X39714530Y-124095103D01*
X39714530Y-124095103D02*
X39866911Y-124057008D01*
X39866911Y-124057008D02*
X39943101Y-124018913D01*
X39943101Y-124018913D02*
X39981197Y-123980818D01*
X39981197Y-123980818D02*
X40019292Y-123904627D01*
X40019292Y-123904627D02*
X40019292Y-123828437D01*
X40019292Y-123828437D02*
X39981197Y-123752246D01*
X39981197Y-123752246D02*
X39943101Y-123714151D01*
X39943101Y-123714151D02*
X39866911Y-123676056D01*
X39866911Y-123676056D02*
X39714530Y-123637960D01*
X39714530Y-123637960D02*
X39524054Y-123637960D01*
X39524054Y-123637960D02*
X39371673Y-123676056D01*
X39371673Y-123676056D02*
X39295482Y-123714151D01*
X39295482Y-123714151D02*
X39257387Y-123752246D01*
X39257387Y-123752246D02*
X39219292Y-123828437D01*
X39295482Y-124399865D02*
X39257387Y-124437961D01*
X39257387Y-124437961D02*
X39219292Y-124514151D01*
X39219292Y-124514151D02*
X39219292Y-124704627D01*
X39219292Y-124704627D02*
X39257387Y-124780818D01*
X39257387Y-124780818D02*
X39295482Y-124818913D01*
X39295482Y-124818913D02*
X39371673Y-124857008D01*
X39371673Y-124857008D02*
X39447863Y-124857008D01*
X39447863Y-124857008D02*
X39562149Y-124818913D01*
X39562149Y-124818913D02*
X40019292Y-124361770D01*
X40019292Y-124361770D02*
X40019292Y-124857008D01*
X40019292Y-125237961D02*
X40019292Y-125390342D01*
X40019292Y-125390342D02*
X39981197Y-125466532D01*
X39981197Y-125466532D02*
X39943101Y-125504628D01*
X39943101Y-125504628D02*
X39828816Y-125580818D01*
X39828816Y-125580818D02*
X39676435Y-125618913D01*
X39676435Y-125618913D02*
X39371673Y-125618913D01*
X39371673Y-125618913D02*
X39295482Y-125580818D01*
X39295482Y-125580818D02*
X39257387Y-125542723D01*
X39257387Y-125542723D02*
X39219292Y-125466532D01*
X39219292Y-125466532D02*
X39219292Y-125314151D01*
X39219292Y-125314151D02*
X39257387Y-125237961D01*
X39257387Y-125237961D02*
X39295482Y-125199866D01*
X39295482Y-125199866D02*
X39371673Y-125161770D01*
X39371673Y-125161770D02*
X39562149Y-125161770D01*
X39562149Y-125161770D02*
X39638339Y-125199866D01*
X39638339Y-125199866D02*
X39676435Y-125237961D01*
X39676435Y-125237961D02*
X39714530Y-125314151D01*
X39714530Y-125314151D02*
X39714530Y-125466532D01*
X39714530Y-125466532D02*
X39676435Y-125542723D01*
X39676435Y-125542723D02*
X39638339Y-125580818D01*
X39638339Y-125580818D02*
X39562149Y-125618913D01*
X32399292Y-135169484D02*
X32399292Y-134712341D01*
X32399292Y-134940913D02*
X31599292Y-134940913D01*
X31599292Y-134940913D02*
X31713577Y-134864722D01*
X31713577Y-134864722D02*
X31789768Y-134788532D01*
X31789768Y-134788532D02*
X31827863Y-134712341D01*
X31599292Y-135664723D02*
X31599292Y-135740913D01*
X31599292Y-135740913D02*
X31637387Y-135817104D01*
X31637387Y-135817104D02*
X31675482Y-135855199D01*
X31675482Y-135855199D02*
X31751673Y-135893294D01*
X31751673Y-135893294D02*
X31904054Y-135931389D01*
X31904054Y-135931389D02*
X32094530Y-135931389D01*
X32094530Y-135931389D02*
X32246911Y-135893294D01*
X32246911Y-135893294D02*
X32323101Y-135855199D01*
X32323101Y-135855199D02*
X32361197Y-135817104D01*
X32361197Y-135817104D02*
X32399292Y-135740913D01*
X32399292Y-135740913D02*
X32399292Y-135664723D01*
X32399292Y-135664723D02*
X32361197Y-135588532D01*
X32361197Y-135588532D02*
X32323101Y-135550437D01*
X32323101Y-135550437D02*
X32246911Y-135512342D01*
X32246911Y-135512342D02*
X32094530Y-135474246D01*
X32094530Y-135474246D02*
X31904054Y-135474246D01*
X31904054Y-135474246D02*
X31751673Y-135512342D01*
X31751673Y-135512342D02*
X31675482Y-135550437D01*
X31675482Y-135550437D02*
X31637387Y-135588532D01*
X31637387Y-135588532D02*
X31599292Y-135664723D01*
X31599292Y-136426628D02*
X31599292Y-136502818D01*
X31599292Y-136502818D02*
X31637387Y-136579009D01*
X31637387Y-136579009D02*
X31675482Y-136617104D01*
X31675482Y-136617104D02*
X31751673Y-136655199D01*
X31751673Y-136655199D02*
X31904054Y-136693294D01*
X31904054Y-136693294D02*
X32094530Y-136693294D01*
X32094530Y-136693294D02*
X32246911Y-136655199D01*
X32246911Y-136655199D02*
X32323101Y-136617104D01*
X32323101Y-136617104D02*
X32361197Y-136579009D01*
X32361197Y-136579009D02*
X32399292Y-136502818D01*
X32399292Y-136502818D02*
X32399292Y-136426628D01*
X32399292Y-136426628D02*
X32361197Y-136350437D01*
X32361197Y-136350437D02*
X32323101Y-136312342D01*
X32323101Y-136312342D02*
X32246911Y-136274247D01*
X32246911Y-136274247D02*
X32094530Y-136236151D01*
X32094530Y-136236151D02*
X31904054Y-136236151D01*
X31904054Y-136236151D02*
X31751673Y-136274247D01*
X31751673Y-136274247D02*
X31675482Y-136312342D01*
X31675482Y-136312342D02*
X31637387Y-136350437D01*
X31637387Y-136350437D02*
X31599292Y-136426628D01*
X41749292Y-134902818D02*
X41749292Y-134979008D01*
X41749292Y-134979008D02*
X41787387Y-135055199D01*
X41787387Y-135055199D02*
X41825482Y-135093294D01*
X41825482Y-135093294D02*
X41901673Y-135131389D01*
X41901673Y-135131389D02*
X42054054Y-135169484D01*
X42054054Y-135169484D02*
X42244530Y-135169484D01*
X42244530Y-135169484D02*
X42396911Y-135131389D01*
X42396911Y-135131389D02*
X42473101Y-135093294D01*
X42473101Y-135093294D02*
X42511197Y-135055199D01*
X42511197Y-135055199D02*
X42549292Y-134979008D01*
X42549292Y-134979008D02*
X42549292Y-134902818D01*
X42549292Y-134902818D02*
X42511197Y-134826627D01*
X42511197Y-134826627D02*
X42473101Y-134788532D01*
X42473101Y-134788532D02*
X42396911Y-134750437D01*
X42396911Y-134750437D02*
X42244530Y-134712341D01*
X42244530Y-134712341D02*
X42054054Y-134712341D01*
X42054054Y-134712341D02*
X41901673Y-134750437D01*
X41901673Y-134750437D02*
X41825482Y-134788532D01*
X41825482Y-134788532D02*
X41787387Y-134826627D01*
X41787387Y-134826627D02*
X41749292Y-134902818D01*
X42549292Y-135931389D02*
X42549292Y-135474246D01*
X42549292Y-135702818D02*
X41749292Y-135702818D01*
X41749292Y-135702818D02*
X41863577Y-135626627D01*
X41863577Y-135626627D02*
X41939768Y-135550437D01*
X41939768Y-135550437D02*
X41977863Y-135474246D01*
X41749292Y-136198056D02*
X41749292Y-136731390D01*
X41749292Y-136731390D02*
X42549292Y-136388532D01*
X52719292Y-124139532D02*
X52338339Y-123872865D01*
X52719292Y-123682389D02*
X51919292Y-123682389D01*
X51919292Y-123682389D02*
X51919292Y-123987151D01*
X51919292Y-123987151D02*
X51957387Y-124063341D01*
X51957387Y-124063341D02*
X51995482Y-124101436D01*
X51995482Y-124101436D02*
X52071673Y-124139532D01*
X52071673Y-124139532D02*
X52185958Y-124139532D01*
X52185958Y-124139532D02*
X52262149Y-124101436D01*
X52262149Y-124101436D02*
X52300244Y-124063341D01*
X52300244Y-124063341D02*
X52338339Y-123987151D01*
X52338339Y-123987151D02*
X52338339Y-123682389D01*
X52490720Y-124444293D02*
X52490720Y-124825246D01*
X52719292Y-124368103D02*
X51919292Y-124634770D01*
X51919292Y-124634770D02*
X52719292Y-124901436D01*
X51919292Y-125091912D02*
X52719292Y-125282388D01*
X52719292Y-125282388D02*
X52147863Y-125434769D01*
X52147863Y-125434769D02*
X52719292Y-125587150D01*
X52719292Y-125587150D02*
X51919292Y-125777627D01*
X36649292Y-134902818D02*
X36649292Y-134979008D01*
X36649292Y-134979008D02*
X36687387Y-135055199D01*
X36687387Y-135055199D02*
X36725482Y-135093294D01*
X36725482Y-135093294D02*
X36801673Y-135131389D01*
X36801673Y-135131389D02*
X36954054Y-135169484D01*
X36954054Y-135169484D02*
X37144530Y-135169484D01*
X37144530Y-135169484D02*
X37296911Y-135131389D01*
X37296911Y-135131389D02*
X37373101Y-135093294D01*
X37373101Y-135093294D02*
X37411197Y-135055199D01*
X37411197Y-135055199D02*
X37449292Y-134979008D01*
X37449292Y-134979008D02*
X37449292Y-134902818D01*
X37449292Y-134902818D02*
X37411197Y-134826627D01*
X37411197Y-134826627D02*
X37373101Y-134788532D01*
X37373101Y-134788532D02*
X37296911Y-134750437D01*
X37296911Y-134750437D02*
X37144530Y-134712341D01*
X37144530Y-134712341D02*
X36954054Y-134712341D01*
X36954054Y-134712341D02*
X36801673Y-134750437D01*
X36801673Y-134750437D02*
X36725482Y-134788532D01*
X36725482Y-134788532D02*
X36687387Y-134826627D01*
X36687387Y-134826627D02*
X36649292Y-134902818D01*
X36725482Y-135474246D02*
X36687387Y-135512342D01*
X36687387Y-135512342D02*
X36649292Y-135588532D01*
X36649292Y-135588532D02*
X36649292Y-135779008D01*
X36649292Y-135779008D02*
X36687387Y-135855199D01*
X36687387Y-135855199D02*
X36725482Y-135893294D01*
X36725482Y-135893294D02*
X36801673Y-135931389D01*
X36801673Y-135931389D02*
X36877863Y-135931389D01*
X36877863Y-135931389D02*
X36992149Y-135893294D01*
X36992149Y-135893294D02*
X37449292Y-135436151D01*
X37449292Y-135436151D02*
X37449292Y-135931389D01*
X36725482Y-136236151D02*
X36687387Y-136274247D01*
X36687387Y-136274247D02*
X36649292Y-136350437D01*
X36649292Y-136350437D02*
X36649292Y-136540913D01*
X36649292Y-136540913D02*
X36687387Y-136617104D01*
X36687387Y-136617104D02*
X36725482Y-136655199D01*
X36725482Y-136655199D02*
X36801673Y-136693294D01*
X36801673Y-136693294D02*
X36877863Y-136693294D01*
X36877863Y-136693294D02*
X36992149Y-136655199D01*
X36992149Y-136655199D02*
X37449292Y-136198056D01*
X37449292Y-136198056D02*
X37449292Y-136693294D01*
X34939292Y-124095103D02*
X34939292Y-123637960D01*
X34939292Y-123866532D02*
X34139292Y-123866532D01*
X34139292Y-123866532D02*
X34253577Y-123790341D01*
X34253577Y-123790341D02*
X34329768Y-123714151D01*
X34329768Y-123714151D02*
X34367863Y-123637960D01*
X34939292Y-124857008D02*
X34939292Y-124399865D01*
X34939292Y-124628437D02*
X34139292Y-124628437D01*
X34139292Y-124628437D02*
X34253577Y-124552246D01*
X34253577Y-124552246D02*
X34329768Y-124476056D01*
X34329768Y-124476056D02*
X34367863Y-124399865D01*
X34139292Y-125580818D02*
X34139292Y-125199866D01*
X34139292Y-125199866D02*
X34520244Y-125161770D01*
X34520244Y-125161770D02*
X34482149Y-125199866D01*
X34482149Y-125199866D02*
X34444054Y-125276056D01*
X34444054Y-125276056D02*
X34444054Y-125466532D01*
X34444054Y-125466532D02*
X34482149Y-125542723D01*
X34482149Y-125542723D02*
X34520244Y-125580818D01*
X34520244Y-125580818D02*
X34596435Y-125618913D01*
X34596435Y-125618913D02*
X34786911Y-125618913D01*
X34786911Y-125618913D02*
X34863101Y-125580818D01*
X34863101Y-125580818D02*
X34901197Y-125542723D01*
X34901197Y-125542723D02*
X34939292Y-125466532D01*
X34939292Y-125466532D02*
X34939292Y-125276056D01*
X34939292Y-125276056D02*
X34901197Y-125199866D01*
X34901197Y-125199866D02*
X34863101Y-125161770D01*
X27319292Y-135169484D02*
X27319292Y-134712341D01*
X27319292Y-134940913D02*
X26519292Y-134940913D01*
X26519292Y-134940913D02*
X26633577Y-134864722D01*
X26633577Y-134864722D02*
X26709768Y-134788532D01*
X26709768Y-134788532D02*
X26747863Y-134712341D01*
X26519292Y-135664723D02*
X26519292Y-135740913D01*
X26519292Y-135740913D02*
X26557387Y-135817104D01*
X26557387Y-135817104D02*
X26595482Y-135855199D01*
X26595482Y-135855199D02*
X26671673Y-135893294D01*
X26671673Y-135893294D02*
X26824054Y-135931389D01*
X26824054Y-135931389D02*
X27014530Y-135931389D01*
X27014530Y-135931389D02*
X27166911Y-135893294D01*
X27166911Y-135893294D02*
X27243101Y-135855199D01*
X27243101Y-135855199D02*
X27281197Y-135817104D01*
X27281197Y-135817104D02*
X27319292Y-135740913D01*
X27319292Y-135740913D02*
X27319292Y-135664723D01*
X27319292Y-135664723D02*
X27281197Y-135588532D01*
X27281197Y-135588532D02*
X27243101Y-135550437D01*
X27243101Y-135550437D02*
X27166911Y-135512342D01*
X27166911Y-135512342D02*
X27014530Y-135474246D01*
X27014530Y-135474246D02*
X26824054Y-135474246D01*
X26824054Y-135474246D02*
X26671673Y-135512342D01*
X26671673Y-135512342D02*
X26595482Y-135550437D01*
X26595482Y-135550437D02*
X26557387Y-135588532D01*
X26557387Y-135588532D02*
X26519292Y-135664723D01*
X26785958Y-136617104D02*
X27319292Y-136617104D01*
X26481197Y-136426628D02*
X27052625Y-136236151D01*
X27052625Y-136236151D02*
X27052625Y-136731390D01*
X44337387Y-135017104D02*
X44299292Y-134940914D01*
X44299292Y-134940914D02*
X44299292Y-134826628D01*
X44299292Y-134826628D02*
X44337387Y-134712342D01*
X44337387Y-134712342D02*
X44413577Y-134636152D01*
X44413577Y-134636152D02*
X44489768Y-134598057D01*
X44489768Y-134598057D02*
X44642149Y-134559961D01*
X44642149Y-134559961D02*
X44756435Y-134559961D01*
X44756435Y-134559961D02*
X44908816Y-134598057D01*
X44908816Y-134598057D02*
X44985006Y-134636152D01*
X44985006Y-134636152D02*
X45061197Y-134712342D01*
X45061197Y-134712342D02*
X45099292Y-134826628D01*
X45099292Y-134826628D02*
X45099292Y-134902819D01*
X45099292Y-134902819D02*
X45061197Y-135017104D01*
X45061197Y-135017104D02*
X45023101Y-135055200D01*
X45023101Y-135055200D02*
X44756435Y-135055200D01*
X44756435Y-135055200D02*
X44756435Y-134902819D01*
X45099292Y-135398057D02*
X44299292Y-135398057D01*
X44299292Y-135398057D02*
X45099292Y-135855200D01*
X45099292Y-135855200D02*
X44299292Y-135855200D01*
X45099292Y-136236152D02*
X44299292Y-136236152D01*
X44299292Y-136236152D02*
X44299292Y-136426628D01*
X44299292Y-136426628D02*
X44337387Y-136540914D01*
X44337387Y-136540914D02*
X44413577Y-136617104D01*
X44413577Y-136617104D02*
X44489768Y-136655199D01*
X44489768Y-136655199D02*
X44642149Y-136693295D01*
X44642149Y-136693295D02*
X44756435Y-136693295D01*
X44756435Y-136693295D02*
X44908816Y-136655199D01*
X44908816Y-136655199D02*
X44985006Y-136617104D01*
X44985006Y-136617104D02*
X45061197Y-136540914D01*
X45061197Y-136540914D02*
X45099292Y-136426628D01*
X45099292Y-136426628D02*
X45099292Y-136236152D01*
X29859292Y-124095103D02*
X29859292Y-123637960D01*
X29859292Y-123866532D02*
X29059292Y-123866532D01*
X29059292Y-123866532D02*
X29173577Y-123790341D01*
X29173577Y-123790341D02*
X29249768Y-123714151D01*
X29249768Y-123714151D02*
X29287863Y-123637960D01*
X29859292Y-124857008D02*
X29859292Y-124399865D01*
X29859292Y-124628437D02*
X29059292Y-124628437D01*
X29059292Y-124628437D02*
X29173577Y-124552246D01*
X29173577Y-124552246D02*
X29249768Y-124476056D01*
X29249768Y-124476056D02*
X29287863Y-124399865D01*
X29859292Y-125618913D02*
X29859292Y-125161770D01*
X29859292Y-125390342D02*
X29059292Y-125390342D01*
X29059292Y-125390342D02*
X29173577Y-125314151D01*
X29173577Y-125314151D02*
X29249768Y-125237961D01*
X29249768Y-125237961D02*
X29287863Y-125161770D01*
X49417387Y-124101437D02*
X49379292Y-124025247D01*
X49379292Y-124025247D02*
X49379292Y-123910961D01*
X49379292Y-123910961D02*
X49417387Y-123796675D01*
X49417387Y-123796675D02*
X49493577Y-123720485D01*
X49493577Y-123720485D02*
X49569768Y-123682390D01*
X49569768Y-123682390D02*
X49722149Y-123644294D01*
X49722149Y-123644294D02*
X49836435Y-123644294D01*
X49836435Y-123644294D02*
X49988816Y-123682390D01*
X49988816Y-123682390D02*
X50065006Y-123720485D01*
X50065006Y-123720485D02*
X50141197Y-123796675D01*
X50141197Y-123796675D02*
X50179292Y-123910961D01*
X50179292Y-123910961D02*
X50179292Y-123987152D01*
X50179292Y-123987152D02*
X50141197Y-124101437D01*
X50141197Y-124101437D02*
X50103101Y-124139533D01*
X50103101Y-124139533D02*
X49836435Y-124139533D01*
X49836435Y-124139533D02*
X49836435Y-123987152D01*
X50179292Y-124482390D02*
X49379292Y-124482390D01*
X49379292Y-124482390D02*
X50179292Y-124939533D01*
X50179292Y-124939533D02*
X49379292Y-124939533D01*
X50179292Y-125320485D02*
X49379292Y-125320485D01*
X49379292Y-125320485D02*
X49379292Y-125510961D01*
X49379292Y-125510961D02*
X49417387Y-125625247D01*
X49417387Y-125625247D02*
X49493577Y-125701437D01*
X49493577Y-125701437D02*
X49569768Y-125739532D01*
X49569768Y-125739532D02*
X49722149Y-125777628D01*
X49722149Y-125777628D02*
X49836435Y-125777628D01*
X49836435Y-125777628D02*
X49988816Y-125739532D01*
X49988816Y-125739532D02*
X50065006Y-125701437D01*
X50065006Y-125701437D02*
X50141197Y-125625247D01*
X50141197Y-125625247D02*
X50179292Y-125510961D01*
X50179292Y-125510961D02*
X50179292Y-125320485D01*
X41759292Y-123828437D02*
X41759292Y-123904627D01*
X41759292Y-123904627D02*
X41797387Y-123980818D01*
X41797387Y-123980818D02*
X41835482Y-124018913D01*
X41835482Y-124018913D02*
X41911673Y-124057008D01*
X41911673Y-124057008D02*
X42064054Y-124095103D01*
X42064054Y-124095103D02*
X42254530Y-124095103D01*
X42254530Y-124095103D02*
X42406911Y-124057008D01*
X42406911Y-124057008D02*
X42483101Y-124018913D01*
X42483101Y-124018913D02*
X42521197Y-123980818D01*
X42521197Y-123980818D02*
X42559292Y-123904627D01*
X42559292Y-123904627D02*
X42559292Y-123828437D01*
X42559292Y-123828437D02*
X42521197Y-123752246D01*
X42521197Y-123752246D02*
X42483101Y-123714151D01*
X42483101Y-123714151D02*
X42406911Y-123676056D01*
X42406911Y-123676056D02*
X42254530Y-123637960D01*
X42254530Y-123637960D02*
X42064054Y-123637960D01*
X42064054Y-123637960D02*
X41911673Y-123676056D01*
X41911673Y-123676056D02*
X41835482Y-123714151D01*
X41835482Y-123714151D02*
X41797387Y-123752246D01*
X41797387Y-123752246D02*
X41759292Y-123828437D01*
X41759292Y-124361770D02*
X41759292Y-124857008D01*
X41759292Y-124857008D02*
X42064054Y-124590342D01*
X42064054Y-124590342D02*
X42064054Y-124704627D01*
X42064054Y-124704627D02*
X42102149Y-124780818D01*
X42102149Y-124780818D02*
X42140244Y-124818913D01*
X42140244Y-124818913D02*
X42216435Y-124857008D01*
X42216435Y-124857008D02*
X42406911Y-124857008D01*
X42406911Y-124857008D02*
X42483101Y-124818913D01*
X42483101Y-124818913D02*
X42521197Y-124780818D01*
X42521197Y-124780818D02*
X42559292Y-124704627D01*
X42559292Y-124704627D02*
X42559292Y-124476056D01*
X42559292Y-124476056D02*
X42521197Y-124399865D01*
X42521197Y-124399865D02*
X42483101Y-124361770D01*
X42559292Y-125618913D02*
X42559292Y-125161770D01*
X42559292Y-125390342D02*
X41759292Y-125390342D01*
X41759292Y-125390342D02*
X41873577Y-125314151D01*
X41873577Y-125314151D02*
X41949768Y-125237961D01*
X41949768Y-125237961D02*
X41987863Y-125161770D01*
X47639292Y-124139533D02*
X47258339Y-123872866D01*
X47639292Y-123682390D02*
X46839292Y-123682390D01*
X46839292Y-123682390D02*
X46839292Y-123987152D01*
X46839292Y-123987152D02*
X46877387Y-124063342D01*
X46877387Y-124063342D02*
X46915482Y-124101437D01*
X46915482Y-124101437D02*
X46991673Y-124139533D01*
X46991673Y-124139533D02*
X47105958Y-124139533D01*
X47105958Y-124139533D02*
X47182149Y-124101437D01*
X47182149Y-124101437D02*
X47220244Y-124063342D01*
X47220244Y-124063342D02*
X47258339Y-123987152D01*
X47258339Y-123987152D02*
X47258339Y-123682390D01*
X47601197Y-124444294D02*
X47639292Y-124558580D01*
X47639292Y-124558580D02*
X47639292Y-124749056D01*
X47639292Y-124749056D02*
X47601197Y-124825247D01*
X47601197Y-124825247D02*
X47563101Y-124863342D01*
X47563101Y-124863342D02*
X47486911Y-124901437D01*
X47486911Y-124901437D02*
X47410720Y-124901437D01*
X47410720Y-124901437D02*
X47334530Y-124863342D01*
X47334530Y-124863342D02*
X47296435Y-124825247D01*
X47296435Y-124825247D02*
X47258339Y-124749056D01*
X47258339Y-124749056D02*
X47220244Y-124596675D01*
X47220244Y-124596675D02*
X47182149Y-124520485D01*
X47182149Y-124520485D02*
X47144054Y-124482390D01*
X47144054Y-124482390D02*
X47067863Y-124444294D01*
X47067863Y-124444294D02*
X46991673Y-124444294D01*
X46991673Y-124444294D02*
X46915482Y-124482390D01*
X46915482Y-124482390D02*
X46877387Y-124520485D01*
X46877387Y-124520485D02*
X46839292Y-124596675D01*
X46839292Y-124596675D02*
X46839292Y-124787152D01*
X46839292Y-124787152D02*
X46877387Y-124901437D01*
X46839292Y-125130009D02*
X46839292Y-125587152D01*
X47639292Y-125358580D02*
X46839292Y-125358580D01*
X36679292Y-123828437D02*
X36679292Y-123904627D01*
X36679292Y-123904627D02*
X36717387Y-123980818D01*
X36717387Y-123980818D02*
X36755482Y-124018913D01*
X36755482Y-124018913D02*
X36831673Y-124057008D01*
X36831673Y-124057008D02*
X36984054Y-124095103D01*
X36984054Y-124095103D02*
X37174530Y-124095103D01*
X37174530Y-124095103D02*
X37326911Y-124057008D01*
X37326911Y-124057008D02*
X37403101Y-124018913D01*
X37403101Y-124018913D02*
X37441197Y-123980818D01*
X37441197Y-123980818D02*
X37479292Y-123904627D01*
X37479292Y-123904627D02*
X37479292Y-123828437D01*
X37479292Y-123828437D02*
X37441197Y-123752246D01*
X37441197Y-123752246D02*
X37403101Y-123714151D01*
X37403101Y-123714151D02*
X37326911Y-123676056D01*
X37326911Y-123676056D02*
X37174530Y-123637960D01*
X37174530Y-123637960D02*
X36984054Y-123637960D01*
X36984054Y-123637960D02*
X36831673Y-123676056D01*
X36831673Y-123676056D02*
X36755482Y-123714151D01*
X36755482Y-123714151D02*
X36717387Y-123752246D01*
X36717387Y-123752246D02*
X36679292Y-123828437D01*
X36679292Y-124590342D02*
X36679292Y-124666532D01*
X36679292Y-124666532D02*
X36717387Y-124742723D01*
X36717387Y-124742723D02*
X36755482Y-124780818D01*
X36755482Y-124780818D02*
X36831673Y-124818913D01*
X36831673Y-124818913D02*
X36984054Y-124857008D01*
X36984054Y-124857008D02*
X37174530Y-124857008D01*
X37174530Y-124857008D02*
X37326911Y-124818913D01*
X37326911Y-124818913D02*
X37403101Y-124780818D01*
X37403101Y-124780818D02*
X37441197Y-124742723D01*
X37441197Y-124742723D02*
X37479292Y-124666532D01*
X37479292Y-124666532D02*
X37479292Y-124590342D01*
X37479292Y-124590342D02*
X37441197Y-124514151D01*
X37441197Y-124514151D02*
X37403101Y-124476056D01*
X37403101Y-124476056D02*
X37326911Y-124437961D01*
X37326911Y-124437961D02*
X37174530Y-124399865D01*
X37174530Y-124399865D02*
X36984054Y-124399865D01*
X36984054Y-124399865D02*
X36831673Y-124437961D01*
X36831673Y-124437961D02*
X36755482Y-124476056D01*
X36755482Y-124476056D02*
X36717387Y-124514151D01*
X36717387Y-124514151D02*
X36679292Y-124590342D01*
X36755482Y-125161770D02*
X36717387Y-125199866D01*
X36717387Y-125199866D02*
X36679292Y-125276056D01*
X36679292Y-125276056D02*
X36679292Y-125466532D01*
X36679292Y-125466532D02*
X36717387Y-125542723D01*
X36717387Y-125542723D02*
X36755482Y-125580818D01*
X36755482Y-125580818D02*
X36831673Y-125618913D01*
X36831673Y-125618913D02*
X36907863Y-125618913D01*
X36907863Y-125618913D02*
X37022149Y-125580818D01*
X37022149Y-125580818D02*
X37479292Y-125123675D01*
X37479292Y-125123675D02*
X37479292Y-125618913D01*
X51919292Y-134902818D02*
X51919292Y-134979008D01*
X51919292Y-134979008D02*
X51957387Y-135055199D01*
X51957387Y-135055199D02*
X51995482Y-135093294D01*
X51995482Y-135093294D02*
X52071673Y-135131389D01*
X52071673Y-135131389D02*
X52224054Y-135169484D01*
X52224054Y-135169484D02*
X52414530Y-135169484D01*
X52414530Y-135169484D02*
X52566911Y-135131389D01*
X52566911Y-135131389D02*
X52643101Y-135093294D01*
X52643101Y-135093294D02*
X52681197Y-135055199D01*
X52681197Y-135055199D02*
X52719292Y-134979008D01*
X52719292Y-134979008D02*
X52719292Y-134902818D01*
X52719292Y-134902818D02*
X52681197Y-134826627D01*
X52681197Y-134826627D02*
X52643101Y-134788532D01*
X52643101Y-134788532D02*
X52566911Y-134750437D01*
X52566911Y-134750437D02*
X52414530Y-134712341D01*
X52414530Y-134712341D02*
X52224054Y-134712341D01*
X52224054Y-134712341D02*
X52071673Y-134750437D01*
X52071673Y-134750437D02*
X51995482Y-134788532D01*
X51995482Y-134788532D02*
X51957387Y-134826627D01*
X51957387Y-134826627D02*
X51919292Y-134902818D01*
X51919292Y-135664723D02*
X51919292Y-135740913D01*
X51919292Y-135740913D02*
X51957387Y-135817104D01*
X51957387Y-135817104D02*
X51995482Y-135855199D01*
X51995482Y-135855199D02*
X52071673Y-135893294D01*
X52071673Y-135893294D02*
X52224054Y-135931389D01*
X52224054Y-135931389D02*
X52414530Y-135931389D01*
X52414530Y-135931389D02*
X52566911Y-135893294D01*
X52566911Y-135893294D02*
X52643101Y-135855199D01*
X52643101Y-135855199D02*
X52681197Y-135817104D01*
X52681197Y-135817104D02*
X52719292Y-135740913D01*
X52719292Y-135740913D02*
X52719292Y-135664723D01*
X52719292Y-135664723D02*
X52681197Y-135588532D01*
X52681197Y-135588532D02*
X52643101Y-135550437D01*
X52643101Y-135550437D02*
X52566911Y-135512342D01*
X52566911Y-135512342D02*
X52414530Y-135474246D01*
X52414530Y-135474246D02*
X52224054Y-135474246D01*
X52224054Y-135474246D02*
X52071673Y-135512342D01*
X52071673Y-135512342D02*
X51995482Y-135550437D01*
X51995482Y-135550437D02*
X51957387Y-135588532D01*
X51957387Y-135588532D02*
X51919292Y-135664723D01*
X51919292Y-136617104D02*
X51919292Y-136464723D01*
X51919292Y-136464723D02*
X51957387Y-136388532D01*
X51957387Y-136388532D02*
X51995482Y-136350437D01*
X51995482Y-136350437D02*
X52109768Y-136274247D01*
X52109768Y-136274247D02*
X52262149Y-136236151D01*
X52262149Y-136236151D02*
X52566911Y-136236151D01*
X52566911Y-136236151D02*
X52643101Y-136274247D01*
X52643101Y-136274247D02*
X52681197Y-136312342D01*
X52681197Y-136312342D02*
X52719292Y-136388532D01*
X52719292Y-136388532D02*
X52719292Y-136540913D01*
X52719292Y-136540913D02*
X52681197Y-136617104D01*
X52681197Y-136617104D02*
X52643101Y-136655199D01*
X52643101Y-136655199D02*
X52566911Y-136693294D01*
X52566911Y-136693294D02*
X52376435Y-136693294D01*
X52376435Y-136693294D02*
X52300244Y-136655199D01*
X52300244Y-136655199D02*
X52262149Y-136617104D01*
X52262149Y-136617104D02*
X52224054Y-136540913D01*
X52224054Y-136540913D02*
X52224054Y-136388532D01*
X52224054Y-136388532D02*
X52262149Y-136312342D01*
X52262149Y-136312342D02*
X52300244Y-136274247D01*
X52300244Y-136274247D02*
X52376435Y-136236151D01*
X49449292Y-134902818D02*
X49449292Y-134979008D01*
X49449292Y-134979008D02*
X49487387Y-135055199D01*
X49487387Y-135055199D02*
X49525482Y-135093294D01*
X49525482Y-135093294D02*
X49601673Y-135131389D01*
X49601673Y-135131389D02*
X49754054Y-135169484D01*
X49754054Y-135169484D02*
X49944530Y-135169484D01*
X49944530Y-135169484D02*
X50096911Y-135131389D01*
X50096911Y-135131389D02*
X50173101Y-135093294D01*
X50173101Y-135093294D02*
X50211197Y-135055199D01*
X50211197Y-135055199D02*
X50249292Y-134979008D01*
X50249292Y-134979008D02*
X50249292Y-134902818D01*
X50249292Y-134902818D02*
X50211197Y-134826627D01*
X50211197Y-134826627D02*
X50173101Y-134788532D01*
X50173101Y-134788532D02*
X50096911Y-134750437D01*
X50096911Y-134750437D02*
X49944530Y-134712341D01*
X49944530Y-134712341D02*
X49754054Y-134712341D01*
X49754054Y-134712341D02*
X49601673Y-134750437D01*
X49601673Y-134750437D02*
X49525482Y-134788532D01*
X49525482Y-134788532D02*
X49487387Y-134826627D01*
X49487387Y-134826627D02*
X49449292Y-134902818D01*
X49449292Y-135664723D02*
X49449292Y-135740913D01*
X49449292Y-135740913D02*
X49487387Y-135817104D01*
X49487387Y-135817104D02*
X49525482Y-135855199D01*
X49525482Y-135855199D02*
X49601673Y-135893294D01*
X49601673Y-135893294D02*
X49754054Y-135931389D01*
X49754054Y-135931389D02*
X49944530Y-135931389D01*
X49944530Y-135931389D02*
X50096911Y-135893294D01*
X50096911Y-135893294D02*
X50173101Y-135855199D01*
X50173101Y-135855199D02*
X50211197Y-135817104D01*
X50211197Y-135817104D02*
X50249292Y-135740913D01*
X50249292Y-135740913D02*
X50249292Y-135664723D01*
X50249292Y-135664723D02*
X50211197Y-135588532D01*
X50211197Y-135588532D02*
X50173101Y-135550437D01*
X50173101Y-135550437D02*
X50096911Y-135512342D01*
X50096911Y-135512342D02*
X49944530Y-135474246D01*
X49944530Y-135474246D02*
X49754054Y-135474246D01*
X49754054Y-135474246D02*
X49601673Y-135512342D01*
X49601673Y-135512342D02*
X49525482Y-135550437D01*
X49525482Y-135550437D02*
X49487387Y-135588532D01*
X49487387Y-135588532D02*
X49449292Y-135664723D01*
X49792149Y-136388532D02*
X49754054Y-136312342D01*
X49754054Y-136312342D02*
X49715958Y-136274247D01*
X49715958Y-136274247D02*
X49639768Y-136236151D01*
X49639768Y-136236151D02*
X49601673Y-136236151D01*
X49601673Y-136236151D02*
X49525482Y-136274247D01*
X49525482Y-136274247D02*
X49487387Y-136312342D01*
X49487387Y-136312342D02*
X49449292Y-136388532D01*
X49449292Y-136388532D02*
X49449292Y-136540913D01*
X49449292Y-136540913D02*
X49487387Y-136617104D01*
X49487387Y-136617104D02*
X49525482Y-136655199D01*
X49525482Y-136655199D02*
X49601673Y-136693294D01*
X49601673Y-136693294D02*
X49639768Y-136693294D01*
X49639768Y-136693294D02*
X49715958Y-136655199D01*
X49715958Y-136655199D02*
X49754054Y-136617104D01*
X49754054Y-136617104D02*
X49792149Y-136540913D01*
X49792149Y-136540913D02*
X49792149Y-136388532D01*
X49792149Y-136388532D02*
X49830244Y-136312342D01*
X49830244Y-136312342D02*
X49868339Y-136274247D01*
X49868339Y-136274247D02*
X49944530Y-136236151D01*
X49944530Y-136236151D02*
X50096911Y-136236151D01*
X50096911Y-136236151D02*
X50173101Y-136274247D01*
X50173101Y-136274247D02*
X50211197Y-136312342D01*
X50211197Y-136312342D02*
X50249292Y-136388532D01*
X50249292Y-136388532D02*
X50249292Y-136540913D01*
X50249292Y-136540913D02*
X50211197Y-136617104D01*
X50211197Y-136617104D02*
X50173101Y-136655199D01*
X50173101Y-136655199D02*
X50096911Y-136693294D01*
X50096911Y-136693294D02*
X49944530Y-136693294D01*
X49944530Y-136693294D02*
X49868339Y-136655199D01*
X49868339Y-136655199D02*
X49830244Y-136617104D01*
X49830244Y-136617104D02*
X49792149Y-136540913D01*
X44299292Y-123561770D02*
X45099292Y-123828437D01*
X45099292Y-123828437D02*
X44299292Y-124095103D01*
X45023101Y-124818913D02*
X45061197Y-124780817D01*
X45061197Y-124780817D02*
X45099292Y-124666532D01*
X45099292Y-124666532D02*
X45099292Y-124590341D01*
X45099292Y-124590341D02*
X45061197Y-124476055D01*
X45061197Y-124476055D02*
X44985006Y-124399865D01*
X44985006Y-124399865D02*
X44908816Y-124361770D01*
X44908816Y-124361770D02*
X44756435Y-124323674D01*
X44756435Y-124323674D02*
X44642149Y-124323674D01*
X44642149Y-124323674D02*
X44489768Y-124361770D01*
X44489768Y-124361770D02*
X44413577Y-124399865D01*
X44413577Y-124399865D02*
X44337387Y-124476055D01*
X44337387Y-124476055D02*
X44299292Y-124590341D01*
X44299292Y-124590341D02*
X44299292Y-124666532D01*
X44299292Y-124666532D02*
X44337387Y-124780817D01*
X44337387Y-124780817D02*
X44375482Y-124818913D01*
X45023101Y-125618913D02*
X45061197Y-125580817D01*
X45061197Y-125580817D02*
X45099292Y-125466532D01*
X45099292Y-125466532D02*
X45099292Y-125390341D01*
X45099292Y-125390341D02*
X45061197Y-125276055D01*
X45061197Y-125276055D02*
X44985006Y-125199865D01*
X44985006Y-125199865D02*
X44908816Y-125161770D01*
X44908816Y-125161770D02*
X44756435Y-125123674D01*
X44756435Y-125123674D02*
X44642149Y-125123674D01*
X44642149Y-125123674D02*
X44489768Y-125161770D01*
X44489768Y-125161770D02*
X44413577Y-125199865D01*
X44413577Y-125199865D02*
X44337387Y-125276055D01*
X44337387Y-125276055D02*
X44299292Y-125390341D01*
X44299292Y-125390341D02*
X44299292Y-125466532D01*
X44299292Y-125466532D02*
X44337387Y-125580817D01*
X44337387Y-125580817D02*
X44375482Y-125618913D01*
X34139292Y-134902818D02*
X34139292Y-134979008D01*
X34139292Y-134979008D02*
X34177387Y-135055199D01*
X34177387Y-135055199D02*
X34215482Y-135093294D01*
X34215482Y-135093294D02*
X34291673Y-135131389D01*
X34291673Y-135131389D02*
X34444054Y-135169484D01*
X34444054Y-135169484D02*
X34634530Y-135169484D01*
X34634530Y-135169484D02*
X34786911Y-135131389D01*
X34786911Y-135131389D02*
X34863101Y-135093294D01*
X34863101Y-135093294D02*
X34901197Y-135055199D01*
X34901197Y-135055199D02*
X34939292Y-134979008D01*
X34939292Y-134979008D02*
X34939292Y-134902818D01*
X34939292Y-134902818D02*
X34901197Y-134826627D01*
X34901197Y-134826627D02*
X34863101Y-134788532D01*
X34863101Y-134788532D02*
X34786911Y-134750437D01*
X34786911Y-134750437D02*
X34634530Y-134712341D01*
X34634530Y-134712341D02*
X34444054Y-134712341D01*
X34444054Y-134712341D02*
X34291673Y-134750437D01*
X34291673Y-134750437D02*
X34215482Y-134788532D01*
X34215482Y-134788532D02*
X34177387Y-134826627D01*
X34177387Y-134826627D02*
X34139292Y-134902818D01*
X34215482Y-135474246D02*
X34177387Y-135512342D01*
X34177387Y-135512342D02*
X34139292Y-135588532D01*
X34139292Y-135588532D02*
X34139292Y-135779008D01*
X34139292Y-135779008D02*
X34177387Y-135855199D01*
X34177387Y-135855199D02*
X34215482Y-135893294D01*
X34215482Y-135893294D02*
X34291673Y-135931389D01*
X34291673Y-135931389D02*
X34367863Y-135931389D01*
X34367863Y-135931389D02*
X34482149Y-135893294D01*
X34482149Y-135893294D02*
X34939292Y-135436151D01*
X34939292Y-135436151D02*
X34939292Y-135931389D01*
X34405958Y-136617104D02*
X34939292Y-136617104D01*
X34101197Y-136426628D02*
X34672625Y-136236151D01*
X34672625Y-136236151D02*
X34672625Y-136731390D01*
X39149292Y-134902818D02*
X39149292Y-134979008D01*
X39149292Y-134979008D02*
X39187387Y-135055199D01*
X39187387Y-135055199D02*
X39225482Y-135093294D01*
X39225482Y-135093294D02*
X39301673Y-135131389D01*
X39301673Y-135131389D02*
X39454054Y-135169484D01*
X39454054Y-135169484D02*
X39644530Y-135169484D01*
X39644530Y-135169484D02*
X39796911Y-135131389D01*
X39796911Y-135131389D02*
X39873101Y-135093294D01*
X39873101Y-135093294D02*
X39911197Y-135055199D01*
X39911197Y-135055199D02*
X39949292Y-134979008D01*
X39949292Y-134979008D02*
X39949292Y-134902818D01*
X39949292Y-134902818D02*
X39911197Y-134826627D01*
X39911197Y-134826627D02*
X39873101Y-134788532D01*
X39873101Y-134788532D02*
X39796911Y-134750437D01*
X39796911Y-134750437D02*
X39644530Y-134712341D01*
X39644530Y-134712341D02*
X39454054Y-134712341D01*
X39454054Y-134712341D02*
X39301673Y-134750437D01*
X39301673Y-134750437D02*
X39225482Y-134788532D01*
X39225482Y-134788532D02*
X39187387Y-134826627D01*
X39187387Y-134826627D02*
X39149292Y-134902818D01*
X39225482Y-135474246D02*
X39187387Y-135512342D01*
X39187387Y-135512342D02*
X39149292Y-135588532D01*
X39149292Y-135588532D02*
X39149292Y-135779008D01*
X39149292Y-135779008D02*
X39187387Y-135855199D01*
X39187387Y-135855199D02*
X39225482Y-135893294D01*
X39225482Y-135893294D02*
X39301673Y-135931389D01*
X39301673Y-135931389D02*
X39377863Y-135931389D01*
X39377863Y-135931389D02*
X39492149Y-135893294D01*
X39492149Y-135893294D02*
X39949292Y-135436151D01*
X39949292Y-135436151D02*
X39949292Y-135931389D01*
X39149292Y-136426628D02*
X39149292Y-136502818D01*
X39149292Y-136502818D02*
X39187387Y-136579009D01*
X39187387Y-136579009D02*
X39225482Y-136617104D01*
X39225482Y-136617104D02*
X39301673Y-136655199D01*
X39301673Y-136655199D02*
X39454054Y-136693294D01*
X39454054Y-136693294D02*
X39644530Y-136693294D01*
X39644530Y-136693294D02*
X39796911Y-136655199D01*
X39796911Y-136655199D02*
X39873101Y-136617104D01*
X39873101Y-136617104D02*
X39911197Y-136579009D01*
X39911197Y-136579009D02*
X39949292Y-136502818D01*
X39949292Y-136502818D02*
X39949292Y-136426628D01*
X39949292Y-136426628D02*
X39911197Y-136350437D01*
X39911197Y-136350437D02*
X39873101Y-136312342D01*
X39873101Y-136312342D02*
X39796911Y-136274247D01*
X39796911Y-136274247D02*
X39644530Y-136236151D01*
X39644530Y-136236151D02*
X39454054Y-136236151D01*
X39454054Y-136236151D02*
X39301673Y-136274247D01*
X39301673Y-136274247D02*
X39225482Y-136312342D01*
X39225482Y-136312342D02*
X39187387Y-136350437D01*
X39187387Y-136350437D02*
X39149292Y-136426628D01*
X97433333Y-170861010D02*
X97433333Y-171575295D01*
X97433333Y-171575295D02*
X97480952Y-171718152D01*
X97480952Y-171718152D02*
X97576190Y-171813391D01*
X97576190Y-171813391D02*
X97719047Y-171861010D01*
X97719047Y-171861010D02*
X97814285Y-171861010D01*
X97004761Y-170956248D02*
X96957142Y-170908629D01*
X96957142Y-170908629D02*
X96861904Y-170861010D01*
X96861904Y-170861010D02*
X96623809Y-170861010D01*
X96623809Y-170861010D02*
X96528571Y-170908629D01*
X96528571Y-170908629D02*
X96480952Y-170956248D01*
X96480952Y-170956248D02*
X96433333Y-171051486D01*
X96433333Y-171051486D02*
X96433333Y-171146724D01*
X96433333Y-171146724D02*
X96480952Y-171289581D01*
X96480952Y-171289581D02*
X97052380Y-171861010D01*
X97052380Y-171861010D02*
X96433333Y-171861010D01*
D12*
%TO.C,R-SW23*%
X46492822Y-227391351D02*
X46967822Y-228214075D01*
X46492822Y-227391351D02*
X48224873Y-226391351D01*
X48842822Y-231461670D02*
X48367822Y-230638946D01*
X48842822Y-231461670D02*
X50574873Y-230461670D01*
X57583332Y-222200677D02*
X56111089Y-223050677D01*
X57583332Y-222200677D02*
X58058332Y-223023402D01*
X59933332Y-226270997D02*
X58461089Y-227120997D01*
X59933332Y-226270997D02*
X59483332Y-225491574D01*
%TO.C,R-SW1*%
X43420000Y-162136191D02*
X43420000Y-163086191D01*
X43420000Y-162136191D02*
X45420000Y-162136191D01*
X43420000Y-166836191D02*
X43420000Y-165886191D01*
X43420000Y-166836191D02*
X45420000Y-166836191D01*
X55620000Y-163186191D02*
X53920000Y-163186191D01*
X55620000Y-163186191D02*
X55620000Y-164136191D01*
X55620000Y-167886191D02*
X53920000Y-167886191D01*
X55620000Y-167886191D02*
X55620000Y-166986191D01*
%TO.C,R-D36*%
X154242000Y-226309191D02*
X154242000Y-222299191D01*
X156242000Y-226309191D02*
X156242000Y-222299191D01*
X156242000Y-226309191D02*
X154242000Y-226309191D01*
%TO.C,R-D35*%
X154242000Y-231515191D02*
X154242000Y-227505191D01*
X156242000Y-231515191D02*
X156242000Y-227505191D01*
X156242000Y-231515191D02*
X154242000Y-231515191D01*
%TO.C,R-D34*%
X135192000Y-231515191D02*
X135192000Y-227505191D01*
X137192000Y-231515191D02*
X137192000Y-227505191D01*
X137192000Y-231515191D02*
X135192000Y-231515191D01*
%TO.C,R-D33*%
X116142000Y-235453191D02*
X116142000Y-231443191D01*
X118142000Y-235453191D02*
X118142000Y-231443191D01*
X118142000Y-235453191D02*
X116142000Y-235453191D01*
%TO.C,R-D32*%
X89007975Y-231700011D02*
X87002975Y-228227249D01*
X90740025Y-230700011D02*
X88735025Y-227227249D01*
X90740025Y-230700011D02*
X89007975Y-231700011D01*
%TO.C,R-D31*%
X69576975Y-236272011D02*
X67571975Y-232799249D01*
X71309025Y-235272011D02*
X69304025Y-231799249D01*
X71309025Y-235272011D02*
X69576975Y-236272011D01*
%TO.C,R-D30*%
X66591975Y-231096953D02*
X64586975Y-227624191D01*
X68324025Y-230096953D02*
X66319025Y-226624191D01*
X68324025Y-230096953D02*
X66591975Y-231096953D01*
%TO.C,R-D29*%
X168249000Y-218250191D02*
X172259000Y-218250191D01*
X168249000Y-220250191D02*
X172259000Y-220250191D01*
X168249000Y-220250191D02*
X168249000Y-218250191D01*
%TO.C,R-D28*%
X154242000Y-221102191D02*
X154242000Y-217092191D01*
X156242000Y-221102191D02*
X156242000Y-217092191D01*
X156242000Y-221102191D02*
X154242000Y-221102191D01*
%TO.C,R-D27*%
X135065000Y-212465191D02*
X135065000Y-208455191D01*
X137065000Y-212465191D02*
X137065000Y-208455191D01*
X137065000Y-212465191D02*
X135065000Y-212465191D01*
%TO.C,R-D26*%
X116142000Y-216402191D02*
X116142000Y-212392191D01*
X118142000Y-216402191D02*
X118142000Y-212392191D01*
X118142000Y-216402191D02*
X116142000Y-216402191D01*
%TO.C,R-D25*%
X97092000Y-213991191D02*
X97092000Y-209981191D01*
X99092000Y-213991191D02*
X99092000Y-209981191D01*
X99092000Y-213991191D02*
X97092000Y-213991191D01*
%TO.C,R-D24*%
X78042000Y-216403191D02*
X78042000Y-212393191D01*
X80042000Y-216403191D02*
X80042000Y-212393191D01*
X80042000Y-216403191D02*
X78042000Y-216403191D01*
%TO.C,R-D23*%
X62972975Y-224715011D02*
X60967975Y-221242249D01*
X64705025Y-223715011D02*
X62700025Y-220242249D01*
X64705025Y-223715011D02*
X62972975Y-224715011D01*
%TO.C,R-D22*%
X43541975Y-229414011D02*
X41536975Y-225941249D01*
X45274025Y-228414011D02*
X43269025Y-224941249D01*
X45274025Y-228414011D02*
X43541975Y-229414011D01*
%TO.C,R-D21*%
X168248000Y-199200191D02*
X172258000Y-199200191D01*
X168248000Y-201200191D02*
X172258000Y-201200191D01*
X168248000Y-201200191D02*
X168248000Y-199200191D01*
%TO.C,R-D20*%
X150215000Y-199200191D02*
X154225000Y-199200191D01*
X150215000Y-201200191D02*
X154225000Y-201200191D01*
X150215000Y-201200191D02*
X150215000Y-199200191D01*
%TO.C,R-D19*%
X135192000Y-193543191D02*
X135192000Y-189533191D01*
X137192000Y-193543191D02*
X137192000Y-189533191D01*
X137192000Y-193543191D02*
X135192000Y-193543191D01*
%TO.C,R-D18*%
X116142000Y-188590191D02*
X116142000Y-184580191D01*
X118142000Y-188590191D02*
X118142000Y-184580191D01*
X118142000Y-188590191D02*
X116142000Y-188590191D01*
%TO.C,R-D17*%
X97092000Y-194939191D02*
X97092000Y-190929191D01*
X99092000Y-194939191D02*
X99092000Y-190929191D01*
X99092000Y-194939191D02*
X97092000Y-194939191D01*
%TO.C,R-D16*%
X77915000Y-197353191D02*
X77915000Y-193343191D01*
X79915000Y-197353191D02*
X79915000Y-193343191D01*
X79915000Y-197353191D02*
X77915000Y-197353191D01*
%TO.C,R-D15*%
X40196000Y-181466191D02*
X40196000Y-177456191D01*
X42196000Y-181466191D02*
X42196000Y-177456191D01*
X42196000Y-181466191D02*
X40196000Y-181466191D01*
%TO.C,R-D14*%
X168249000Y-180150191D02*
X172259000Y-180150191D01*
X168249000Y-182150191D02*
X172259000Y-182150191D01*
X168249000Y-182150191D02*
X168249000Y-180150191D01*
%TO.C,R-D13*%
X154242000Y-183002191D02*
X154242000Y-178992191D01*
X156242000Y-183002191D02*
X156242000Y-178992191D01*
X156242000Y-183002191D02*
X154242000Y-183002191D01*
%TO.C,R-D12*%
X135192000Y-174366191D02*
X135192000Y-170356191D01*
X137192000Y-174366191D02*
X137192000Y-170356191D01*
X137192000Y-174366191D02*
X135192000Y-174366191D01*
%TO.C,R-D11*%
X109447000Y-173038191D02*
X113457000Y-173038191D01*
X109447000Y-175038191D02*
X113457000Y-175038191D01*
X109447000Y-175038191D02*
X109447000Y-173038191D01*
%TO.C,R-D10*%
X97092000Y-176017191D02*
X97092000Y-172007191D01*
X99092000Y-176017191D02*
X99092000Y-172007191D01*
X99092000Y-176017191D02*
X97092000Y-176017191D01*
%TO.C,R-D9*%
X78042000Y-178304191D02*
X78042000Y-174294191D01*
X80042000Y-178304191D02*
X80042000Y-174294191D01*
X80042000Y-178304191D02*
X78042000Y-178304191D01*
%TO.C,R-D8*%
X40200000Y-176273691D02*
X40200000Y-172263691D01*
X42200000Y-176273691D02*
X42200000Y-172263691D01*
X42200000Y-176273691D02*
X40200000Y-176273691D01*
%TO.C,R-D7*%
X168249000Y-161100191D02*
X172259000Y-161100191D01*
X168249000Y-163100191D02*
X172259000Y-163100191D01*
X168249000Y-163100191D02*
X168249000Y-161100191D01*
%TO.C,R-D6*%
X154242000Y-155316191D02*
X154242000Y-151306191D01*
X156242000Y-155316191D02*
X156242000Y-151306191D01*
X156242000Y-155316191D02*
X154242000Y-155316191D01*
%TO.C,R-D5*%
X135192000Y-163952191D02*
X135192000Y-159942191D01*
X137192000Y-163952191D02*
X137192000Y-159942191D01*
X137192000Y-163952191D02*
X135192000Y-163952191D01*
%TO.C,R-D4*%
X105222500Y-154016191D02*
X109232500Y-154016191D01*
X105222500Y-156016191D02*
X109232500Y-156016191D01*
X105222500Y-156016191D02*
X105222500Y-154016191D01*
%TO.C,R-D3*%
X90144000Y-156401191D02*
X94154000Y-156401191D01*
X90144000Y-158401191D02*
X94154000Y-158401191D01*
X90144000Y-158401191D02*
X90144000Y-156401191D01*
%TO.C,R-D2*%
X78030000Y-159253191D02*
X78030000Y-155243191D01*
X80030000Y-159253191D02*
X80030000Y-155243191D01*
X80030000Y-159253191D02*
X78030000Y-159253191D01*
%TO.C,R-D1*%
X58992000Y-168016191D02*
X58992000Y-164006191D01*
X60992000Y-168016191D02*
X60992000Y-164006191D01*
X60992000Y-168016191D02*
X58992000Y-168016191D01*
%TO.C,R-D0*%
X40196000Y-171065191D02*
X40196000Y-167055191D01*
X42196000Y-171065191D02*
X42196000Y-167055191D01*
X42196000Y-171065191D02*
X40196000Y-171065191D01*
%TO.C,R-n!n-L-Socket1*%
X114820000Y-143256191D02*
X114820000Y-171256191D01*
X117480000Y-171256191D02*
X114820000Y-171256191D01*
X117480000Y-143256191D02*
X117480000Y-171256191D01*
X117480000Y-141986191D02*
X117480000Y-140656191D01*
X117480000Y-140656191D02*
X116150000Y-140656191D01*
X117480000Y-143256191D02*
X114820000Y-143256191D01*
%TO.C,J2*%
X98430000Y-167806191D02*
X98430000Y-139806191D01*
X95770000Y-139806191D02*
X98430000Y-139806191D01*
X95770000Y-167806191D02*
X95770000Y-139806191D01*
X95770000Y-169076191D02*
X95770000Y-170406191D01*
X95770000Y-170406191D02*
X97100000Y-170406191D01*
X95770000Y-167806191D02*
X98430000Y-167806191D01*
%TO.C,L-D38*%
X158786180Y-119253521D02*
X159786180Y-117521471D01*
X158786180Y-119253521D02*
X162258942Y-121258521D01*
X159786180Y-117521471D02*
X163258942Y-119526471D01*
%TO.C,L-D37*%
X135986180Y-125753521D02*
X136986180Y-124021471D01*
X135986180Y-125753521D02*
X139458942Y-127758521D01*
X136986180Y-124021471D02*
X140458942Y-126026471D01*
%TO.C,L-D36*%
X131916025Y-123111316D02*
X130183975Y-122111316D01*
X131916025Y-123111316D02*
X133921025Y-119638554D01*
X130183975Y-122111316D02*
X132188975Y-118638554D01*
%TO.C,L-D35*%
X106625000Y-109355496D02*
X104625000Y-109355496D01*
X106625000Y-109355496D02*
X106625000Y-105345496D01*
X104625000Y-109355496D02*
X104625000Y-105345496D01*
%TO.C,L-D34*%
X79955000Y-109355496D02*
X77955000Y-109355496D01*
X79955000Y-109355496D02*
X79955000Y-105345496D01*
X77955000Y-109355496D02*
X77955000Y-105345496D01*
%TO.C,L-D33*%
X60905000Y-112403496D02*
X58905000Y-112403496D01*
X60905000Y-112403496D02*
X60905000Y-108393496D01*
X58905000Y-112403496D02*
X58905000Y-108393496D01*
%TO.C,L-D32*%
X41855000Y-108720496D02*
X39855000Y-108720496D01*
X41855000Y-108720496D02*
X41855000Y-104710496D01*
X39855000Y-108720496D02*
X39855000Y-104710496D01*
%TO.C,L-D31*%
X166830000Y-86927496D02*
X164830000Y-86927496D01*
X166830000Y-86927496D02*
X166830000Y-82917496D01*
X164830000Y-86927496D02*
X164830000Y-82917496D01*
%TO.C,L-D30*%
X142386180Y-109853521D02*
X143386180Y-108121471D01*
X142386180Y-109853521D02*
X145858942Y-111858521D01*
X143386180Y-108121471D02*
X146858942Y-110126471D01*
%TO.C,L-D29*%
X137050000Y-92737496D02*
X135050000Y-92737496D01*
X137050000Y-92737496D02*
X137050000Y-88727496D01*
X135050000Y-92737496D02*
X135050000Y-88727496D01*
%TO.C,L-D28*%
X118020000Y-95766496D02*
X116020000Y-95766496D01*
X118020000Y-95766496D02*
X118020000Y-91756496D01*
X116020000Y-95766496D02*
X116020000Y-91756496D01*
%TO.C,L-D27*%
X98990000Y-93352496D02*
X96990000Y-93352496D01*
X98990000Y-93352496D02*
X98990000Y-89342496D01*
X96990000Y-93352496D02*
X96990000Y-89342496D01*
%TO.C,L-D26*%
X79955000Y-91066496D02*
X77955000Y-91066496D01*
X79955000Y-91066496D02*
X79955000Y-87056496D01*
X77955000Y-91066496D02*
X77955000Y-87056496D01*
%TO.C,L-D25*%
X60905000Y-93352496D02*
X58905000Y-93352496D01*
X60905000Y-93352496D02*
X60905000Y-89342496D01*
X58905000Y-93352496D02*
X58905000Y-89342496D01*
%TO.C,L-D24*%
X41855000Y-98178496D02*
X39855000Y-98178496D01*
X41855000Y-98178496D02*
X41855000Y-94168496D01*
X39855000Y-98178496D02*
X39855000Y-94168496D01*
%TO.C,L-D23*%
X158695000Y-86876496D02*
X156695000Y-86876496D01*
X158695000Y-86876496D02*
X158695000Y-82866496D01*
X156695000Y-86876496D02*
X156695000Y-82866496D01*
%TO.C,L-D22*%
X156155000Y-86876496D02*
X154155000Y-86876496D01*
X156155000Y-86876496D02*
X156155000Y-82866496D01*
X154155000Y-86876496D02*
X154155000Y-82866496D01*
%TO.C,L-D21*%
X137105000Y-73668496D02*
X135105000Y-73668496D01*
X137105000Y-73668496D02*
X137105000Y-69658496D01*
X135105000Y-73668496D02*
X135105000Y-69658496D01*
%TO.C,L-D20*%
X118055000Y-76715496D02*
X116055000Y-76715496D01*
X118055000Y-76715496D02*
X118055000Y-72705496D01*
X116055000Y-76715496D02*
X116055000Y-72705496D01*
%TO.C,L-D19*%
X99005000Y-74302496D02*
X97005000Y-74302496D01*
X99005000Y-74302496D02*
X99005000Y-70292496D01*
X97005000Y-74302496D02*
X97005000Y-70292496D01*
%TO.C,L-D18*%
X79955000Y-72017496D02*
X77955000Y-72017496D01*
X79955000Y-72017496D02*
X79955000Y-68007496D01*
X77955000Y-72017496D02*
X77955000Y-68007496D01*
%TO.C,L-D17*%
X60905000Y-74303496D02*
X58905000Y-74303496D01*
X60905000Y-74303496D02*
X60905000Y-70293496D01*
X58905000Y-74303496D02*
X58905000Y-70293496D01*
%TO.C,L-D16*%
X41855000Y-70494496D02*
X39855000Y-70494496D01*
X41855000Y-70494496D02*
X41855000Y-66484496D01*
X39855000Y-70494496D02*
X39855000Y-66484496D01*
%TO.C,L-D15*%
X158822000Y-64144496D02*
X156822000Y-64144496D01*
X158822000Y-64144496D02*
X158822000Y-60134496D01*
X156822000Y-64144496D02*
X156822000Y-60134496D01*
%TO.C,L-D14*%
X156282000Y-64143496D02*
X154282000Y-64143496D01*
X156282000Y-64143496D02*
X156282000Y-60133496D01*
X154282000Y-64143496D02*
X154282000Y-60133496D01*
%TO.C,L-D13*%
X137105000Y-54618496D02*
X135105000Y-54618496D01*
X137105000Y-54618496D02*
X137105000Y-50608496D01*
X135105000Y-54618496D02*
X135105000Y-50608496D01*
%TO.C,L-D12*%
X118055000Y-57666496D02*
X116055000Y-57666496D01*
X118055000Y-57666496D02*
X118055000Y-53656496D01*
X116055000Y-57666496D02*
X116055000Y-53656496D01*
%TO.C,L-D11*%
X99005000Y-55253496D02*
X97005000Y-55253496D01*
X99005000Y-55253496D02*
X99005000Y-51243496D01*
X97005000Y-55253496D02*
X97005000Y-51243496D01*
%TO.C,L-D10*%
X71570000Y-54467496D02*
X71570000Y-52467496D01*
X71570000Y-54467496D02*
X75580000Y-54467496D01*
X71570000Y-52467496D02*
X75580000Y-52467496D01*
%TO.C,L-D9*%
X60905000Y-55253496D02*
X58905000Y-55253496D01*
X60905000Y-55253496D02*
X60905000Y-51243496D01*
X58905000Y-55253496D02*
X58905000Y-51243496D01*
%TO.C,L-D8*%
X41855000Y-60079496D02*
X39855000Y-60079496D01*
X41855000Y-60079496D02*
X41855000Y-56069496D01*
X39855000Y-60079496D02*
X39855000Y-56069496D01*
%TO.C,L-D7*%
X158822000Y-48904496D02*
X156822000Y-48904496D01*
X158822000Y-48904496D02*
X158822000Y-44894496D01*
X156822000Y-48904496D02*
X156822000Y-44894496D01*
%TO.C,L-D6*%
X156282000Y-48903496D02*
X154282000Y-48903496D01*
X156282000Y-48903496D02*
X156282000Y-44893496D01*
X154282000Y-48903496D02*
X154282000Y-44893496D01*
%TO.C,L-D5*%
X131079000Y-37827496D02*
X131079000Y-35827496D01*
X131079000Y-37827496D02*
X135089000Y-37827496D01*
X131079000Y-35827496D02*
X135089000Y-35827496D01*
%TO.C,L-D4*%
X118055000Y-38616496D02*
X116055000Y-38616496D01*
X118055000Y-38616496D02*
X118055000Y-34606496D01*
X116055000Y-38616496D02*
X116055000Y-34606496D01*
%TO.C,L-D3*%
X90184000Y-33065496D02*
X90184000Y-31065496D01*
X90184000Y-33065496D02*
X94194000Y-33065496D01*
X90184000Y-31065496D02*
X94194000Y-31065496D01*
%TO.C,L-D2*%
X71134000Y-35457496D02*
X71134000Y-33457496D01*
X71134000Y-35457496D02*
X75144000Y-35457496D01*
X71134000Y-33457496D02*
X75144000Y-33457496D01*
%TO.C,L-D1*%
X60890000Y-36203496D02*
X58890000Y-36203496D01*
X60890000Y-36203496D02*
X60890000Y-32193496D01*
X58890000Y-36203496D02*
X58890000Y-32193496D01*
%TO.C,L-D0*%
X41855000Y-32520496D02*
X39855000Y-32520496D01*
X41855000Y-32520496D02*
X41855000Y-28510496D01*
X39855000Y-32520496D02*
X39855000Y-28510496D01*
%TO.C,L-n!n-L-Socket1*%
X98420000Y-20317496D02*
X95760000Y-20317496D01*
X98420000Y-17717496D02*
X97090000Y-17717496D01*
X98420000Y-19047496D02*
X98420000Y-17717496D01*
X98420000Y-20317496D02*
X98420000Y-48317496D01*
X98420000Y-48317496D02*
X95760000Y-48317496D01*
X95760000Y-20317496D02*
X95760000Y-48317496D01*
%TO.C,J3*%
X76710000Y-44867496D02*
X79370000Y-44867496D01*
X76710000Y-47467496D02*
X78040000Y-47467496D01*
X76710000Y-46137496D02*
X76710000Y-47467496D01*
X76710000Y-44867496D02*
X76710000Y-16867496D01*
X76710000Y-16867496D02*
X79370000Y-16867496D01*
X79370000Y-44867496D02*
X79370000Y-16867496D01*
%TO.C,L-K-LED13*%
X130460000Y-43057496D02*
X122660000Y-43057496D01*
X122660000Y-39357496D02*
X130460000Y-39357496D01*
X122660000Y-40957496D02*
X122660000Y-39357496D01*
%TO.C,L-K-LED0*%
X27410000Y-22667496D02*
X35210000Y-22667496D01*
X35210000Y-26367496D02*
X27410000Y-26367496D01*
X35210000Y-24767496D02*
X35210000Y-26367496D01*
%TO.C,R-K-LED36*%
X168600000Y-223906191D02*
X168600000Y-225506191D01*
X168600000Y-225506191D02*
X160800000Y-225506191D01*
X160800000Y-221806191D02*
X168600000Y-221806191D01*
%TO.C,R-K-LED35*%
X149550000Y-223906191D02*
X149550000Y-225506191D01*
X149550000Y-225506191D02*
X141750000Y-225506191D01*
X141750000Y-221806191D02*
X149550000Y-221806191D01*
%TO.C,R-K-LED34*%
X130500000Y-219146191D02*
X130500000Y-220746191D01*
X130500000Y-220746191D02*
X122700000Y-220746191D01*
X122700000Y-217046191D02*
X130500000Y-217046191D01*
%TO.C,R-K-LED33*%
X111450000Y-216796191D02*
X111450000Y-218396191D01*
X111450000Y-218396191D02*
X103650000Y-218396191D01*
X103650000Y-214696191D02*
X111450000Y-214696191D01*
%TO.C,R-K-LED32*%
X78352499Y-222622697D02*
X79152499Y-224008338D01*
X79152499Y-224008338D02*
X72397501Y-227908338D01*
X70547501Y-224704044D02*
X77302499Y-220804044D01*
%TO.C,R-K-LED31*%
X61832499Y-232152697D02*
X62632499Y-233538338D01*
X62632499Y-233538338D02*
X55877501Y-237438338D01*
X54027501Y-234234044D02*
X60782499Y-230334044D01*
%TO.C,R-K-LED30*%
X45302499Y-241682697D02*
X46102499Y-243068338D01*
X46102499Y-243068338D02*
X39347501Y-246968338D01*
X37497501Y-243764044D02*
X44252499Y-239864044D01*
%TO.C,R-K-LED29*%
X160800000Y-204356191D02*
X160800000Y-202756191D01*
X160800000Y-202756191D02*
X168600000Y-202756191D01*
X168600000Y-206456191D02*
X160800000Y-206456191D01*
%TO.C,R-K-LED28*%
X141750000Y-204356191D02*
X141750000Y-202756191D01*
X141750000Y-202756191D02*
X149550000Y-202756191D01*
X149550000Y-206456191D02*
X141750000Y-206456191D01*
%TO.C,R-K-LED27*%
X122700000Y-199596191D02*
X122700000Y-197996191D01*
X122700000Y-197996191D02*
X130500000Y-197996191D01*
X130500000Y-201696191D02*
X122700000Y-201696191D01*
%TO.C,R-K-LED26*%
X103650000Y-197226191D02*
X103650000Y-195626191D01*
X103650000Y-195626191D02*
X111450000Y-195626191D01*
X111450000Y-199326191D02*
X103650000Y-199326191D01*
%TO.C,R-K-LED25*%
X84600000Y-199586191D02*
X84600000Y-197986191D01*
X84600000Y-197986191D02*
X92400000Y-197986191D01*
X92400000Y-201686191D02*
X84600000Y-201686191D01*
%TO.C,R-K-LED24*%
X65550000Y-201996191D02*
X65550000Y-200396191D01*
X65550000Y-200396191D02*
X73350000Y-200396191D01*
X73350000Y-204096191D02*
X65550000Y-204096191D01*
%TO.C,R-K-LED23*%
X45267501Y-219109685D02*
X44467501Y-217724044D01*
X44467501Y-217724044D02*
X51222499Y-213824044D01*
X53072499Y-217028338D02*
X46317501Y-220928338D01*
%TO.C,R-K-LED22*%
X28757501Y-228639685D02*
X27957501Y-227254044D01*
X27957501Y-227254044D02*
X34712499Y-223354044D01*
X36562499Y-226558338D02*
X29807501Y-230458338D01*
%TO.C,R-K-LED21*%
X168600000Y-185796191D02*
X168600000Y-187396191D01*
X168600000Y-187396191D02*
X160800000Y-187396191D01*
X160800000Y-183696191D02*
X168600000Y-183696191D01*
%TO.C,R-K-LED20*%
X149550000Y-185806191D02*
X149550000Y-187406191D01*
X149550000Y-187406191D02*
X141750000Y-187406191D01*
X141750000Y-183706191D02*
X149550000Y-183706191D01*
%TO.C,R-K-LED19*%
X130500000Y-181046191D02*
X130500000Y-182646191D01*
X130500000Y-182646191D02*
X122700000Y-182646191D01*
X122700000Y-178946191D02*
X130500000Y-178946191D01*
%TO.C,R-K-LED18*%
X111450000Y-178656191D02*
X111450000Y-180256191D01*
X111450000Y-180256191D02*
X103650000Y-180256191D01*
X103650000Y-176556191D02*
X111450000Y-176556191D01*
%TO.C,R-K-LED17*%
X92400000Y-181036191D02*
X92400000Y-182636191D01*
X92400000Y-182636191D02*
X84600000Y-182636191D01*
X84600000Y-178936191D02*
X92400000Y-178936191D01*
%TO.C,R-K-LED16*%
X73350000Y-183426191D02*
X73350000Y-185026191D01*
X73350000Y-185026191D02*
X65550000Y-185026191D01*
X65550000Y-181326191D02*
X73350000Y-181326191D01*
%TO.C,R-K-LED14*%
X160800000Y-166246191D02*
X160800000Y-164646191D01*
X160800000Y-164646191D02*
X168600000Y-164646191D01*
X168600000Y-168346191D02*
X160800000Y-168346191D01*
%TO.C,R-K-LED13*%
X141750000Y-166246191D02*
X141750000Y-164646191D01*
X141750000Y-164646191D02*
X149550000Y-164646191D01*
X149550000Y-168346191D02*
X141750000Y-168346191D01*
%TO.C,R-K-LED12*%
X122700000Y-161496191D02*
X122700000Y-159896191D01*
X122700000Y-159896191D02*
X130500000Y-159896191D01*
X130500000Y-163596191D02*
X122700000Y-163596191D01*
%TO.C,R-K-LED11*%
X103650000Y-159126191D02*
X103650000Y-157526191D01*
X103650000Y-157526191D02*
X111450000Y-157526191D01*
X111450000Y-161226191D02*
X103650000Y-161226191D01*
%TO.C,R-K-LED10*%
X84600000Y-161486191D02*
X84600000Y-159886191D01*
X84600000Y-159886191D02*
X92400000Y-159886191D01*
X92400000Y-163586191D02*
X84600000Y-163586191D01*
%TO.C,R-K-LED9*%
X65550000Y-163896191D02*
X65550000Y-162296191D01*
X65550000Y-162296191D02*
X73350000Y-162296191D01*
X73350000Y-165996191D02*
X65550000Y-165996191D01*
%TO.C,R-K-LED7*%
X168600000Y-147706191D02*
X168600000Y-149306191D01*
X168600000Y-149306191D02*
X160800000Y-149306191D01*
X160800000Y-145606191D02*
X168600000Y-145606191D01*
%TO.C,R-K-LED6*%
X149550000Y-147706191D02*
X149550000Y-149306191D01*
X149550000Y-149306191D02*
X141750000Y-149306191D01*
X141750000Y-145606191D02*
X149550000Y-145606191D01*
%TO.C,R-K-LED5*%
X130500000Y-142936191D02*
X130500000Y-144536191D01*
X130500000Y-144536191D02*
X122700000Y-144536191D01*
X122700000Y-140836191D02*
X130500000Y-140836191D01*
%TO.C,R-K-LED4*%
X111420000Y-140586191D02*
X111420000Y-142186191D01*
X111420000Y-142186191D02*
X103620000Y-142186191D01*
X103620000Y-138486191D02*
X111420000Y-138486191D01*
%TO.C,R-K-LED3*%
X92400000Y-142936191D02*
X92400000Y-144536191D01*
X92400000Y-144536191D02*
X84600000Y-144536191D01*
X84600000Y-140836191D02*
X92400000Y-140836191D01*
%TO.C,R-K-LED2*%
X73350000Y-145336191D02*
X73350000Y-146936191D01*
X73350000Y-146936191D02*
X65550000Y-146936191D01*
X65550000Y-143236191D02*
X73350000Y-143236191D01*
%TO.C,R-K-LED1*%
X54290000Y-154856191D02*
X54290000Y-156456191D01*
X54290000Y-156456191D02*
X46490000Y-156456191D01*
X46490000Y-152756191D02*
X54290000Y-152756191D01*
%TO.C,L-K-LED38*%
X166202499Y-107519643D02*
X159447501Y-103619643D01*
X161297501Y-100415349D02*
X168052499Y-104315349D01*
X160497501Y-101800990D02*
X161297501Y-100415349D01*
%TO.C,L-K-LED37*%
X151757501Y-116925349D02*
X158512499Y-120825349D01*
X156662499Y-124029643D02*
X149907501Y-120129643D01*
X157462499Y-122644002D02*
X156662499Y-124029643D01*
%TO.C,L-K-LED36*%
X126977501Y-102635349D02*
X133732499Y-106535349D01*
X131882499Y-109739643D02*
X125127501Y-105839643D01*
X132682499Y-108354002D02*
X131882499Y-109739643D01*
%TO.C,L-K-LED35*%
X92180000Y-94107496D02*
X99980000Y-94107496D01*
X99980000Y-97807496D02*
X92180000Y-97807496D01*
X99980000Y-96207496D02*
X99980000Y-97807496D01*
%TO.C,L-K-LED34*%
X65510000Y-94107496D02*
X73310000Y-94107496D01*
X73310000Y-97807496D02*
X65510000Y-97807496D01*
X73310000Y-96207496D02*
X73310000Y-97807496D01*
%TO.C,L-K-LED33*%
X46460000Y-98867496D02*
X54260000Y-98867496D01*
X54260000Y-102567496D02*
X46460000Y-102567496D01*
X54260000Y-100967496D02*
X54260000Y-102567496D01*
%TO.C,L-K-LED32*%
X27410000Y-98867496D02*
X35210000Y-98867496D01*
X35210000Y-102567496D02*
X27410000Y-102567496D01*
X35210000Y-100967496D02*
X35210000Y-102567496D01*
%TO.C,L-K-LED30*%
X149692499Y-97989643D02*
X142937501Y-94089643D01*
X144787501Y-90885349D02*
X151542499Y-94785349D01*
X143987501Y-92270990D02*
X144787501Y-90885349D01*
%TO.C,L-K-LED29*%
X130460000Y-81157496D02*
X122660000Y-81157496D01*
X122660000Y-77457496D02*
X130460000Y-77457496D01*
X122660000Y-79057496D02*
X122660000Y-77457496D01*
%TO.C,L-K-LED28*%
X111410000Y-78747496D02*
X103610000Y-78747496D01*
X103610000Y-75047496D02*
X111410000Y-75047496D01*
X103610000Y-76647496D02*
X103610000Y-75047496D01*
%TO.C,L-K-LED27*%
X92360000Y-76387496D02*
X84560000Y-76387496D01*
X84560000Y-72687496D02*
X92360000Y-72687496D01*
X84560000Y-74287496D02*
X84560000Y-72687496D01*
%TO.C,L-K-LED26*%
X73310000Y-78757496D02*
X65510000Y-78757496D01*
X65510000Y-75057496D02*
X73310000Y-75057496D01*
X65510000Y-76657496D02*
X65510000Y-75057496D01*
%TO.C,L-K-LED25*%
X54260000Y-83517496D02*
X46460000Y-83517496D01*
X46460000Y-79817496D02*
X54260000Y-79817496D01*
X46460000Y-81417496D02*
X46460000Y-79817496D01*
%TO.C,L-K-LED24*%
X35210000Y-83517496D02*
X27410000Y-83517496D01*
X27410000Y-79817496D02*
X35210000Y-79817496D01*
X27410000Y-81417496D02*
X27410000Y-79817496D01*
%TO.C,L-K-LED22*%
X141710000Y-67917496D02*
X149510000Y-67917496D01*
X149510000Y-71617496D02*
X141710000Y-71617496D01*
X149510000Y-70017496D02*
X149510000Y-71617496D01*
%TO.C,L-K-LED21*%
X122660000Y-58387496D02*
X130460000Y-58387496D01*
X130460000Y-62087496D02*
X122660000Y-62087496D01*
X130460000Y-60487496D02*
X130460000Y-62087496D01*
%TO.C,L-K-LED20*%
X103610000Y-55997496D02*
X111410000Y-55997496D01*
X111410000Y-59697496D02*
X103610000Y-59697496D01*
X111410000Y-58097496D02*
X111410000Y-59697496D01*
%TO.C,L-K-LED19*%
X84560000Y-53617496D02*
X92360000Y-53617496D01*
X92360000Y-57317496D02*
X84560000Y-57317496D01*
X92360000Y-55717496D02*
X92360000Y-57317496D01*
%TO.C,L-K-LED18*%
X65510000Y-56007496D02*
X73310000Y-56007496D01*
X73310000Y-59707496D02*
X65510000Y-59707496D01*
X73310000Y-58107496D02*
X73310000Y-59707496D01*
%TO.C,L-K-LED17*%
X46460000Y-60767496D02*
X54260000Y-60767496D01*
X54260000Y-64467496D02*
X46460000Y-64467496D01*
X54260000Y-62867496D02*
X54260000Y-64467496D01*
%TO.C,L-K-LED16*%
X27410000Y-60757496D02*
X35210000Y-60757496D01*
X35210000Y-64457496D02*
X27410000Y-64457496D01*
X35210000Y-62857496D02*
X35210000Y-64457496D01*
%TO.C,L-K-LED14*%
X149510000Y-52577496D02*
X141710000Y-52577496D01*
X141710000Y-48877496D02*
X149510000Y-48877496D01*
X141710000Y-50477496D02*
X141710000Y-48877496D01*
%TO.C,L-K-LED12*%
X111410000Y-40647496D02*
X103610000Y-40647496D01*
X103610000Y-36947496D02*
X111410000Y-36947496D01*
X103610000Y-38547496D02*
X103610000Y-36947496D01*
%TO.C,L-K-LED11*%
X92360000Y-38287496D02*
X84560000Y-38287496D01*
X84560000Y-34587496D02*
X92360000Y-34587496D01*
X84560000Y-36187496D02*
X84560000Y-34587496D01*
%TO.C,L-K-LED10*%
X73310000Y-40657496D02*
X65510000Y-40657496D01*
X65510000Y-36957496D02*
X73310000Y-36957496D01*
X65510000Y-38557496D02*
X65510000Y-36957496D01*
%TO.C,L-K-LED9*%
X54260000Y-45407496D02*
X46460000Y-45407496D01*
X46460000Y-41707496D02*
X54260000Y-41707496D01*
X46460000Y-43307496D02*
X46460000Y-41707496D01*
%TO.C,L-K-LED8*%
X35210000Y-45407496D02*
X27410000Y-45407496D01*
X27410000Y-41707496D02*
X35210000Y-41707496D01*
X27410000Y-43307496D02*
X27410000Y-41707496D01*
%TO.C,L-K-LED6*%
X141720000Y-29817496D02*
X149520000Y-29817496D01*
X149520000Y-33517496D02*
X141720000Y-33517496D01*
X149520000Y-31917496D02*
X149520000Y-33517496D01*
%TO.C,L-K-LED5*%
X122660000Y-20297496D02*
X130460000Y-20297496D01*
X130460000Y-23997496D02*
X122660000Y-23997496D01*
X130460000Y-22397496D02*
X130460000Y-23997496D01*
%TO.C,L-K-LED4*%
X103610000Y-17897496D02*
X111410000Y-17897496D01*
X111410000Y-21597496D02*
X103610000Y-21597496D01*
X111410000Y-19997496D02*
X111410000Y-21597496D01*
%TO.C,L-K-LED3*%
X84560000Y-15547496D02*
X92360000Y-15547496D01*
X92360000Y-19247496D02*
X84560000Y-19247496D01*
X92360000Y-17647496D02*
X92360000Y-19247496D01*
%TO.C,L-K-LED2*%
X65510000Y-17897496D02*
X73310000Y-17897496D01*
X73310000Y-21597496D02*
X65510000Y-21597496D01*
X73310000Y-19997496D02*
X73310000Y-21597496D01*
%TO.C,L-K-LED1*%
X46460000Y-22667496D02*
X54260000Y-22667496D01*
X54260000Y-26367496D02*
X46460000Y-26367496D01*
X54260000Y-24767496D02*
X54260000Y-26367496D01*
%TO.C,R-UG-LED6*%
X155340000Y-198816191D02*
X155340000Y-206116191D01*
X160840000Y-198816191D02*
X160840000Y-206116191D01*
X160840000Y-206116191D02*
X159690000Y-206116191D01*
%TO.C,R-UG-LED5*%
X160740000Y-171806191D02*
X160740000Y-164506191D01*
X155240000Y-171806191D02*
X155240000Y-164506191D01*
X155240000Y-164506191D02*
X156390000Y-164506191D01*
%TO.C,R-UG-LED4*%
X140790000Y-145546191D02*
X133490000Y-145546191D01*
X140790000Y-151046191D02*
X133490000Y-151046191D01*
X133490000Y-151046191D02*
X133490000Y-149896191D01*
%TO.C,R-UG-LED3*%
X54270000Y-153036191D02*
X54270000Y-160336191D01*
X59770000Y-153036191D02*
X59770000Y-160336191D01*
X59770000Y-160336191D02*
X58620000Y-160336191D01*
%TO.C,R-UG-LED2*%
X29090000Y-175196191D02*
X29090000Y-182496191D01*
X34590000Y-175196191D02*
X34590000Y-182496191D01*
X34590000Y-182496191D02*
X33440000Y-182496191D01*
%TO.C,R-UG-LED1*%
X28960000Y-212516191D02*
X28960000Y-219816191D01*
X34460000Y-212516191D02*
X34460000Y-219816191D01*
X34460000Y-219816191D02*
X33310000Y-219816191D01*
%TO.C,R-UG-LED0*%
X45620769Y-241096703D02*
X51942755Y-237446703D01*
X42870769Y-236333563D02*
X49192755Y-232683563D01*
X49192755Y-232683563D02*
X49767755Y-233679492D01*
%TO.C,R-SW36*%
X157715000Y-231176191D02*
X157715000Y-232126191D01*
X157715000Y-231176191D02*
X159715000Y-231176191D01*
X157715000Y-235876191D02*
X157715000Y-234926191D01*
X157715000Y-235876191D02*
X159715000Y-235876191D01*
X169915000Y-232226191D02*
X168215000Y-232226191D01*
X169915000Y-232226191D02*
X169915000Y-233176191D01*
X169915000Y-236926191D02*
X168215000Y-236926191D01*
X169915000Y-236926191D02*
X169915000Y-236026191D01*
%TO.C,R-SW35*%
X138660000Y-231176191D02*
X138660000Y-232126191D01*
X138660000Y-231176191D02*
X140660000Y-231176191D01*
X138660000Y-235876191D02*
X138660000Y-234926191D01*
X138660000Y-235876191D02*
X140660000Y-235876191D01*
X150860000Y-232226191D02*
X149160000Y-232226191D01*
X150860000Y-232226191D02*
X150860000Y-233176191D01*
X150860000Y-236926191D02*
X149160000Y-236926191D01*
X150860000Y-236926191D02*
X150860000Y-236026191D01*
%TO.C,R-SW34*%
X119620000Y-226416191D02*
X119620000Y-227366191D01*
X119620000Y-226416191D02*
X121620000Y-226416191D01*
X119620000Y-231116191D02*
X119620000Y-230166191D01*
X119620000Y-231116191D02*
X121620000Y-231116191D01*
X131820000Y-227466191D02*
X130120000Y-227466191D01*
X131820000Y-227466191D02*
X131820000Y-228416191D01*
X131820000Y-232166191D02*
X130120000Y-232166191D01*
X131820000Y-232166191D02*
X131820000Y-231266191D01*
%TO.C,R-SW33*%
X100570000Y-224066191D02*
X100570000Y-225016191D01*
X100570000Y-224066191D02*
X102570000Y-224066191D01*
X100570000Y-228766191D02*
X100570000Y-227816191D01*
X100570000Y-228766191D02*
X102570000Y-228766191D01*
X112770000Y-225116191D02*
X111070000Y-225116191D01*
X112770000Y-225116191D02*
X112770000Y-226066191D01*
X112770000Y-229816191D02*
X111070000Y-229816191D01*
X112770000Y-229816191D02*
X112770000Y-228916191D01*
%TO.C,R-SW32*%
X72532822Y-234381351D02*
X73007822Y-235204075D01*
X72532822Y-234381351D02*
X74264873Y-233381351D01*
X74882822Y-238451670D02*
X74407822Y-237628946D01*
X74882822Y-238451670D02*
X76614873Y-237451670D01*
X83623332Y-229190677D02*
X82151089Y-230040677D01*
X83623332Y-229190677D02*
X84098332Y-230013402D01*
X85973332Y-233260997D02*
X84501089Y-234110997D01*
X85973332Y-233260997D02*
X85523332Y-232481574D01*
%TO.C,R-SW31*%
X56032822Y-243901351D02*
X56507822Y-244724075D01*
X56032822Y-243901351D02*
X57764873Y-242901351D01*
X58382822Y-247971670D02*
X57907822Y-247148946D01*
X58382822Y-247971670D02*
X60114873Y-246971670D01*
X67123332Y-238710677D02*
X65651089Y-239560677D01*
X67123332Y-238710677D02*
X67598332Y-239533402D01*
X69473332Y-242780997D02*
X68001089Y-243630997D01*
X69473332Y-242780997D02*
X69023332Y-242001574D01*
%TO.C,R-SW30*%
X39522822Y-253431351D02*
X39997822Y-254254075D01*
X39522822Y-253431351D02*
X41254873Y-252431351D01*
X41872822Y-257501670D02*
X41397822Y-256678946D01*
X41872822Y-257501670D02*
X43604873Y-256501670D01*
X50613332Y-248240677D02*
X49141089Y-249090677D01*
X50613332Y-248240677D02*
X51088332Y-249063402D01*
X52963332Y-252310997D02*
X51491089Y-253160997D01*
X52963332Y-252310997D02*
X52513332Y-251531574D01*
%TO.C,R-SW29*%
X157720000Y-212126191D02*
X157720000Y-213076191D01*
X157720000Y-212126191D02*
X159720000Y-212126191D01*
X157720000Y-216826191D02*
X157720000Y-215876191D01*
X157720000Y-216826191D02*
X159720000Y-216826191D01*
X169920000Y-213176191D02*
X168220000Y-213176191D01*
X169920000Y-213176191D02*
X169920000Y-214126191D01*
X169920000Y-217876191D02*
X168220000Y-217876191D01*
X169920000Y-217876191D02*
X169920000Y-216976191D01*
%TO.C,R-SW28*%
X138660000Y-212126191D02*
X138660000Y-213076191D01*
X138660000Y-212126191D02*
X140660000Y-212126191D01*
X138660000Y-216826191D02*
X138660000Y-215876191D01*
X138660000Y-216826191D02*
X140660000Y-216826191D01*
X150860000Y-213176191D02*
X149160000Y-213176191D01*
X150860000Y-213176191D02*
X150860000Y-214126191D01*
X150860000Y-217876191D02*
X149160000Y-217876191D01*
X150860000Y-217876191D02*
X150860000Y-216976191D01*
%TO.C,R-SW27*%
X119620000Y-207366191D02*
X119620000Y-208316191D01*
X119620000Y-207366191D02*
X121620000Y-207366191D01*
X119620000Y-212066191D02*
X119620000Y-211116191D01*
X119620000Y-212066191D02*
X121620000Y-212066191D01*
X131820000Y-208416191D02*
X130120000Y-208416191D01*
X131820000Y-208416191D02*
X131820000Y-209366191D01*
X131820000Y-213116191D02*
X130120000Y-213116191D01*
X131820000Y-213116191D02*
X131820000Y-212216191D01*
%TO.C,R-SW26*%
X100570000Y-205006191D02*
X100570000Y-205956191D01*
X100570000Y-205006191D02*
X102570000Y-205006191D01*
X100570000Y-209706191D02*
X100570000Y-208756191D01*
X100570000Y-209706191D02*
X102570000Y-209706191D01*
X112770000Y-206056191D02*
X111070000Y-206056191D01*
X112770000Y-206056191D02*
X112770000Y-207006191D01*
X112770000Y-210756191D02*
X111070000Y-210756191D01*
X112770000Y-210756191D02*
X112770000Y-209856191D01*
%TO.C,R-SW25*%
X81520000Y-207366191D02*
X81520000Y-208316191D01*
X81520000Y-207366191D02*
X83520000Y-207366191D01*
X81520000Y-212066191D02*
X81520000Y-211116191D01*
X81520000Y-212066191D02*
X83520000Y-212066191D01*
X93720000Y-208416191D02*
X92020000Y-208416191D01*
X93720000Y-208416191D02*
X93720000Y-209366191D01*
X93720000Y-213116191D02*
X92020000Y-213116191D01*
X93720000Y-213116191D02*
X93720000Y-212216191D01*
%TO.C,R-SW24*%
X62470000Y-209766191D02*
X62470000Y-210716191D01*
X62470000Y-209766191D02*
X64470000Y-209766191D01*
X62470000Y-214466191D02*
X62470000Y-213516191D01*
X62470000Y-214466191D02*
X64470000Y-214466191D01*
X74670000Y-210816191D02*
X72970000Y-210816191D01*
X74670000Y-210816191D02*
X74670000Y-211766191D01*
X74670000Y-215516191D02*
X72970000Y-215516191D01*
X74670000Y-215516191D02*
X74670000Y-214616191D01*
%TO.C,R-SW22*%
X29992822Y-236921351D02*
X30467822Y-237744075D01*
X29992822Y-236921351D02*
X31724873Y-235921351D01*
X32342822Y-240991670D02*
X31867822Y-240168946D01*
X32342822Y-240991670D02*
X34074873Y-239991670D01*
X41083332Y-231730677D02*
X39611089Y-232580677D01*
X41083332Y-231730677D02*
X41558332Y-232553402D01*
X43433332Y-235800997D02*
X41961089Y-236650997D01*
X43433332Y-235800997D02*
X42983332Y-235021574D01*
%TO.C,R-SW21*%
X157710000Y-193066191D02*
X157710000Y-194016191D01*
X157710000Y-193066191D02*
X159710000Y-193066191D01*
X157710000Y-197766191D02*
X157710000Y-196816191D01*
X157710000Y-197766191D02*
X159710000Y-197766191D01*
X169910000Y-194116191D02*
X168210000Y-194116191D01*
X169910000Y-194116191D02*
X169910000Y-195066191D01*
X169910000Y-198816191D02*
X168210000Y-198816191D01*
X169910000Y-198816191D02*
X169910000Y-197916191D01*
%TO.C,R-SW20*%
X138670000Y-193076191D02*
X138670000Y-194026191D01*
X138670000Y-193076191D02*
X140670000Y-193076191D01*
X138670000Y-197776191D02*
X138670000Y-196826191D01*
X138670000Y-197776191D02*
X140670000Y-197776191D01*
X150870000Y-194126191D02*
X149170000Y-194126191D01*
X150870000Y-194126191D02*
X150870000Y-195076191D01*
X150870000Y-198826191D02*
X149170000Y-198826191D01*
X150870000Y-198826191D02*
X150870000Y-197926191D01*
%TO.C,R-SW19*%
X119625000Y-188316191D02*
X119625000Y-189266191D01*
X119625000Y-188316191D02*
X121625000Y-188316191D01*
X119625000Y-193016191D02*
X119625000Y-192066191D01*
X119625000Y-193016191D02*
X121625000Y-193016191D01*
X131825000Y-189366191D02*
X130125000Y-189366191D01*
X131825000Y-189366191D02*
X131825000Y-190316191D01*
X131825000Y-194066191D02*
X130125000Y-194066191D01*
X131825000Y-194066191D02*
X131825000Y-193166191D01*
%TO.C,R-SW18*%
X100580000Y-185936191D02*
X100580000Y-186886191D01*
X100580000Y-185936191D02*
X102580000Y-185936191D01*
X100580000Y-190636191D02*
X100580000Y-189686191D01*
X100580000Y-190636191D02*
X102580000Y-190636191D01*
X112780000Y-186986191D02*
X111080000Y-186986191D01*
X112780000Y-186986191D02*
X112780000Y-187936191D01*
X112780000Y-191686191D02*
X111080000Y-191686191D01*
X112780000Y-191686191D02*
X112780000Y-190786191D01*
%TO.C,R-SW17*%
X81520000Y-188316191D02*
X81520000Y-189266191D01*
X81520000Y-188316191D02*
X83520000Y-188316191D01*
X81520000Y-193016191D02*
X81520000Y-192066191D01*
X81520000Y-193016191D02*
X83520000Y-193016191D01*
X93720000Y-189366191D02*
X92020000Y-189366191D01*
X93720000Y-189366191D02*
X93720000Y-190316191D01*
X93720000Y-194066191D02*
X92020000Y-194066191D01*
X93720000Y-194066191D02*
X93720000Y-193166191D01*
%TO.C,R-SW16*%
X62470000Y-190706191D02*
X62470000Y-191656191D01*
X62470000Y-190706191D02*
X64470000Y-190706191D01*
X62470000Y-195406191D02*
X62470000Y-194456191D01*
X62470000Y-195406191D02*
X64470000Y-195406191D01*
X74670000Y-191756191D02*
X72970000Y-191756191D01*
X74670000Y-191756191D02*
X74670000Y-192706191D01*
X74670000Y-196456191D02*
X72970000Y-196456191D01*
X74670000Y-196456191D02*
X74670000Y-195556191D01*
%TO.C,R-SW14*%
X157710000Y-174026191D02*
X157710000Y-174976191D01*
X157710000Y-174026191D02*
X159710000Y-174026191D01*
X157710000Y-178726191D02*
X157710000Y-177776191D01*
X157710000Y-178726191D02*
X159710000Y-178726191D01*
X169910000Y-175076191D02*
X168210000Y-175076191D01*
X169910000Y-175076191D02*
X169910000Y-176026191D01*
X169910000Y-179776191D02*
X168210000Y-179776191D01*
X169910000Y-179776191D02*
X169910000Y-178876191D01*
%TO.C,R-SW13*%
X138665000Y-174026191D02*
X138665000Y-174976191D01*
X138665000Y-174026191D02*
X140665000Y-174026191D01*
X138665000Y-178726191D02*
X138665000Y-177776191D01*
X138665000Y-178726191D02*
X140665000Y-178726191D01*
X150865000Y-175076191D02*
X149165000Y-175076191D01*
X150865000Y-175076191D02*
X150865000Y-176026191D01*
X150865000Y-179776191D02*
X149165000Y-179776191D01*
X150865000Y-179776191D02*
X150865000Y-178876191D01*
%TO.C,R-SW12*%
X119620000Y-169266191D02*
X119620000Y-170216191D01*
X119620000Y-169266191D02*
X121620000Y-169266191D01*
X119620000Y-173966191D02*
X119620000Y-173016191D01*
X119620000Y-173966191D02*
X121620000Y-173966191D01*
X131820000Y-170316191D02*
X130120000Y-170316191D01*
X131820000Y-170316191D02*
X131820000Y-171266191D01*
X131820000Y-175016191D02*
X130120000Y-175016191D01*
X131820000Y-175016191D02*
X131820000Y-174116191D01*
%TO.C,R-SW11*%
X100560000Y-166906191D02*
X100560000Y-167856191D01*
X100560000Y-166906191D02*
X102560000Y-166906191D01*
X100560000Y-171606191D02*
X100560000Y-170656191D01*
X100560000Y-171606191D02*
X102560000Y-171606191D01*
X112760000Y-167956191D02*
X111060000Y-167956191D01*
X112760000Y-167956191D02*
X112760000Y-168906191D01*
X112760000Y-172656191D02*
X111060000Y-172656191D01*
X112760000Y-172656191D02*
X112760000Y-171756191D01*
%TO.C,R-SW10*%
X81520000Y-169266191D02*
X81520000Y-170216191D01*
X81520000Y-169266191D02*
X83520000Y-169266191D01*
X81520000Y-173966191D02*
X81520000Y-173016191D01*
X81520000Y-173966191D02*
X83520000Y-173966191D01*
X93720000Y-170316191D02*
X92020000Y-170316191D01*
X93720000Y-170316191D02*
X93720000Y-171266191D01*
X93720000Y-175016191D02*
X92020000Y-175016191D01*
X93720000Y-175016191D02*
X93720000Y-174116191D01*
%TO.C,R-SW9*%
X62470000Y-171666191D02*
X62470000Y-172616191D01*
X62470000Y-171666191D02*
X64470000Y-171666191D01*
X62470000Y-176366191D02*
X62470000Y-175416191D01*
X62470000Y-176366191D02*
X64470000Y-176366191D01*
X74670000Y-172716191D02*
X72970000Y-172716191D01*
X74670000Y-172716191D02*
X74670000Y-173666191D01*
X74670000Y-177416191D02*
X72970000Y-177416191D01*
X74670000Y-177416191D02*
X74670000Y-176516191D01*
%TO.C,R-SW7*%
X157715000Y-154976191D02*
X157715000Y-155926191D01*
X157715000Y-154976191D02*
X159715000Y-154976191D01*
X157715000Y-159676191D02*
X157715000Y-158726191D01*
X157715000Y-159676191D02*
X159715000Y-159676191D01*
X169915000Y-156026191D02*
X168215000Y-156026191D01*
X169915000Y-156026191D02*
X169915000Y-156976191D01*
X169915000Y-160726191D02*
X168215000Y-160726191D01*
X169915000Y-160726191D02*
X169915000Y-159826191D01*
%TO.C,R-SW6*%
X138670000Y-154976191D02*
X138670000Y-155926191D01*
X138670000Y-154976191D02*
X140670000Y-154976191D01*
X138670000Y-159676191D02*
X138670000Y-158726191D01*
X138670000Y-159676191D02*
X140670000Y-159676191D01*
X150870000Y-156026191D02*
X149170000Y-156026191D01*
X150870000Y-156026191D02*
X150870000Y-156976191D01*
X150870000Y-160726191D02*
X149170000Y-160726191D01*
X150870000Y-160726191D02*
X150870000Y-159826191D01*
%TO.C,R-SW5*%
X119600000Y-150216191D02*
X119600000Y-151166191D01*
X119600000Y-150216191D02*
X121600000Y-150216191D01*
X119600000Y-154916191D02*
X119600000Y-153966191D01*
X119600000Y-154916191D02*
X121600000Y-154916191D01*
X131800000Y-151266191D02*
X130100000Y-151266191D01*
X131800000Y-151266191D02*
X131800000Y-152216191D01*
X131800000Y-155966191D02*
X130100000Y-155966191D01*
X131800000Y-155966191D02*
X131800000Y-155066191D01*
%TO.C,R-SW4*%
X100580000Y-147856191D02*
X100580000Y-148806191D01*
X100580000Y-147856191D02*
X102580000Y-147856191D01*
X100580000Y-152556191D02*
X100580000Y-151606191D01*
X100580000Y-152556191D02*
X102580000Y-152556191D01*
X112780000Y-148906191D02*
X111080000Y-148906191D01*
X112780000Y-148906191D02*
X112780000Y-149856191D01*
X112780000Y-153606191D02*
X111080000Y-153606191D01*
X112780000Y-153606191D02*
X112780000Y-152706191D01*
%TO.C,R-SW3*%
X81510000Y-150216191D02*
X81510000Y-151166191D01*
X81510000Y-150216191D02*
X83510000Y-150216191D01*
X81510000Y-154916191D02*
X81510000Y-153966191D01*
X81510000Y-154916191D02*
X83510000Y-154916191D01*
X93710000Y-151266191D02*
X92010000Y-151266191D01*
X93710000Y-151266191D02*
X93710000Y-152216191D01*
X93710000Y-155966191D02*
X92010000Y-155966191D01*
X93710000Y-155966191D02*
X93710000Y-155066191D01*
%TO.C,R-SW2*%
X62460000Y-152616191D02*
X62460000Y-153566191D01*
X62460000Y-152616191D02*
X64460000Y-152616191D01*
X62460000Y-157316191D02*
X62460000Y-156366191D01*
X62460000Y-157316191D02*
X64460000Y-157316191D01*
X74660000Y-153666191D02*
X72960000Y-153666191D01*
X74660000Y-153666191D02*
X74660000Y-154616191D01*
X74660000Y-158366191D02*
X72960000Y-158366191D01*
X74660000Y-158366191D02*
X74660000Y-157466191D01*
%TO.C,R-LED-JP1*%
X42115000Y-199114191D02*
X41815000Y-199414191D01*
X38765000Y-196914191D02*
X38765000Y-198914191D01*
X38765000Y-198914191D02*
X42865000Y-198914191D01*
X42865000Y-196914191D02*
X38765000Y-196914191D01*
X42865000Y-198914191D02*
X42865000Y-196914191D01*
X42415000Y-199414191D02*
X41815000Y-199414191D01*
X42115000Y-199114191D02*
X42415000Y-199414191D01*
%TO.C,R-CRQ-JP1*%
X42115000Y-195279191D02*
X41815000Y-195579191D01*
X38765000Y-193079191D02*
X38765000Y-195079191D01*
X38765000Y-195079191D02*
X42865000Y-195079191D01*
X42865000Y-193079191D02*
X38765000Y-193079191D01*
X42865000Y-195079191D02*
X42865000Y-193079191D01*
X42415000Y-195579191D02*
X41815000Y-195579191D01*
X42115000Y-195279191D02*
X42415000Y-195579191D01*
%TO.C,R-BATT-CONN1*%
X80350000Y-166846191D02*
X80350000Y-165516191D01*
X80350000Y-170716191D02*
X77690000Y-170716191D01*
X80350000Y-168116191D02*
X80350000Y-170716191D01*
X80350000Y-168116191D02*
X77690000Y-168116191D01*
X80350000Y-165516191D02*
X79020000Y-165516191D01*
X77690000Y-168116191D02*
X77690000Y-170716191D01*
%TO.C,L-UG-LED6*%
X146644007Y-114844066D02*
X147219007Y-113848137D01*
X152965993Y-118494066D02*
X146644007Y-114844066D01*
X155715993Y-113730926D02*
X149394007Y-110080926D01*
%TO.C,L-UG-LED5*%
X161550000Y-89577496D02*
X162700000Y-89577496D01*
X161550000Y-96877496D02*
X161550000Y-89577496D01*
X167050000Y-96877496D02*
X167050000Y-89577496D01*
%TO.C,L-UG-LED4*%
X166920000Y-59557496D02*
X165770000Y-59557496D01*
X166920000Y-52257496D02*
X166920000Y-59557496D01*
X161420000Y-52257496D02*
X161420000Y-59557496D01*
%TO.C,L-UG-LED3*%
X141740000Y-37397496D02*
X140590000Y-37397496D01*
X141740000Y-30097496D02*
X141740000Y-37397496D01*
X136240000Y-30097496D02*
X136240000Y-37397496D01*
%TO.C,L-UG-LED2*%
X55220000Y-28107496D02*
X55220000Y-26957496D01*
X62520000Y-28107496D02*
X55220000Y-28107496D01*
X62520000Y-22607496D02*
X55220000Y-22607496D01*
%TO.C,L-UG-LED1*%
X40770000Y-48867496D02*
X39620000Y-48867496D01*
X40770000Y-41567496D02*
X40770000Y-48867496D01*
X35270000Y-41567496D02*
X35270000Y-48867496D01*
%TO.C,L-UG-LED0*%
X40670000Y-83177496D02*
X39520000Y-83177496D01*
X40670000Y-75877496D02*
X40670000Y-83177496D01*
X35170000Y-75877496D02*
X35170000Y-83177496D01*
%TO.C,L-SW38*%
X161613332Y-118062302D02*
X162063332Y-117282879D01*
X161613332Y-118062302D02*
X160141089Y-117212302D01*
X163963332Y-113991982D02*
X163488332Y-114814707D01*
X163963332Y-113991982D02*
X162491089Y-113141982D01*
X151572822Y-111052975D02*
X153304873Y-112052975D01*
X151572822Y-111052975D02*
X152047822Y-110230251D01*
X153922822Y-106982656D02*
X155654873Y-107982656D01*
X153922822Y-106982656D02*
X153447822Y-107805380D01*
%TO.C,L-SW37*%
X152073332Y-134572302D02*
X152523332Y-133792879D01*
X152073332Y-134572302D02*
X150601089Y-133722302D01*
X154423332Y-130501982D02*
X153948332Y-131324707D01*
X154423332Y-130501982D02*
X152951089Y-129651982D01*
X142032822Y-127562975D02*
X143764873Y-128562975D01*
X142032822Y-127562975D02*
X142507822Y-126740251D01*
X144382822Y-123492656D02*
X146114873Y-124492656D01*
X144382822Y-123492656D02*
X143907822Y-124315380D01*
%TO.C,L-SW36*%
X127303332Y-120272302D02*
X127753332Y-119492879D01*
X127303332Y-120272302D02*
X125831089Y-119422302D01*
X129653332Y-116201982D02*
X129178332Y-117024707D01*
X129653332Y-116201982D02*
X128181089Y-115351982D01*
X117262822Y-113262975D02*
X118994873Y-114262975D01*
X117262822Y-113262975D02*
X117737822Y-112440251D01*
X119612822Y-109192656D02*
X121344873Y-110192656D01*
X119612822Y-109192656D02*
X119137822Y-110015380D01*
%TO.C,L-SW35*%
X101280000Y-109227496D02*
X101280000Y-108327496D01*
X101280000Y-109227496D02*
X99580000Y-109227496D01*
X101280000Y-104527496D02*
X101280000Y-105477496D01*
X101280000Y-104527496D02*
X99580000Y-104527496D01*
X89080000Y-108177496D02*
X91080000Y-108177496D01*
X89080000Y-108177496D02*
X89080000Y-107227496D01*
X89080000Y-103477496D02*
X91080000Y-103477496D01*
X89080000Y-103477496D02*
X89080000Y-104427496D01*
%TO.C,L-SW34*%
X74610000Y-109227496D02*
X74610000Y-108327496D01*
X74610000Y-109227496D02*
X72910000Y-109227496D01*
X74610000Y-104527496D02*
X74610000Y-105477496D01*
X74610000Y-104527496D02*
X72910000Y-104527496D01*
X62410000Y-108177496D02*
X64410000Y-108177496D01*
X62410000Y-108177496D02*
X62410000Y-107227496D01*
X62410000Y-103477496D02*
X64410000Y-103477496D01*
X62410000Y-103477496D02*
X62410000Y-104427496D01*
%TO.C,L-SW33*%
X55570000Y-113987496D02*
X55570000Y-113087496D01*
X55570000Y-113987496D02*
X53870000Y-113987496D01*
X55570000Y-109287496D02*
X55570000Y-110237496D01*
X55570000Y-109287496D02*
X53870000Y-109287496D01*
X43370000Y-112937496D02*
X45370000Y-112937496D01*
X43370000Y-112937496D02*
X43370000Y-111987496D01*
X43370000Y-108237496D02*
X45370000Y-108237496D01*
X43370000Y-108237496D02*
X43370000Y-109187496D01*
%TO.C,L-SW32*%
X36510000Y-113987496D02*
X36510000Y-113087496D01*
X36510000Y-113987496D02*
X34810000Y-113987496D01*
X36510000Y-109287496D02*
X36510000Y-110237496D01*
X36510000Y-109287496D02*
X34810000Y-109287496D01*
X24310000Y-112937496D02*
X26310000Y-112937496D01*
X24310000Y-112937496D02*
X24310000Y-111987496D01*
X24310000Y-108237496D02*
X26310000Y-108237496D01*
X24310000Y-108237496D02*
X24310000Y-109187496D01*
%TO.C,L-SW30*%
X145103332Y-108532302D02*
X145553332Y-107752879D01*
X145103332Y-108532302D02*
X143631089Y-107682302D01*
X147453332Y-104461982D02*
X146978332Y-105284707D01*
X147453332Y-104461982D02*
X145981089Y-103611982D01*
X135062822Y-101522975D02*
X136794873Y-102522975D01*
X135062822Y-101522975D02*
X135537822Y-100700251D01*
X137412822Y-97452656D02*
X139144873Y-98452656D01*
X137412822Y-97452656D02*
X136937822Y-98275380D01*
%TO.C,L-SW29*%
X131760000Y-92577496D02*
X131760000Y-91677496D01*
X131760000Y-92577496D02*
X130060000Y-92577496D01*
X131760000Y-87877496D02*
X131760000Y-88827496D01*
X131760000Y-87877496D02*
X130060000Y-87877496D01*
X119560000Y-91527496D02*
X121560000Y-91527496D01*
X119560000Y-91527496D02*
X119560000Y-90577496D01*
X119560000Y-86827496D02*
X121560000Y-86827496D01*
X119560000Y-86827496D02*
X119560000Y-87777496D01*
%TO.C,L-SW28*%
X112710000Y-90177496D02*
X112710000Y-89277496D01*
X112710000Y-90177496D02*
X111010000Y-90177496D01*
X112710000Y-85477496D02*
X112710000Y-86427496D01*
X112710000Y-85477496D02*
X111010000Y-85477496D01*
X100510000Y-89127496D02*
X102510000Y-89127496D01*
X100510000Y-89127496D02*
X100510000Y-88177496D01*
X100510000Y-84427496D02*
X102510000Y-84427496D01*
X100510000Y-84427496D02*
X100510000Y-85377496D01*
%TO.C,L-SW27*%
X93660000Y-87817496D02*
X93660000Y-86917496D01*
X93660000Y-87817496D02*
X91960000Y-87817496D01*
X93660000Y-83117496D02*
X93660000Y-84067496D01*
X93660000Y-83117496D02*
X91960000Y-83117496D01*
X81460000Y-86767496D02*
X83460000Y-86767496D01*
X81460000Y-86767496D02*
X81460000Y-85817496D01*
X81460000Y-82067496D02*
X83460000Y-82067496D01*
X81460000Y-82067496D02*
X81460000Y-83017496D01*
%TO.C,L-SW26*%
X74610000Y-90177496D02*
X74610000Y-89277496D01*
X74610000Y-90177496D02*
X72910000Y-90177496D01*
X74610000Y-85477496D02*
X74610000Y-86427496D01*
X74610000Y-85477496D02*
X72910000Y-85477496D01*
X62410000Y-89127496D02*
X64410000Y-89127496D01*
X62410000Y-89127496D02*
X62410000Y-88177496D01*
X62410000Y-84427496D02*
X64410000Y-84427496D01*
X62410000Y-84427496D02*
X62410000Y-85377496D01*
%TO.C,L-SW25*%
X55570000Y-94937496D02*
X55570000Y-94037496D01*
X55570000Y-94937496D02*
X53870000Y-94937496D01*
X55570000Y-90237496D02*
X55570000Y-91187496D01*
X55570000Y-90237496D02*
X53870000Y-90237496D01*
X43370000Y-93887496D02*
X45370000Y-93887496D01*
X43370000Y-93887496D02*
X43370000Y-92937496D01*
X43370000Y-89187496D02*
X45370000Y-89187496D01*
X43370000Y-89187496D02*
X43370000Y-90137496D01*
%TO.C,L-SW24*%
X36510000Y-94937496D02*
X36510000Y-94037496D01*
X36510000Y-94937496D02*
X34810000Y-94937496D01*
X36510000Y-90237496D02*
X36510000Y-91187496D01*
X36510000Y-90237496D02*
X34810000Y-90237496D01*
X24310000Y-93887496D02*
X26310000Y-93887496D01*
X24310000Y-93887496D02*
X24310000Y-92937496D01*
X24310000Y-89187496D02*
X26310000Y-89187496D01*
X24310000Y-89187496D02*
X24310000Y-90137496D01*
%TO.C,L-SW22*%
X150810000Y-83047496D02*
X150810000Y-82147496D01*
X150810000Y-83047496D02*
X149110000Y-83047496D01*
X150810000Y-78347496D02*
X150810000Y-79297496D01*
X150810000Y-78347496D02*
X149110000Y-78347496D01*
X138610000Y-81997496D02*
X140610000Y-81997496D01*
X138610000Y-81997496D02*
X138610000Y-81047496D01*
X138610000Y-77297496D02*
X140610000Y-77297496D01*
X138610000Y-77297496D02*
X138610000Y-78247496D01*
%TO.C,L-SW21*%
X131760000Y-73517496D02*
X131760000Y-72617496D01*
X131760000Y-73517496D02*
X130060000Y-73517496D01*
X131760000Y-68817496D02*
X131760000Y-69767496D01*
X131760000Y-68817496D02*
X130060000Y-68817496D01*
X119560000Y-72467496D02*
X121560000Y-72467496D01*
X119560000Y-72467496D02*
X119560000Y-71517496D01*
X119560000Y-67767496D02*
X121560000Y-67767496D01*
X119560000Y-67767496D02*
X119560000Y-68717496D01*
%TO.C,L-SW20*%
X112710000Y-71127496D02*
X112710000Y-70227496D01*
X112710000Y-71127496D02*
X111010000Y-71127496D01*
X112710000Y-66427496D02*
X112710000Y-67377496D01*
X112710000Y-66427496D02*
X111010000Y-66427496D01*
X100510000Y-70077496D02*
X102510000Y-70077496D01*
X100510000Y-70077496D02*
X100510000Y-69127496D01*
X100510000Y-65377496D02*
X102510000Y-65377496D01*
X100510000Y-65377496D02*
X100510000Y-66327496D01*
%TO.C,L-SW19*%
X93660000Y-68747496D02*
X93660000Y-67847496D01*
X93660000Y-68747496D02*
X91960000Y-68747496D01*
X93660000Y-64047496D02*
X93660000Y-64997496D01*
X93660000Y-64047496D02*
X91960000Y-64047496D01*
X81460000Y-67697496D02*
X83460000Y-67697496D01*
X81460000Y-67697496D02*
X81460000Y-66747496D01*
X81460000Y-62997496D02*
X83460000Y-62997496D01*
X81460000Y-62997496D02*
X81460000Y-63947496D01*
%TO.C,L-SW18*%
X74610000Y-71127496D02*
X74610000Y-70227496D01*
X74610000Y-71127496D02*
X72910000Y-71127496D01*
X74610000Y-66427496D02*
X74610000Y-67377496D01*
X74610000Y-66427496D02*
X72910000Y-66427496D01*
X62410000Y-70077496D02*
X64410000Y-70077496D01*
X62410000Y-70077496D02*
X62410000Y-69127496D01*
X62410000Y-65377496D02*
X64410000Y-65377496D01*
X62410000Y-65377496D02*
X62410000Y-66327496D01*
%TO.C,L-SW17*%
X55560000Y-75887496D02*
X55560000Y-74987496D01*
X55560000Y-75887496D02*
X53860000Y-75887496D01*
X55560000Y-71187496D02*
X55560000Y-72137496D01*
X55560000Y-71187496D02*
X53860000Y-71187496D01*
X43360000Y-74837496D02*
X45360000Y-74837496D01*
X43360000Y-74837496D02*
X43360000Y-73887496D01*
X43360000Y-70137496D02*
X45360000Y-70137496D01*
X43360000Y-70137496D02*
X43360000Y-71087496D01*
%TO.C,L-SW16*%
X36520000Y-75877496D02*
X36520000Y-74977496D01*
X36520000Y-75877496D02*
X34820000Y-75877496D01*
X36520000Y-71177496D02*
X36520000Y-72127496D01*
X36520000Y-71177496D02*
X34820000Y-71177496D01*
X24320000Y-74827496D02*
X26320000Y-74827496D01*
X24320000Y-74827496D02*
X24320000Y-73877496D01*
X24320000Y-70127496D02*
X26320000Y-70127496D01*
X24320000Y-70127496D02*
X24320000Y-71077496D01*
%TO.C,L-SW14*%
X150820000Y-63997496D02*
X150820000Y-63097496D01*
X150820000Y-63997496D02*
X149120000Y-63997496D01*
X150820000Y-59297496D02*
X150820000Y-60247496D01*
X150820000Y-59297496D02*
X149120000Y-59297496D01*
X138620000Y-62947496D02*
X140620000Y-62947496D01*
X138620000Y-62947496D02*
X138620000Y-61997496D01*
X138620000Y-58247496D02*
X140620000Y-58247496D01*
X138620000Y-58247496D02*
X138620000Y-59197496D01*
%TO.C,L-SW13*%
X131760000Y-54477496D02*
X131760000Y-53577496D01*
X131760000Y-54477496D02*
X130060000Y-54477496D01*
X131760000Y-49777496D02*
X131760000Y-50727496D01*
X131760000Y-49777496D02*
X130060000Y-49777496D01*
X119560000Y-53427496D02*
X121560000Y-53427496D01*
X119560000Y-53427496D02*
X119560000Y-52477496D01*
X119560000Y-48727496D02*
X121560000Y-48727496D01*
X119560000Y-48727496D02*
X119560000Y-49677496D01*
%TO.C,L-SW12*%
X112710000Y-52077496D02*
X112710000Y-51177496D01*
X112710000Y-52077496D02*
X111010000Y-52077496D01*
X112710000Y-47377496D02*
X112710000Y-48327496D01*
X112710000Y-47377496D02*
X111010000Y-47377496D01*
X100510000Y-51027496D02*
X102510000Y-51027496D01*
X100510000Y-51027496D02*
X100510000Y-50077496D01*
X100510000Y-46327496D02*
X102510000Y-46327496D01*
X100510000Y-46327496D02*
X100510000Y-47277496D01*
%TO.C,L-SW11*%
X93670000Y-49717496D02*
X93670000Y-48817496D01*
X93670000Y-49717496D02*
X91970000Y-49717496D01*
X93670000Y-45017496D02*
X93670000Y-45967496D01*
X93670000Y-45017496D02*
X91970000Y-45017496D01*
X81470000Y-48667496D02*
X83470000Y-48667496D01*
X81470000Y-48667496D02*
X81470000Y-47717496D01*
X81470000Y-43967496D02*
X83470000Y-43967496D01*
X81470000Y-43967496D02*
X81470000Y-44917496D01*
%TO.C,L-SW10*%
X74610000Y-52077496D02*
X74610000Y-51177496D01*
X74610000Y-52077496D02*
X72910000Y-52077496D01*
X74610000Y-47377496D02*
X74610000Y-48327496D01*
X74610000Y-47377496D02*
X72910000Y-47377496D01*
X62410000Y-51027496D02*
X64410000Y-51027496D01*
X62410000Y-51027496D02*
X62410000Y-50077496D01*
X62410000Y-46327496D02*
X64410000Y-46327496D01*
X62410000Y-46327496D02*
X62410000Y-47277496D01*
%TO.C,L-SW9*%
X55560000Y-56837496D02*
X55560000Y-55937496D01*
X55560000Y-56837496D02*
X53860000Y-56837496D01*
X55560000Y-52137496D02*
X55560000Y-53087496D01*
X55560000Y-52137496D02*
X53860000Y-52137496D01*
X43360000Y-55787496D02*
X45360000Y-55787496D01*
X43360000Y-55787496D02*
X43360000Y-54837496D01*
X43360000Y-51087496D02*
X45360000Y-51087496D01*
X43360000Y-51087496D02*
X43360000Y-52037496D01*
%TO.C,L-SW8*%
X36520000Y-56837496D02*
X36520000Y-55937496D01*
X36520000Y-56837496D02*
X34820000Y-56837496D01*
X36520000Y-52137496D02*
X36520000Y-53087496D01*
X36520000Y-52137496D02*
X34820000Y-52137496D01*
X24320000Y-55787496D02*
X26320000Y-55787496D01*
X24320000Y-55787496D02*
X24320000Y-54837496D01*
X24320000Y-51087496D02*
X26320000Y-51087496D01*
X24320000Y-51087496D02*
X24320000Y-52037496D01*
%TO.C,L-SW6*%
X150810000Y-44947496D02*
X150810000Y-44047496D01*
X150810000Y-44947496D02*
X149110000Y-44947496D01*
X150810000Y-40247496D02*
X150810000Y-41197496D01*
X150810000Y-40247496D02*
X149110000Y-40247496D01*
X138610000Y-43897496D02*
X140610000Y-43897496D01*
X138610000Y-43897496D02*
X138610000Y-42947496D01*
X138610000Y-39197496D02*
X140610000Y-39197496D01*
X138610000Y-39197496D02*
X138610000Y-40147496D01*
%TO.C,L-SW5*%
X131760000Y-35427496D02*
X131760000Y-34527496D01*
X131760000Y-35427496D02*
X130060000Y-35427496D01*
X131760000Y-30727496D02*
X131760000Y-31677496D01*
X131760000Y-30727496D02*
X130060000Y-30727496D01*
X119560000Y-34377496D02*
X121560000Y-34377496D01*
X119560000Y-34377496D02*
X119560000Y-33427496D01*
X119560000Y-29677496D02*
X121560000Y-29677496D01*
X119560000Y-29677496D02*
X119560000Y-30627496D01*
%TO.C,L-SW4*%
X112720000Y-33027496D02*
X112720000Y-32127496D01*
X112720000Y-33027496D02*
X111020000Y-33027496D01*
X112720000Y-28327496D02*
X112720000Y-29277496D01*
X112720000Y-28327496D02*
X111020000Y-28327496D01*
X100520000Y-31977496D02*
X102520000Y-31977496D01*
X100520000Y-31977496D02*
X100520000Y-31027496D01*
X100520000Y-27277496D02*
X102520000Y-27277496D01*
X100520000Y-27277496D02*
X100520000Y-28227496D01*
%TO.C,L-SW3*%
X93660000Y-30667496D02*
X93660000Y-29767496D01*
X93660000Y-30667496D02*
X91960000Y-30667496D01*
X93660000Y-25967496D02*
X93660000Y-26917496D01*
X93660000Y-25967496D02*
X91960000Y-25967496D01*
X81460000Y-29617496D02*
X83460000Y-29617496D01*
X81460000Y-29617496D02*
X81460000Y-28667496D01*
X81460000Y-24917496D02*
X83460000Y-24917496D01*
X81460000Y-24917496D02*
X81460000Y-25867496D01*
%TO.C,L-SW2*%
X74620000Y-33027496D02*
X74620000Y-32127496D01*
X74620000Y-33027496D02*
X72920000Y-33027496D01*
X74620000Y-28327496D02*
X74620000Y-29277496D01*
X74620000Y-28327496D02*
X72920000Y-28327496D01*
X62420000Y-31977496D02*
X64420000Y-31977496D01*
X62420000Y-31977496D02*
X62420000Y-31027496D01*
X62420000Y-27277496D02*
X64420000Y-27277496D01*
X62420000Y-27277496D02*
X62420000Y-28227496D01*
%TO.C,L-SW1*%
X55560000Y-37787496D02*
X55560000Y-36887496D01*
X55560000Y-37787496D02*
X53860000Y-37787496D01*
X55560000Y-33087496D02*
X55560000Y-34037496D01*
X55560000Y-33087496D02*
X53860000Y-33087496D01*
X43360000Y-36737496D02*
X45360000Y-36737496D01*
X43360000Y-36737496D02*
X43360000Y-35787496D01*
X43360000Y-32037496D02*
X45360000Y-32037496D01*
X43360000Y-32037496D02*
X43360000Y-32987496D01*
%TO.C,L-SW0*%
X36510000Y-37787496D02*
X36510000Y-36887496D01*
X36510000Y-37787496D02*
X34810000Y-37787496D01*
X36510000Y-33087496D02*
X36510000Y-34037496D01*
X36510000Y-33087496D02*
X34810000Y-33087496D01*
X24310000Y-36737496D02*
X26310000Y-36737496D01*
X24310000Y-36737496D02*
X24310000Y-35787496D01*
X24310000Y-32037496D02*
X26310000Y-32037496D01*
X24310000Y-32037496D02*
X24310000Y-32987496D01*
%TO.C,L-LED-JP1*%
X161064000Y-61853496D02*
X160764000Y-61553496D01*
X160764000Y-61553496D02*
X161364000Y-61553496D01*
X160314000Y-62053496D02*
X160314000Y-64053496D01*
X160314000Y-64053496D02*
X164414000Y-64053496D01*
X164414000Y-62053496D02*
X160314000Y-62053496D01*
X164414000Y-64053496D02*
X164414000Y-62053496D01*
X161064000Y-61853496D02*
X161364000Y-61553496D01*
%TO.C,L-BATT-CONN1*%
X115670000Y-45362496D02*
X115670000Y-47962496D01*
X118330000Y-42762496D02*
X117000000Y-42762496D01*
X118330000Y-45362496D02*
X115670000Y-45362496D01*
X118330000Y-45362496D02*
X118330000Y-47962496D01*
X118330000Y-47962496D02*
X115670000Y-47962496D01*
X118330000Y-44092496D02*
X118330000Y-42762496D01*
%TD*%
M02*
