M48
; DRILL file {KiCad 7.0.8} date Sat Feb 24 01:54:33 2024
; FORMAT={-:-/ absolute / inch / decimal}
; #@! TF.CreationDate,2024-02-24T01:54:33-05:00
; #@! TF.GenerationSoftware,Kicad,Pcbnew,7.0.8
; #@! TF.FileFunction,NonPlated,1,2,NPTH
FMAT,2
INCH
; #@! TA.AperFunction,NonPlated,NPTH,ComponentDrill
T1C0.0197
; #@! TA.AperFunction,NonPlated,NPTH,ComponentDrill
T2C0.0591
; #@! TA.AperFunction,NonPlated,NPTH,ComponentDrill
T3C0.0787
; #@! TA.AperFunction,NonPlated,NPTH,ComponentDrill
T4C0.0866
%
G90
G05
T1
X0.5949Y-0.1909
X0.5953Y-10.4946
X0.6264Y-0.1909
X0.6268Y-10.4946
X0.6579Y-0.1909
X0.6583Y-10.4946
X0.9578Y-6.4558
X0.9578Y-6.4873
X0.9578Y-6.5188
X0.9578Y-10.0251
X0.9578Y-10.0566
X0.9578Y-10.0881
X0.9578Y-0.5862
X0.9578Y-0.6177
X0.9578Y-0.6492
X0.9578Y-4.1555
X0.9578Y-4.187
X0.9578Y-4.2185
X0.9964Y-5.2026
X1.0122Y-5.1753
X1.0279Y-5.148
X1.8114Y-5.9289
X1.8429Y-5.9289
X1.8744Y-5.9289
X3.192Y-6.3889
X3.2235Y-6.3889
X3.255Y-6.3889
X3.5464Y-4.2854
X3.5779Y-4.2854
X3.6094Y-4.2854
X3.926Y-5.9277
X3.9575Y-5.9277
X3.989Y-5.9277
X4.6319Y-5.0891
X4.6319Y-5.1206
X4.6319Y-5.1521
X5.5739Y-8.1609
X5.5739Y-8.1924
X5.5739Y-8.2239
X6.2267Y-2.4492
X6.2267Y-2.4807
X6.2267Y-2.5122
X7.2197Y-10.4944
X7.2205Y-0.1909
X7.2512Y-10.4944
X7.252Y-0.1909
X7.2827Y-10.4944
X7.2835Y-0.1909
T2
X2.2038Y-5.6924
X2.4077Y-5.488
T3
X0.6028Y-0.0008
X0.6028Y-10.6849
X7.2748Y-10.6849
X7.2752Y-0.0008
T4
X1.0546Y-5.3317
X1.3128Y-5.762
X1.3408Y-3.5273
X1.3423Y-7.1484
X1.716Y-1.2773
X1.7171Y-9.3984
X2.5877Y-5.3317
X3.1688Y-5.329
X3.216Y-1.7942
X3.2171Y-8.8815
X3.3979Y-4.1288
X3.399Y-6.5457
X3.4271Y-5.7597
X4.3522Y-7.1539
X4.3522Y-3.5206
X4.7023Y-5.329
X5.1577Y-3.541
X5.1589Y-7.1331
X5.466Y-0.8304
X5.4671Y-9.8457
X5.7561Y-6.211
X5.7562Y-4.5849
X6.3782Y-1.8454
X6.3782Y-3.3773
X6.3797Y-7.2984
X6.3797Y-8.8303
X6.8105Y-7.5539
X6.8105Y-3.1206
T0
M30
