M48
; DRILL file {KiCad 7.0.8} date Sat Feb 17 13:20:45 2024
; FORMAT={-:-/ absolute / inch / decimal}
; #@! TF.CreationDate,2024-02-17T13:20:45-05:00
; #@! TF.GenerationSoftware,Kicad,Pcbnew,7.0.8
; #@! TF.FileFunction,Plated,1,2,PTH
FMAT,2
INCH
; #@! TA.AperFunction,Plated,PTH,ViaDrill
T1C0.0157
; #@! TA.AperFunction,Plated,PTH,ComponentDrill
T2C0.0350
; #@! TA.AperFunction,Plated,PTH,ComponentDrill
T3C0.0394
; #@! TA.AperFunction,Plated,PTH,ComponentDrill
T4C0.0430
; #@! TA.AperFunction,Plated,PTH,ComponentDrill
T5C0.0591
; #@! TA.AperFunction,Plated,PTH,ComponentDrill
T6C0.1181
%
G90
G05
T1
X0.888Y-1.4357
X0.888Y-2.0263
X0.889Y-2.7704
X0.9106Y-3.5184
X0.9122Y-8.4203
X0.9146Y-4.2743
X0.9421Y-1.2782
X0.9421Y-2.4373
X0.9421Y-2.9318
X0.9736Y-1.0101
X0.9929Y-3.2298
X1.0248Y-2.3806
X1.0248Y-2.4908
X1.0283Y-3.842
X1.0413Y-3.4818
X1.0563Y-7.6821
X1.1079Y-6.467
X1.1839Y-8.3471
X1.1984Y-7.4349
X1.2102Y-9.2947
X1.2551Y-6.9447
X1.3365Y-6.7401
X1.3398Y-3.2901
X1.3992Y-7.7939
X1.4146Y-1.7546
X1.4303Y-3.1798
X1.4441Y-2.5952
X1.4665Y-7.1621
X1.489Y-7.7624
X1.4913Y-3.0991
X1.5031Y-2.3349
X1.5094Y-9.0349
X1.5209Y-10.0042
X1.5406Y-2.4751
X1.5488Y-6.7821
X1.5976Y-8.8014
X1.6071Y-7.5699
X1.6122Y-5.9487
X1.6291Y-3.2188
X1.6524Y-5.9495
X1.6579Y-7.7191
X1.6673Y-6.3762
X1.6835Y-1.4274
X1.6835Y-2.0274
X1.6835Y-2.7774
X1.6835Y-3.5274
X1.6835Y-4.2774
X1.6862Y-1.2782
X1.7689Y-1.6838
X1.7748Y-7.1475
X1.7945Y-1.1499
X1.8232Y-9.2786
X1.8346Y-8.94
X1.865Y-9.6018
X1.8697Y-7.2861
X1.8756Y-6.0034
X1.9067Y-1.4397
X2.0571Y-5.8892
X2.0799Y-8.4754
X2.1134Y-9.2778
X2.1768Y-9.068
X2.1835Y-9.629
X2.2075Y-6.0042
X2.2449Y-5.8254
X2.2862Y-9.0514
X2.3112Y-6.9164
X2.4091Y-5.7187
X2.4126Y-0.7507
X2.4142Y-0.8582
X2.4173Y-6.7585
X2.4173Y-7.5128
X2.4173Y-8.2636
X2.4224Y-6.1802
X2.4224Y-6.5298
X2.4235Y-1.2424
X2.4235Y-1.8424
X2.4235Y-2.5924
X2.4235Y-3.3424
X2.4235Y-4.0924
X2.465Y-5.7947
X2.4882Y-6.2711
X2.5063Y-6.7156
X2.5075Y-1.4495
X2.5098Y-9.2325
X2.5177Y-5.8018
X2.5528Y-0.9475
X2.6461Y-7.0191
X2.6626Y-6.9522
X2.6685Y-8.8841
X2.6764Y-6.0766
X2.6764Y-6.2873
X2.6862Y-7.0904
X2.7083Y-6.9522
X2.7728Y-2.8873
X2.8508Y-9.2128
X2.9059Y-5.8888
X2.9295Y-1.7247
X2.9969Y-2.4672
X3.0756Y-5.7002
X3.1106Y-7.0904
X3.1106Y-7.9896
X3.1232Y-0.6208
X3.1264Y-1.666
X3.1354Y-5.8999
X3.1587Y-0.916
X3.1635Y-1.1474
X3.1635Y-1.7474
X3.1635Y-2.4974
X3.1635Y-3.2474
X3.1661Y-8.1743
X3.1677Y-6.2947
X3.1677Y-6.3361
X3.1823Y-0.7113
X3.1902Y-1.5145
X3.1902Y-1.5617
X3.1902Y-1.6168
X3.1902Y-1.7153
X3.1902Y-1.8964
X3.1965Y-6.1766
X3.1965Y-7.3975
X3.1969Y-6.8384
X3.223Y-6.2947
X3.224Y-6.3365
X3.2366Y-5.5837
X3.2571Y-0.6259
X3.261Y-1.1956
X3.2689Y-0.7113
X3.2874Y-6.3825
X3.3122Y-1.4633
X3.3555Y-2.0656
X3.3736Y-3.9405
X3.3935Y-4.1674
X3.4323Y-6.9967
X3.4502Y-3.5468
X3.4685Y-2.0656
X3.6031Y-9.1691
X3.6543Y-6.4172
X3.6547Y-0.8452
X3.6705Y-2.3058
X3.6709Y-8.7947
X3.6843Y-5.6443
X3.687Y-5.7432
X3.7071Y-6.3191
X3.7382Y-5.4022
X3.761Y-1.2113
X3.7886Y-2.3058
X3.8004Y-1.983
X3.8085Y-5.4287
X3.8185Y-8.0239
X3.8594Y-0.9987
X3.8752Y-9.2211
X3.8791Y-1.6995
X3.8811Y-1.4767
X3.8835Y-6.3073
X3.8839Y-6.4065
X3.9135Y-1.2424
X3.9146Y-1.8412
X3.9146Y-2.5932
X3.9146Y-3.3412
X3.9165Y-7.3258
X3.9169Y-5.9983
X3.9169Y-6.5845
X3.9169Y-8.831
X3.9173Y-8.0813
X3.9421Y-1.4987
X3.9421Y-1.6995
X3.9421Y-1.9908
X3.9437Y-6.3073
X3.9437Y-6.4065
X3.9437Y-6.5565
X3.9445Y-6.4573
X3.9469Y-2.1479
X3.95Y-6.7373
X3.9528Y-6.2443
X3.9594Y-6.8164
X3.9614Y-1.3499
X4.0079Y-2.9763
X4.022Y-1.5019
X4.0713Y-7.8951
X4.126Y-8.4369
X4.1626Y-2.1483
X4.2098Y-4.3294
X4.3587Y-1.6133
X4.4031Y-5.4294
X4.4067Y-5.5514
X4.4228Y-5.8081
X4.4291Y-1.7578
X4.4291Y-6.3022
X4.4339Y-6.0735
X4.4339Y-7.0967
X4.478Y-5.6231
X4.5012Y-6.1396
X4.5051Y-2.1168
X4.5091Y-3.6483
X4.5445Y-2.0735
X4.5642Y-1.6129
X4.5823Y-2.5369
X4.5878Y-2.0105
X4.6154Y-4.2743
X4.635Y-6.44
X4.639Y-7.014
X4.6661Y-6.6731
X4.6665Y-1.3373
X4.6665Y-2.6838
X4.6665Y-3.4357
X4.6665Y-6.088
X4.6669Y-8.1727
X4.6673Y-7.4227
X4.6673Y-8.9254
X4.6941Y-2.0932
X4.6945Y-6.4195
X4.6972Y-7.014
X4.8087Y-6.3262
X4.8126Y-6.5896
X4.8764Y-5.4817
X4.9362Y-6.7526
X4.9736Y-3.0381
X5.1445Y-1.6527
X5.1705Y-3.0932
X5.1705Y-3.2074
X5.1756Y-1.0826
X5.1803Y-1.8334
X5.2551Y-7.014
X5.2965Y-3.6838
X5.3004Y-2.9318
X5.3114Y-0.9
X5.3567Y-8.2707
X5.3579Y-6.355
X5.3594Y-2.9908
X5.3614Y-6.64
X5.3614Y-7.1239
X5.3622Y-9.0223
X5.3634Y-3.7507
X5.3748Y-1.7542
X5.3961Y-2.4881
X5.4146Y-1.7113
X5.4169Y-6.8656
X5.4169Y-8.3628
X5.4173Y-6.2699
X5.4173Y-7.6144
X5.4173Y-9.1211
X5.4197Y-5.6963
X5.4303Y-2.0578
X5.4303Y-2.1601
X5.4303Y-2.3097
X5.4303Y-3.0578
X5.4303Y-3.7979
X5.4382Y-3.4712
X5.4614Y-2.5149
X5.4697Y-3.5735
X5.4713Y-1.4869
X5.4811Y-1.233
X5.4965Y-2.6649
X5.4965Y-2.7743
X5.5004Y-6.3164
X5.501Y-7.056
X5.5031Y-1.1424
X5.5406Y-4.8845
X5.5486Y-6.7439
X5.5512Y-8.7369
X5.5598Y-6.014
X5.5602Y-1.0853
X5.576Y-2.5223
X5.5835Y-5.6963
X5.6232Y-3.6483
X5.6665Y-2.5223
X5.7236Y-6.3707
X5.8398Y-3.8649
X5.9028Y-3.5696
X5.9106Y-4.2349
X5.9303Y-2.7192
X5.9343Y-4.6365
X5.9894Y-1.4153
X5.9972Y-6.0691
X6.011Y-5.8333
X6.0197Y-7.2282
X6.0354Y-1.2019
X6.0642Y-2.5184
X6.076Y-6.2353
X6.0933Y-8.155
X6.1067Y-5.6936
X6.1083Y-1.6901
X6.1134Y-7.814
X6.1272Y-4.5263
X6.1559Y-7.6097
X6.1614Y-1.6897
X6.1626Y-2.5184
X6.1669Y-6.2754
X6.1732Y-6.864
X6.1732Y-8.3628
X6.1736Y-9.1184
X6.2059Y-4.7271
X6.213Y-8.0687
X6.2299Y-6.7168
X6.2374Y-1.7034
X6.274Y-7.9715
X6.2811Y-7.1495
X6.2811Y-8.777
X6.2835Y-2.4824
X6.285Y-6.377
X6.2906Y-7.277
X6.2917Y-7.4837
X6.3303Y-5.9136
X6.3516Y-2.3019
X6.4039Y-6.3778
X6.4264Y-2.0381
X6.4354Y-6.1428
X6.4435Y-2.5524
X6.4461Y-2.4024
X6.4985Y-2.4824
X6.5327Y-3.8649
X6.6232Y-2.6601
X6.6272Y-4.2113
X6.6547Y-1.3531
X6.6705Y-8.7766
X6.6744Y-4.2546
X6.6791Y-7.9561
X6.7256Y-2.0893
X6.7768Y-2.446
X6.7768Y-2.5416
T2
X1.0752Y-8.4121
X1.0752Y-8.5121
X1.0752Y-8.6121
X1.1027Y-7.1567
X1.1027Y-7.2567
X1.1027Y-7.3567
X6.6142Y-3.6034
X6.6142Y-3.7034
X6.6142Y-3.8034
X6.6142Y-2.3163
X6.6142Y-2.4163
X6.6142Y-2.5163
T3
X0.911Y-6.6743
X0.9114Y-6.9306
X0.927Y-5.4656
X0.9571Y-6.1924
X0.9571Y-6.3892
X0.9605Y-4.7156
X1.027Y-5.4656
X1.0605Y-4.7156
X1.1079Y-6.6743
X1.1083Y-6.9306
X1.127Y-5.4656
X1.1605Y-4.7156
X1.227Y-5.4656
X1.2605Y-4.7156
X1.327Y-5.4656
X1.3605Y-4.7156
X1.427Y-5.4656
X1.4605Y-4.7156
X1.527Y-5.4656
X1.528Y-6.1924
X1.528Y-6.2908
X1.528Y-6.3892
X1.5605Y-4.7156
X1.627Y-5.4656
X1.6605Y-4.7156
X1.727Y-5.4656
X1.7605Y-4.7156
X1.827Y-5.4656
X1.8605Y-4.7156
X1.927Y-5.4656
X1.9605Y-4.7156
X2.027Y-5.4656
X2.0605Y-4.7156
X2.0896Y-5.7675
X2.2797Y-5.7165
X3.0724Y-0.7164
X3.0724Y-0.8164
X3.0724Y-0.9164
X3.0724Y-1.0164
X3.0724Y-1.1164
X3.0724Y-1.2164
X3.0724Y-1.3164
X3.0724Y-1.4164
X3.0724Y-1.5164
X3.0724Y-1.6164
X3.0724Y-1.7164
X3.0724Y-1.8164
X3.111Y-6.5687
X3.111Y-6.6687
X3.8224Y-0.7499
X3.8224Y-0.8499
X3.8224Y-0.9499
X3.8224Y-1.0499
X3.8224Y-1.1499
X3.8224Y-1.2499
X3.8224Y-1.3499
X3.8224Y-1.4499
X3.8224Y-1.5499
X3.8224Y-1.6499
X3.8224Y-1.7499
X3.8224Y-1.8499
X3.8228Y-5.5565
X3.8228Y-5.6565
X3.8228Y-5.7565
X3.8228Y-5.8565
X3.8228Y-5.9565
X3.8228Y-6.0565
X3.8228Y-6.1565
X3.8228Y-6.2565
X3.8228Y-6.3565
X3.8228Y-6.4565
X3.8228Y-6.5565
X3.8228Y-6.6565
X4.5728Y-5.59
X4.5728Y-5.69
X4.5728Y-5.79
X4.5728Y-5.89
X4.5728Y-5.99
X4.5728Y-6.09
X4.5728Y-6.19
X4.5728Y-6.29
X4.5728Y-6.39
X4.5728Y-6.49
X4.5728Y-6.59
X4.5728Y-6.69
X4.6063Y-1.7359
X4.6063Y-1.8359
X5.4374Y-0.8762
X5.6275Y-0.9272
X5.6567Y-10.2843
X5.6898Y-9.5343
X5.7567Y-10.2843
X5.7898Y-9.5343
X5.8567Y-10.2843
X5.8898Y-9.5343
X5.9567Y-10.2843
X5.9898Y-9.5343
X6.0567Y-10.2843
X6.0898Y-9.5343
X6.1567Y-10.2843
X6.189Y-1.3523
X6.189Y-1.4507
X6.189Y-1.5491
X6.189Y-2.8523
X6.189Y-2.9507
X6.189Y-3.0491
X6.1898Y-9.5343
X6.2567Y-10.2843
X6.2898Y-9.5343
X6.3567Y-10.2843
X6.3898Y-9.5343
X6.4567Y-10.2843
X6.4898Y-9.5343
X6.5567Y-10.2843
X6.5898Y-9.5343
X6.6087Y-2.0905
X6.6091Y-1.8342
X6.6567Y-10.2843
X6.6898Y-9.5343
X6.7567Y-10.2843
X6.7598Y-1.3523
X6.7598Y-1.5491
X6.7598Y-2.8523
X6.7598Y-3.0491
X6.7898Y-9.5343
X6.8055Y-2.0905
X6.8059Y-1.8342
T4
X0.9613Y-4.8246
X0.9613Y-5.4246
X1.0613Y-4.8246
X1.0613Y-5.4246
X1.1613Y-4.8246
X1.1613Y-5.1246
X1.1613Y-5.2246
X1.1613Y-5.3246
X1.1613Y-5.4246
X1.2613Y-4.8246
X1.2613Y-5.4246
X1.3613Y-4.8246
X1.3613Y-5.4246
X1.4613Y-4.8246
X1.4613Y-5.4246
X1.5613Y-4.8246
X1.5613Y-5.4246
X1.6613Y-4.8246
X1.6613Y-5.4246
X1.7613Y-4.8246
X1.7613Y-5.4246
X1.8613Y-4.8246
X1.8613Y-5.4246
X1.9613Y-4.8246
X1.9613Y-5.4246
X2.0613Y-4.8246
X2.0613Y-5.4246
X5.6567Y-9.5752
X5.6567Y-10.1752
X5.7567Y-9.5752
X5.7567Y-10.1752
X5.8567Y-9.5752
X5.8567Y-10.1752
X5.9567Y-9.5752
X5.9567Y-10.1752
X6.0567Y-9.5752
X6.0567Y-10.1752
X6.1567Y-9.5752
X6.1567Y-10.1752
X6.2567Y-9.5752
X6.2567Y-10.1752
X6.3567Y-9.5752
X6.3567Y-10.1752
X6.4567Y-9.5752
X6.4567Y-10.1752
X6.5567Y-9.5752
X6.5567Y-9.6752
X6.5567Y-9.7752
X6.5567Y-9.8752
X6.5567Y-10.1752
X6.6567Y-9.5752
X6.6567Y-10.1752
X6.7567Y-9.5752
X6.7567Y-10.1752
T6
X1.0594Y-1.3538
X1.0594Y-3.6038
X1.0594Y-4.3538
X1.0598Y-2.1038
X1.0598Y-2.8534
X1.3157Y-9.3566
X1.335Y-1.3952
X1.335Y-3.6452
X1.335Y-4.3952
X1.3354Y-2.1452
X1.3354Y-2.8948
X1.5751Y-9.2546
X1.6909Y-10.0066
X1.8094Y-1.3538
X1.8094Y-2.1038
X1.8094Y-2.8538
X1.8098Y-3.6038
X1.8098Y-4.3538
X1.8118Y-6.4758
X1.9503Y-9.9046
X1.9653Y-8.9814
X2.085Y-1.3952
X2.085Y-2.1452
X2.085Y-2.8952
X2.0854Y-3.6452
X2.0854Y-4.3952
X2.0874Y-6.5172
X2.2247Y-8.8794
X2.3409Y-9.6314
X2.5594Y-1.9164
X2.5594Y-2.6664
X2.5594Y-3.4164
X2.5594Y-4.1664
X2.5598Y-1.1664
X2.5614Y-6.101
X2.5618Y-6.851
X2.5618Y-7.6006
X2.5618Y-8.351
X2.6003Y-9.5294
X2.835Y-1.9578
X2.835Y-2.7078
X2.835Y-3.4578
X2.835Y-4.2078
X2.8354Y-1.2078
X2.837Y-6.1424
X2.8374Y-6.8924
X2.8374Y-7.642
X2.8374Y-8.3924
X2.9905Y-9.2566
X3.2499Y-9.1546
X3.3094Y-1.0735
X3.3094Y-2.5727
X3.3094Y-3.3235
X3.3098Y-1.8235
X3.3114Y-6.0065
X3.3118Y-6.7565
X3.3118Y-7.5065
X3.3118Y-8.2565
X3.585Y-1.1149
X3.585Y-2.6141
X3.585Y-3.3649
X3.5854Y-1.8649
X3.587Y-6.0479
X3.5874Y-6.7979
X3.5874Y-7.5479
X3.5874Y-8.2979
X3.6094Y-4.1664
X3.885Y-4.2078
X4.0594Y-1.9164
X4.0594Y-2.6664
X4.0594Y-3.4164
X4.0598Y-1.1664
X4.0614Y-6.6636
X4.0618Y-8.1636
X4.0618Y-8.914
X4.0622Y-5.9136
X4.0622Y-7.4128
X4.335Y-1.9578
X4.335Y-2.7078
X4.335Y-3.4578
X4.3354Y-1.2078
X4.337Y-6.705
X4.3374Y-8.205
X4.3374Y-8.9554
X4.3378Y-5.955
X4.3378Y-7.4542
X4.7516Y-4.4302
X4.8094Y-1.2609
X4.8094Y-2.0109
X4.8094Y-2.7605
X4.8094Y-3.5109
X4.811Y-6.0065
X4.8118Y-6.7565
X4.8118Y-8.2565
X4.8118Y-9.0065
X4.812Y-7.5065
X4.9696Y-4.6038
X5.085Y-1.3023
X5.085Y-2.0523
X5.085Y-2.8019
X5.085Y-3.5523
X5.0866Y-6.0479
X5.0874Y-6.7979
X5.0874Y-8.2979
X5.0874Y-9.0479
X5.0876Y-7.5479
X5.4523Y-3.968
X5.5594Y-1.6357
X5.5594Y-3.1357
X5.5598Y-2.3857
X5.5614Y-8.4439
X5.5614Y-9.1939
X5.5616Y-6.9439
X5.5618Y-6.1939
X5.5618Y-7.6939
X5.6703Y-4.1416
X5.7268Y-4.9932
X5.835Y-1.6771
X5.835Y-3.1771
X5.8354Y-2.4271
X5.837Y-8.4853
X5.837Y-9.2353
X5.8372Y-6.9853
X5.8374Y-6.2353
X5.8374Y-7.7353
X5.9448Y-5.1668
X6.1023Y-4.3432
X6.3114Y-6.9439
X6.3114Y-7.6936
X6.3116Y-6.1939
X6.3116Y-9.1939
X6.3118Y-8.4439
X6.3203Y-4.5168
X6.587Y-6.9853
X6.587Y-7.7349
X6.5872Y-6.2353
X6.5872Y-9.2353
X6.5874Y-8.4853
T5
G00X1.2583Y-6.0703
M15
G01X1.2071Y-6.0703
M16
G05
G00X1.2583Y-6.5113
M15
G01X1.2071Y-6.5113
M16
G05
G00X6.4587Y-1.2302
M15
G01X6.5098Y-1.2302
M16
G05
G00X6.4587Y-1.6712
M15
G01X6.5098Y-1.6712
M16
G05
G00X6.4587Y-2.7302
M15
G01X6.5098Y-2.7302
M16
G05
G00X6.4587Y-3.1712
M15
G01X6.5098Y-3.1712
M16
G05
T0
M30
