M48
; DRILL file {KiCad 7.0.8} date Sat Feb 17 13:20:45 2024
; FORMAT={-:-/ absolute / inch / decimal}
; #@! TF.CreationDate,2024-02-17T13:20:45-05:00
; #@! TF.GenerationSoftware,Kicad,Pcbnew,7.0.8
; #@! TF.FileFunction,NonPlated,1,2,NPTH
FMAT,2
INCH
; #@! TA.AperFunction,NonPlated,NPTH,ComponentDrill
T1C0.0197
; #@! TA.AperFunction,NonPlated,NPTH,ComponentDrill
T2C0.0787
; #@! TA.AperFunction,NonPlated,NPTH,ComponentDrill
T3C0.0866
; #@! TA.AperFunction,NonPlated,NPTH,ComponentDrill
T4C0.1260
; #@! TA.AperFunction,NonPlated,NPTH,ComponentDrill
T5C0.2067
%
G90
G05
T1
X0.6024Y-0.5051
X0.6028Y-10.3608
X0.6339Y-0.5051
X0.6343Y-10.3608
X0.6654Y-0.5051
X0.6657Y-10.3608
X0.8492Y-0.8528
X0.8492Y-0.8843
X0.8492Y-0.9157
X0.8492Y-4.422
X0.8492Y-4.4535
X0.8492Y-4.485
X0.8492Y-5.0591
X0.8492Y-5.0906
X0.8492Y-5.122
X0.8492Y-5.9744
X0.8492Y-6.0059
X0.8492Y-6.0374
X0.8492Y-8.8461
X0.8492Y-8.8776
X0.8492Y-8.9091
X2.1382Y-5.0587
X2.1382Y-5.0902
X2.1382Y-5.1217
X3.4354Y-4.5524
X3.4669Y-4.5524
X3.4984Y-4.5524
X4.5728Y-9.3925
X4.6043Y-9.3925
X4.6358Y-9.3925
X5.5787Y-9.8783
X5.5787Y-9.9098
X5.5787Y-9.9413
X6.8677Y-1.1343
X6.8677Y-1.1657
X6.8677Y-1.1972
X6.8677Y-4.0063
X6.8677Y-4.0378
X6.8677Y-4.0693
X6.8677Y-5.6925
X6.8677Y-5.724
X6.8677Y-5.7555
X6.8677Y-9.2626
X6.8677Y-9.2941
X6.8677Y-9.3256
X6.8677Y-9.878
X6.8677Y-9.9094
X6.8677Y-9.9409
X7.0512Y-10.3606
X7.0516Y-0.5051
X7.0827Y-10.3606
X7.0831Y-0.5051
X7.1142Y-10.3606
X7.1146Y-0.5051
T2
X0.6102Y-0.315
X0.6102Y-10.5512
X7.1063Y-0.315
X7.1063Y-10.5512
T3
X2.6675Y-8.6479
X3.1077Y-2.0601
X3.29Y-4.3952
X3.4742Y-8.627
X4.2427Y-3.7869
X4.427Y-9.2353
X4.6093Y-6.9002
X5.0494Y-3.8078
T4
X1.0163Y-8.227
X1.2329Y-3.7936
X1.4467Y-6.9518
X1.4467Y-8.4841
X1.6081Y-1.5432
X2.0715Y-9.5715
X2.3593Y-5.9369
X5.3577Y-1.0968
X5.6455Y-4.7314
X6.1089Y-6.3833
X6.2703Y-2.1117
X6.2703Y-3.644
X6.4841Y-8.6337
X6.7006Y-3.3869
T5
X1.2327Y-1.1688
X1.2327Y-3.4188
X1.2327Y-4.1688
X1.2331Y-1.9188
X1.2331Y-2.6684
X1.3732Y-9.1097
X1.7484Y-9.7597
X1.9827Y-1.1688
X1.9827Y-1.9188
X1.9827Y-2.6688
X1.9831Y-3.4188
X1.9831Y-4.1688
X1.985Y-6.2908
X2.0228Y-8.7345
X2.3984Y-9.3845
X2.7327Y-1.7314
X2.7327Y-2.4814
X2.7327Y-3.2314
X2.7327Y-3.9814
X2.7331Y-0.9814
X2.7346Y-5.916
X2.735Y-6.666
X2.735Y-7.4156
X2.735Y-8.166
X3.048Y-9.0097
X3.4827Y-0.8885
X3.4827Y-2.3877
X3.4827Y-3.1385
X3.4831Y-1.6385
X3.4846Y-5.8215
X3.485Y-6.5715
X3.485Y-7.3215
X3.485Y-8.0715
X3.7827Y-3.9814
X4.2327Y-1.7314
X4.2327Y-2.4814
X4.2327Y-3.2314
X4.2331Y-0.9814
X4.2346Y-6.4786
X4.235Y-7.9786
X4.235Y-8.729
X4.2354Y-5.7286
X4.2354Y-7.2278
X4.9827Y-1.0759
X4.9827Y-1.8259
X4.9827Y-2.5755
X4.9827Y-3.3259
X4.9843Y-5.8215
X4.985Y-6.5715
X4.985Y-8.0715
X4.985Y-8.8215
X4.9852Y-7.3215
X4.9941Y-4.3566
X5.6949Y-3.8944
X5.7327Y-1.4507
X5.7327Y-2.9507
X5.7331Y-2.2007
X5.7346Y-8.2589
X5.7346Y-9.0089
X5.7348Y-6.7589
X5.735Y-6.0089
X5.735Y-7.5089
X5.9693Y-4.9196
X6.3449Y-4.2696
X6.4846Y-6.7589
X6.4846Y-7.5085
X6.4848Y-6.0089
X6.4848Y-9.0089
X6.485Y-8.2589
T0
M30
