%TF.GenerationSoftware,KiCad,Pcbnew,7.0.8*%
%TF.CreationDate,2024-02-13T23:06:57-05:00*%
%TF.ProjectId,ergothwack,6572676f-7468-4776-9163-6b2e6b696361,rev?*%
%TF.SameCoordinates,Original*%
%TF.FileFunction,Soldermask,Top*%
%TF.FilePolarity,Negative*%
%FSLAX46Y46*%
G04 Gerber Fmt 4.6, Leading zero omitted, Abs format (unit mm)*
G04 Created by KiCad (PCBNEW 7.0.8) date 2024-02-13 23:06:57*
%MOMM*%
%LPD*%
G01*
G04 APERTURE LIST*
G04 Aperture macros list*
%AMRoundRect*
0 Rectangle with rounded corners*
0 $1 Rounding radius*
0 $2 $3 $4 $5 $6 $7 $8 $9 X,Y pos of 4 corners*
0 Add a 4 corners polygon primitive as box body*
4,1,4,$2,$3,$4,$5,$6,$7,$8,$9,$2,$3,0*
0 Add four circle primitives for the rounded corners*
1,1,$1+$1,$2,$3*
1,1,$1+$1,$4,$5*
1,1,$1+$1,$6,$7*
1,1,$1+$1,$8,$9*
0 Add four rect primitives between the rounded corners*
20,1,$1+$1,$2,$3,$4,$5,0*
20,1,$1+$1,$4,$5,$6,$7,0*
20,1,$1+$1,$6,$7,$8,$9,0*
20,1,$1+$1,$8,$9,$2,$3,0*%
%AMHorizOval*
0 Thick line with rounded ends*
0 $1 width*
0 $2 $3 position (X,Y) of the first rounded end (center of the circle)*
0 $4 $5 position (X,Y) of the second rounded end (center of the circle)*
0 Add line between two ends*
20,1,$1,$2,$3,$4,$5,0*
0 Add two circle primitives to create the rounded ends*
1,1,$1,$2,$3*
1,1,$1,$4,$5*%
%AMRotRect*
0 Rectangle, with rotation*
0 The origin of the aperture is its center*
0 $1 length*
0 $2 width*
0 $3 Rotation angle, in degrees counterclockwise*
0 Add horizontal line*
21,1,$1,$2,0,0,$3*%
G04 Aperture macros list end*
%ADD10C,1.600000*%
%ADD11RoundRect,0.400000X0.400000X0.400000X-0.400000X0.400000X-0.400000X-0.400000X0.400000X-0.400000X0*%
%ADD12R,1.700000X1.700000*%
%ADD13O,1.700000X1.700000*%
%ADD14RotRect,1.700000X1.700000X45.000000*%
%ADD15R,1.700000X1.000000*%
%ADD16R,1.500000X0.900000*%
%ADD17O,1.250000X2.000000*%
%ADD18C,5.250000*%
%ADD19R,2.000000X2.000000*%
%ADD20C,2.000000*%
%ADD21R,3.200000X2.000000*%
%ADD22C,1.752600*%
%ADD23R,1.000000X1.500000*%
%ADD24R,0.300000X1.000000*%
%ADD25R,0.300000X0.700000*%
%ADD26HorizOval,1.250000X-0.090721X-0.363861X0.090721X0.363861X0*%
%ADD27R,1.600000X1.600000*%
%ADD28O,1.600000X1.600000*%
G04 APERTURE END LIST*
D10*
%TO.C,L-SW-BATT1*%
X187470000Y-124740000D03*
X187470000Y-122200000D03*
D11*
X187470000Y-119660000D03*
%TD*%
D12*
%TO.C,L-n!n-L-Socket1*%
X116560000Y-47180000D03*
D13*
X116560000Y-49720000D03*
X116560000Y-52260000D03*
X116560000Y-54800000D03*
X116560000Y-57340000D03*
X116560000Y-59880000D03*
X116560000Y-62420000D03*
X116560000Y-64960000D03*
X116560000Y-67500000D03*
X116560000Y-70040000D03*
X116560000Y-72580000D03*
X116560000Y-75120000D03*
%TD*%
%TO.C,L-n!n-L-Adapter1*%
X35530000Y-48690000D03*
X35530000Y-46150000D03*
X35530000Y-43610000D03*
X35530000Y-41070000D03*
X35530000Y-38530000D03*
X35530000Y-35990000D03*
X35530000Y-33450000D03*
X35530000Y-30910000D03*
X35530000Y-28370000D03*
X35530000Y-25830000D03*
X35530000Y-23290000D03*
D14*
X35530000Y-20750000D03*
%TD*%
D12*
%TO.C,J4*%
X16480000Y-47840000D03*
D13*
X16480000Y-45300000D03*
X16480000Y-42760000D03*
X16480000Y-40220000D03*
X16480000Y-37680000D03*
X16480000Y-35140000D03*
X16480000Y-32600000D03*
X16480000Y-30060000D03*
X16480000Y-27520000D03*
X16480000Y-24980000D03*
X16480000Y-22440000D03*
X16480000Y-19900000D03*
%TD*%
%TO.C,J3*%
X97510000Y-46330000D03*
X97510000Y-48870000D03*
X97510000Y-51410000D03*
X97510000Y-53950000D03*
X97510000Y-56490000D03*
X97510000Y-59030000D03*
X97510000Y-61570000D03*
X97510000Y-64110000D03*
X97510000Y-66650000D03*
X97510000Y-69190000D03*
X97510000Y-71730000D03*
D12*
X97510000Y-74270000D03*
%TD*%
D15*
%TO.C,R-K-LED36*%
X299500000Y-256830000D03*
X299500000Y-258230000D03*
X294000000Y-258230000D03*
X294000000Y-256830000D03*
%TD*%
%TO.C,R-K-LED35*%
X299500000Y-252010000D03*
X299500000Y-253410000D03*
X294000000Y-253410000D03*
X294000000Y-252010000D03*
%TD*%
%TO.C,R-K-LED34*%
X299500000Y-247190000D03*
X299500000Y-248590000D03*
X294000000Y-248590000D03*
X294000000Y-247190000D03*
%TD*%
%TO.C,R-K-LED33*%
X299500000Y-242370000D03*
X299500000Y-243770000D03*
X294000000Y-243770000D03*
X294000000Y-242370000D03*
%TD*%
%TO.C,R-K-LED32*%
X299500000Y-237550000D03*
X299500000Y-238950000D03*
X294000000Y-238950000D03*
X294000000Y-237550000D03*
%TD*%
%TO.C,R-K-LED31*%
X299500000Y-232730000D03*
X299500000Y-234130000D03*
X294000000Y-234130000D03*
X294000000Y-232730000D03*
%TD*%
%TO.C,R-K-LED30*%
X299500000Y-227910000D03*
X299500000Y-229310000D03*
X294000000Y-229310000D03*
X294000000Y-227910000D03*
%TD*%
%TO.C,R-K-LED29*%
X299500000Y-223090000D03*
X299500000Y-224490000D03*
X294000000Y-224490000D03*
X294000000Y-223090000D03*
%TD*%
%TO.C,R-K-LED28*%
X299500000Y-218270000D03*
X299500000Y-219670000D03*
X294000000Y-219670000D03*
X294000000Y-218270000D03*
%TD*%
%TO.C,R-K-LED27*%
X290580000Y-271290000D03*
X290580000Y-272690000D03*
X285080000Y-272690000D03*
X285080000Y-271290000D03*
%TD*%
%TO.C,R-K-LED26*%
X290580000Y-266470000D03*
X290580000Y-267870000D03*
X285080000Y-267870000D03*
X285080000Y-266470000D03*
%TD*%
%TO.C,R-K-LED25*%
X290580000Y-261650000D03*
X290580000Y-263050000D03*
X285080000Y-263050000D03*
X285080000Y-261650000D03*
%TD*%
%TO.C,R-K-LED24*%
X290580000Y-256830000D03*
X290580000Y-258230000D03*
X285080000Y-258230000D03*
X285080000Y-256830000D03*
%TD*%
%TO.C,R-K-LED23*%
X290580000Y-252010000D03*
X290580000Y-253410000D03*
X285080000Y-253410000D03*
X285080000Y-252010000D03*
%TD*%
%TO.C,R-K-LED22*%
X290580000Y-247190000D03*
X290580000Y-248590000D03*
X285080000Y-248590000D03*
X285080000Y-247190000D03*
%TD*%
%TO.C,R-K-LED21*%
X290580000Y-242370000D03*
X290580000Y-243770000D03*
X285080000Y-243770000D03*
X285080000Y-242370000D03*
%TD*%
%TO.C,R-K-LED20*%
X290580000Y-237550000D03*
X290580000Y-238950000D03*
X285080000Y-238950000D03*
X285080000Y-237550000D03*
%TD*%
%TO.C,R-K-LED19*%
X290580000Y-232730000D03*
X290580000Y-234130000D03*
X285080000Y-234130000D03*
X285080000Y-232730000D03*
%TD*%
%TO.C,R-K-LED18*%
X290580000Y-227910000D03*
X290580000Y-229310000D03*
X285080000Y-229310000D03*
X285080000Y-227910000D03*
%TD*%
%TO.C,R-K-LED17*%
X290580000Y-223090000D03*
X290580000Y-224490000D03*
X285080000Y-224490000D03*
X285080000Y-223090000D03*
%TD*%
%TO.C,R-K-LED16*%
X290580000Y-218270000D03*
X290580000Y-219670000D03*
X285080000Y-219670000D03*
X285080000Y-218270000D03*
%TD*%
%TO.C,R-K-LED14*%
X281660000Y-271290000D03*
X281660000Y-272690000D03*
X276160000Y-272690000D03*
X276160000Y-271290000D03*
%TD*%
%TO.C,R-K-LED13*%
X281660000Y-266470000D03*
X281660000Y-267870000D03*
X276160000Y-267870000D03*
X276160000Y-266470000D03*
%TD*%
%TO.C,R-K-LED12*%
X281660000Y-261650000D03*
X281660000Y-263050000D03*
X276160000Y-263050000D03*
X276160000Y-261650000D03*
%TD*%
%TO.C,R-K-LED11*%
X281660000Y-256830000D03*
X281660000Y-258230000D03*
X276160000Y-258230000D03*
X276160000Y-256830000D03*
%TD*%
%TO.C,R-K-LED10*%
X281660000Y-252010000D03*
X281660000Y-253410000D03*
X276160000Y-253410000D03*
X276160000Y-252010000D03*
%TD*%
%TO.C,R-K-LED9*%
X281660000Y-247190000D03*
X281660000Y-248590000D03*
X276160000Y-248590000D03*
X276160000Y-247190000D03*
%TD*%
%TO.C,R-K-LED7*%
X281660000Y-242370000D03*
X281660000Y-243770000D03*
X276160000Y-243770000D03*
X276160000Y-242370000D03*
%TD*%
%TO.C,R-K-LED6*%
X281660000Y-237550000D03*
X281660000Y-238950000D03*
X276160000Y-238950000D03*
X276160000Y-237550000D03*
%TD*%
%TO.C,R-K-LED5*%
X281660000Y-232730000D03*
X281660000Y-234130000D03*
X276160000Y-234130000D03*
X276160000Y-232730000D03*
%TD*%
%TO.C,R-K-LED4*%
X281660000Y-227910000D03*
X281660000Y-229310000D03*
X276160000Y-229310000D03*
X276160000Y-227910000D03*
%TD*%
%TO.C,R-K-LED3*%
X281660000Y-223090000D03*
X281660000Y-224490000D03*
X276160000Y-224490000D03*
X276160000Y-223090000D03*
%TD*%
%TO.C,R-K-LED2*%
X281660000Y-218270000D03*
X281660000Y-219670000D03*
X276160000Y-219670000D03*
X276160000Y-218270000D03*
%TD*%
%TO.C,R-K-LED1*%
X269250000Y-249110000D03*
X269250000Y-250510000D03*
X263750000Y-250510000D03*
X263750000Y-249110000D03*
%TD*%
D16*
%TO.C,R-UG-LED6*%
X327700000Y-322630000D03*
X327700000Y-325930000D03*
X322800000Y-325930000D03*
X322800000Y-322630000D03*
%TD*%
%TO.C,R-UG-LED5*%
X327700000Y-316010000D03*
X327700000Y-319310000D03*
X322800000Y-319310000D03*
X322800000Y-316010000D03*
%TD*%
%TO.C,R-UG-LED4*%
X327700000Y-309390000D03*
X327700000Y-312690000D03*
X322800000Y-312690000D03*
X322800000Y-309390000D03*
%TD*%
%TO.C,R-UG-LED3*%
X327700000Y-302770000D03*
X327700000Y-306070000D03*
X322800000Y-306070000D03*
X322800000Y-302770000D03*
%TD*%
%TO.C,R-UG-LED2*%
X314310000Y-332580000D03*
X314310000Y-335880000D03*
X309410000Y-335880000D03*
X309410000Y-332580000D03*
%TD*%
%TO.C,R-UG-LED1*%
X314310000Y-325960000D03*
X314310000Y-329260000D03*
X309410000Y-329260000D03*
X309410000Y-325960000D03*
%TD*%
%TO.C,R-UG-LED0*%
X314310000Y-319340000D03*
X314310000Y-322640000D03*
X309410000Y-322640000D03*
X309410000Y-319340000D03*
%TD*%
D17*
%TO.C,R-TS-RST1*%
X294568000Y-213178400D03*
X299568000Y-213178400D03*
%TD*%
%TO.C,R-TS-LED-UP1*%
X294568000Y-205727600D03*
X299568000Y-205727600D03*
%TD*%
%TO.C,R-TS-LED-DOWN1*%
X294568000Y-198276800D03*
X299568000Y-198276800D03*
%TD*%
D18*
%TO.C,R-SW36*%
X405705000Y-289880000D03*
%TD*%
%TO.C,R-SW35*%
X405705000Y-272330000D03*
%TD*%
%TO.C,R-SW34*%
X405705000Y-254780000D03*
%TD*%
%TO.C,R-SW33*%
X405705000Y-237230000D03*
%TD*%
%TO.C,R-SW32*%
X405705000Y-219680000D03*
%TD*%
%TO.C,R-SW31*%
X405705000Y-202130000D03*
%TD*%
%TO.C,R-SW30*%
X405705000Y-184580000D03*
%TD*%
%TO.C,R-SW29*%
X405705000Y-167030000D03*
%TD*%
%TO.C,R-SW28*%
X405705000Y-149480000D03*
%TD*%
%TO.C,R-SW27*%
X387105000Y-307430000D03*
%TD*%
%TO.C,R-SW26*%
X387105000Y-289880000D03*
%TD*%
%TO.C,R-SW25*%
X387105000Y-272330000D03*
%TD*%
%TO.C,R-SW24*%
X387105000Y-254780000D03*
%TD*%
%TO.C,R-SW23*%
X387105000Y-237230000D03*
%TD*%
%TO.C,R-SW22*%
X387105000Y-219680000D03*
%TD*%
%TO.C,R-SW21*%
X387105000Y-202130000D03*
%TD*%
%TO.C,R-SW20*%
X387105000Y-184580000D03*
%TD*%
%TO.C,R-SW19*%
X387105000Y-167030000D03*
%TD*%
%TO.C,R-SW18*%
X387105000Y-149480000D03*
%TD*%
%TO.C,R-SW17*%
X368505000Y-307430000D03*
%TD*%
%TO.C,R-SW16*%
X368505000Y-289880000D03*
%TD*%
%TO.C,R-SW14*%
X368505000Y-272330000D03*
%TD*%
%TO.C,R-SW13*%
X368505000Y-254780000D03*
%TD*%
%TO.C,R-SW12*%
X368505000Y-237230000D03*
%TD*%
%TO.C,R-SW11*%
X368505000Y-219680000D03*
%TD*%
%TO.C,R-SW10*%
X368505000Y-202130000D03*
%TD*%
%TO.C,R-SW9*%
X368505000Y-184580000D03*
%TD*%
%TO.C,R-SW7*%
X368505000Y-167030000D03*
%TD*%
%TO.C,R-SW6*%
X368505000Y-149480000D03*
%TD*%
%TO.C,R-SW5*%
X341405000Y-359610000D03*
%TD*%
%TO.C,R-SW4*%
X341405000Y-342060000D03*
%TD*%
%TO.C,R-SW3*%
X341405000Y-324510000D03*
%TD*%
%TO.C,R-SW2*%
X341405000Y-306960000D03*
%TD*%
%TO.C,R-SW1*%
X341405000Y-289410000D03*
%TD*%
D11*
%TO.C,R-SW-LED1*%
X311930500Y-285895400D03*
D10*
X311930500Y-288435400D03*
X311930500Y-290975400D03*
%TD*%
D11*
%TO.C,R-SW-BATT1*%
X297910500Y-285765400D03*
D10*
X297910500Y-288305400D03*
X297910500Y-290845400D03*
%TD*%
D19*
%TO.C,R-RE0*%
X304560000Y-265520000D03*
D20*
X304560000Y-270520000D03*
X304560000Y-268020000D03*
D21*
X312060000Y-273620000D03*
X312060000Y-262420000D03*
D20*
X319060000Y-270520000D03*
X319060000Y-265520000D03*
%TD*%
D22*
%TO.C,R-n!n1*%
X294536750Y-370500000D03*
X297076750Y-370500000D03*
X299616750Y-370500000D03*
X302156750Y-370500000D03*
X304696750Y-370500000D03*
X307236750Y-370500000D03*
X309776750Y-370500000D03*
X312316750Y-370500000D03*
X314856750Y-370500000D03*
X317396750Y-370500000D03*
X319936750Y-370500000D03*
X322476750Y-370500000D03*
X322476750Y-355260000D03*
X319936750Y-355260000D03*
X317396750Y-355260000D03*
X314856750Y-355260000D03*
X312316750Y-355260000D03*
X309776750Y-355260000D03*
X307236750Y-355260000D03*
X304696750Y-355260000D03*
X302156750Y-355260000D03*
X299616750Y-355260000D03*
X297076750Y-355260000D03*
X294536750Y-355260000D03*
X317396750Y-367960000D03*
X317396750Y-365420000D03*
X317396750Y-362880000D03*
%TD*%
D23*
%TO.C,R-LED-JP1*%
X302468000Y-181644000D03*
X303768000Y-181644000D03*
X305068000Y-181644000D03*
%TD*%
%TO.C,R-CRQ-JP1*%
X302468000Y-177809000D03*
X303768000Y-177809000D03*
X305068000Y-177809000D03*
%TD*%
D24*
%TO.C,R-CRQ-CONN1*%
X294148000Y-278674000D03*
X301228000Y-278674000D03*
D25*
X294938000Y-276024000D03*
X295438000Y-276024000D03*
X295938000Y-276024000D03*
X296438000Y-276024000D03*
X296938000Y-276024000D03*
X297438000Y-276024000D03*
X297938000Y-276024000D03*
X298438000Y-276024000D03*
X298938000Y-276024000D03*
X299438000Y-276024000D03*
X299938000Y-276024000D03*
X300438000Y-276024000D03*
%TD*%
D12*
%TO.C,R-BATT-CONN1*%
X296700000Y-341145000D03*
D13*
X296700000Y-343685000D03*
%TD*%
D26*
%TO.C,L-TS-RST1*%
X162420000Y-51640000D03*
X157568522Y-50430390D03*
%TD*%
D17*
%TO.C,L-TS-LED-UP1*%
X187340000Y-74720000D03*
X192340000Y-74720000D03*
%TD*%
%TO.C,L-TS-LED-DOWN1*%
X187330000Y-81230000D03*
X192330000Y-81230000D03*
%TD*%
D18*
%TO.C,L-SW38*%
X180630000Y-136580000D03*
%TD*%
%TO.C,L-SW37*%
X171090000Y-153090000D03*
%TD*%
%TO.C,L-SW36*%
X146320000Y-138790000D03*
%TD*%
%TO.C,L-SW35*%
X115550000Y-129260000D03*
%TD*%
%TO.C,L-SW34*%
X88880000Y-129260000D03*
%TD*%
%TO.C,L-SW33*%
X69840000Y-134020000D03*
%TD*%
%TO.C,L-SW32*%
X50780000Y-134020000D03*
%TD*%
%TO.C,L-SW30*%
X164120000Y-127050000D03*
%TD*%
%TO.C,L-SW29*%
X146030000Y-112610000D03*
%TD*%
%TO.C,L-SW28*%
X126980000Y-110210000D03*
%TD*%
%TO.C,L-SW27*%
X107930000Y-107850000D03*
%TD*%
%TO.C,L-SW26*%
X88880000Y-110210000D03*
%TD*%
%TO.C,L-SW25*%
X69840000Y-114970000D03*
%TD*%
%TO.C,L-SW24*%
X50780000Y-114970000D03*
%TD*%
%TO.C,L-SW22*%
X165080000Y-103080000D03*
%TD*%
%TO.C,L-SW21*%
X146030000Y-93550000D03*
%TD*%
%TO.C,L-SW20*%
X126980000Y-91160000D03*
%TD*%
%TO.C,L-SW19*%
X107930000Y-88780000D03*
%TD*%
%TO.C,L-SW18*%
X88880000Y-91160000D03*
%TD*%
%TO.C,L-SW17*%
X69830000Y-95920000D03*
%TD*%
%TO.C,L-SW16*%
X50790000Y-95910000D03*
%TD*%
%TO.C,L-SW14*%
X165090000Y-84030000D03*
%TD*%
%TO.C,L-SW13*%
X146030000Y-74510000D03*
%TD*%
%TO.C,L-SW12*%
X126980000Y-72110000D03*
%TD*%
%TO.C,L-SW11*%
X107940000Y-69750000D03*
%TD*%
%TO.C,L-SW10*%
X88880000Y-72110000D03*
%TD*%
%TO.C,L-SW9*%
X69830000Y-76870000D03*
%TD*%
%TO.C,L-SW8*%
X50790000Y-76870000D03*
%TD*%
%TO.C,L-SW6*%
X165080000Y-64980000D03*
%TD*%
%TO.C,L-SW5*%
X146030000Y-55460000D03*
%TD*%
%TO.C,L-SW4*%
X126990000Y-53060000D03*
%TD*%
%TO.C,L-SW3*%
X107930000Y-50700000D03*
%TD*%
%TO.C,L-SW2*%
X88890000Y-53060000D03*
%TD*%
%TO.C,L-SW1*%
X69830000Y-57820000D03*
%TD*%
%TO.C,L-SW0*%
X50780000Y-57820000D03*
%TD*%
D11*
%TO.C,L-SW-LED1*%
X187470500Y-86965400D03*
D10*
X187470500Y-89505400D03*
X187470500Y-92045400D03*
%TD*%
D20*
%TO.C,L-RE1*%
X191170000Y-100580000D03*
X191170000Y-105580000D03*
D21*
X184170000Y-97480000D03*
X184170000Y-108680000D03*
D20*
X176670000Y-103080000D03*
X176670000Y-105580000D03*
D19*
X176670000Y-100580000D03*
%TD*%
D20*
%TO.C,L-RE0*%
X191170000Y-62480000D03*
X191170000Y-67480000D03*
D21*
X184170000Y-59380000D03*
X184170000Y-70580000D03*
D20*
X176670000Y-64980000D03*
X176670000Y-67480000D03*
D19*
X176670000Y-62480000D03*
%TD*%
D22*
%TO.C,L-n!n1*%
X26870000Y-42740000D03*
X29410000Y-42740000D03*
X31950000Y-42740000D03*
X19250000Y-19880000D03*
X19250000Y-22420000D03*
X19250000Y-24960000D03*
X19250000Y-27500000D03*
X19250000Y-30040000D03*
X19250000Y-32580000D03*
X19250000Y-35120000D03*
X19250000Y-37660000D03*
X19250000Y-40200000D03*
X19250000Y-42740000D03*
X19250000Y-45280000D03*
X19250000Y-47820000D03*
X34490000Y-47820000D03*
X34490000Y-45280000D03*
X34490000Y-42740000D03*
X34490000Y-40200000D03*
X34490000Y-37660000D03*
X34490000Y-35120000D03*
X34490000Y-32580000D03*
X34490000Y-30040000D03*
X34490000Y-27500000D03*
X34490000Y-24960000D03*
X34490000Y-22420000D03*
X34490000Y-19880000D03*
%TD*%
D12*
%TO.C,L-BATT-CONN1*%
X136470000Y-72225000D03*
D13*
X136470000Y-74765000D03*
%TD*%
D27*
%TO.C,R-D29*%
X338180000Y-210400000D03*
D28*
X345800000Y-210400000D03*
%TD*%
D27*
%TO.C,R-D21*%
X338180000Y-206850000D03*
D28*
X345800000Y-206850000D03*
%TD*%
D27*
%TO.C,R-D14*%
X338180000Y-203300000D03*
D28*
X345800000Y-203300000D03*
%TD*%
D27*
%TO.C,R-D7*%
X338180000Y-199750000D03*
D28*
X345800000Y-199750000D03*
%TD*%
D27*
%TO.C,R-D35*%
X338180000Y-196200000D03*
D28*
X345800000Y-196200000D03*
%TD*%
D27*
%TO.C,R-D28*%
X338180000Y-192650000D03*
D28*
X345800000Y-192650000D03*
%TD*%
D27*
%TO.C,R-D20*%
X338180000Y-189100000D03*
D28*
X345800000Y-189100000D03*
%TD*%
D27*
%TO.C,R-D13*%
X338180000Y-185550000D03*
D28*
X345800000Y-185550000D03*
%TD*%
D27*
%TO.C,R-D6*%
X338180000Y-182000000D03*
D28*
X345800000Y-182000000D03*
%TD*%
D27*
%TO.C,R-D34*%
X338180000Y-178450000D03*
D28*
X345800000Y-178450000D03*
%TD*%
D27*
%TO.C,R-D27*%
X338180000Y-174900000D03*
D28*
X345800000Y-174900000D03*
%TD*%
D27*
%TO.C,R-D19*%
X338180000Y-171350000D03*
D28*
X345800000Y-171350000D03*
%TD*%
D27*
%TO.C,R-D12*%
X327410000Y-224600000D03*
D28*
X335030000Y-224600000D03*
%TD*%
D27*
%TO.C,R-D5*%
X327410000Y-221050000D03*
D28*
X335030000Y-221050000D03*
%TD*%
D27*
%TO.C,R-D33*%
X327410000Y-217500000D03*
D28*
X335030000Y-217500000D03*
%TD*%
D27*
%TO.C,R-D26*%
X327410000Y-213950000D03*
D28*
X335030000Y-213950000D03*
%TD*%
D27*
%TO.C,R-D18*%
X327410000Y-210400000D03*
D28*
X335030000Y-210400000D03*
%TD*%
D27*
%TO.C,R-D11*%
X327410000Y-206850000D03*
D28*
X335030000Y-206850000D03*
%TD*%
D27*
%TO.C,R-D4*%
X327410000Y-203300000D03*
D28*
X335030000Y-203300000D03*
%TD*%
D27*
%TO.C,R-D25*%
X327410000Y-199750000D03*
D28*
X335030000Y-199750000D03*
%TD*%
D27*
%TO.C,R-D17*%
X327410000Y-196200000D03*
D28*
X335030000Y-196200000D03*
%TD*%
D27*
%TO.C,R-D10*%
X327410000Y-192650000D03*
D28*
X335030000Y-192650000D03*
%TD*%
D27*
%TO.C,R-D3*%
X327410000Y-189100000D03*
D28*
X335030000Y-189100000D03*
%TD*%
D27*
%TO.C,R-D32*%
X327410000Y-185550000D03*
D28*
X335030000Y-185550000D03*
%TD*%
D27*
%TO.C,R-D24*%
X327410000Y-182000000D03*
D28*
X335030000Y-182000000D03*
%TD*%
D27*
%TO.C,R-D16*%
X327410000Y-178450000D03*
D28*
X335030000Y-178450000D03*
%TD*%
D27*
%TO.C,R-D9*%
X327410000Y-174900000D03*
D28*
X335030000Y-174900000D03*
%TD*%
D27*
%TO.C,R-D2*%
X327410000Y-171350000D03*
D28*
X335030000Y-171350000D03*
%TD*%
D27*
%TO.C,R-D31*%
X316640000Y-224600000D03*
D28*
X324260000Y-224600000D03*
%TD*%
D27*
%TO.C,R-D23*%
X316640000Y-221050000D03*
D28*
X324260000Y-221050000D03*
%TD*%
D27*
%TO.C,R-D36*%
X316640000Y-217500000D03*
D28*
X324260000Y-217500000D03*
%TD*%
D27*
%TO.C,R-D1*%
X316640000Y-213950000D03*
D28*
X324260000Y-213950000D03*
%TD*%
D27*
%TO.C,R-D30*%
X316640000Y-210400000D03*
D28*
X324260000Y-210400000D03*
%TD*%
D27*
%TO.C,R-D22*%
X316640000Y-206850000D03*
D28*
X324260000Y-206850000D03*
%TD*%
D27*
%TO.C,R-D15*%
X316640000Y-203300000D03*
D28*
X324260000Y-203300000D03*
%TD*%
D27*
%TO.C,R-D8*%
X316640000Y-199750000D03*
D28*
X324260000Y-199750000D03*
%TD*%
D27*
%TO.C,R-D0*%
X316640000Y-196200000D03*
D28*
X324260000Y-196200000D03*
%TD*%
M02*
