%TF.GenerationSoftware,KiCad,Pcbnew,7.0.8*%
%TF.CreationDate,2024-02-13T23:06:56-05:00*%
%TF.ProjectId,ergothwack,6572676f-7468-4776-9163-6b2e6b696361,rev?*%
%TF.SameCoordinates,Original*%
%TF.FileFunction,Paste,Top*%
%TF.FilePolarity,Positive*%
%FSLAX46Y46*%
G04 Gerber Fmt 4.6, Leading zero omitted, Abs format (unit mm)*
G04 Created by KiCad (PCBNEW 7.0.8) date 2024-02-13 23:06:56*
%MOMM*%
%LPD*%
G01*
G04 APERTURE LIST*
%ADD10R,1.700000X1.000000*%
%ADD11R,1.500000X0.900000*%
%ADD12R,0.300000X1.000000*%
%ADD13R,0.300000X0.700000*%
G04 APERTURE END LIST*
D10*
%TO.C,R-K-LED36*%
X299500000Y-256830000D03*
X299500000Y-258230000D03*
X294000000Y-258230000D03*
X294000000Y-256830000D03*
%TD*%
%TO.C,R-K-LED35*%
X299500000Y-252010000D03*
X299500000Y-253410000D03*
X294000000Y-253410000D03*
X294000000Y-252010000D03*
%TD*%
%TO.C,R-K-LED34*%
X299500000Y-247190000D03*
X299500000Y-248590000D03*
X294000000Y-248590000D03*
X294000000Y-247190000D03*
%TD*%
%TO.C,R-K-LED33*%
X299500000Y-242370000D03*
X299500000Y-243770000D03*
X294000000Y-243770000D03*
X294000000Y-242370000D03*
%TD*%
%TO.C,R-K-LED32*%
X299500000Y-237550000D03*
X299500000Y-238950000D03*
X294000000Y-238950000D03*
X294000000Y-237550000D03*
%TD*%
%TO.C,R-K-LED31*%
X299500000Y-232730000D03*
X299500000Y-234130000D03*
X294000000Y-234130000D03*
X294000000Y-232730000D03*
%TD*%
%TO.C,R-K-LED30*%
X299500000Y-227910000D03*
X299500000Y-229310000D03*
X294000000Y-229310000D03*
X294000000Y-227910000D03*
%TD*%
%TO.C,R-K-LED29*%
X299500000Y-223090000D03*
X299500000Y-224490000D03*
X294000000Y-224490000D03*
X294000000Y-223090000D03*
%TD*%
%TO.C,R-K-LED28*%
X299500000Y-218270000D03*
X299500000Y-219670000D03*
X294000000Y-219670000D03*
X294000000Y-218270000D03*
%TD*%
%TO.C,R-K-LED27*%
X290580000Y-271290000D03*
X290580000Y-272690000D03*
X285080000Y-272690000D03*
X285080000Y-271290000D03*
%TD*%
%TO.C,R-K-LED26*%
X290580000Y-266470000D03*
X290580000Y-267870000D03*
X285080000Y-267870000D03*
X285080000Y-266470000D03*
%TD*%
%TO.C,R-K-LED25*%
X290580000Y-261650000D03*
X290580000Y-263050000D03*
X285080000Y-263050000D03*
X285080000Y-261650000D03*
%TD*%
%TO.C,R-K-LED24*%
X290580000Y-256830000D03*
X290580000Y-258230000D03*
X285080000Y-258230000D03*
X285080000Y-256830000D03*
%TD*%
%TO.C,R-K-LED23*%
X290580000Y-252010000D03*
X290580000Y-253410000D03*
X285080000Y-253410000D03*
X285080000Y-252010000D03*
%TD*%
%TO.C,R-K-LED22*%
X290580000Y-247190000D03*
X290580000Y-248590000D03*
X285080000Y-248590000D03*
X285080000Y-247190000D03*
%TD*%
%TO.C,R-K-LED21*%
X290580000Y-242370000D03*
X290580000Y-243770000D03*
X285080000Y-243770000D03*
X285080000Y-242370000D03*
%TD*%
%TO.C,R-K-LED20*%
X290580000Y-237550000D03*
X290580000Y-238950000D03*
X285080000Y-238950000D03*
X285080000Y-237550000D03*
%TD*%
%TO.C,R-K-LED19*%
X290580000Y-232730000D03*
X290580000Y-234130000D03*
X285080000Y-234130000D03*
X285080000Y-232730000D03*
%TD*%
%TO.C,R-K-LED18*%
X290580000Y-227910000D03*
X290580000Y-229310000D03*
X285080000Y-229310000D03*
X285080000Y-227910000D03*
%TD*%
%TO.C,R-K-LED17*%
X290580000Y-223090000D03*
X290580000Y-224490000D03*
X285080000Y-224490000D03*
X285080000Y-223090000D03*
%TD*%
%TO.C,R-K-LED16*%
X290580000Y-218270000D03*
X290580000Y-219670000D03*
X285080000Y-219670000D03*
X285080000Y-218270000D03*
%TD*%
%TO.C,R-K-LED14*%
X281660000Y-271290000D03*
X281660000Y-272690000D03*
X276160000Y-272690000D03*
X276160000Y-271290000D03*
%TD*%
%TO.C,R-K-LED13*%
X281660000Y-266470000D03*
X281660000Y-267870000D03*
X276160000Y-267870000D03*
X276160000Y-266470000D03*
%TD*%
%TO.C,R-K-LED12*%
X281660000Y-261650000D03*
X281660000Y-263050000D03*
X276160000Y-263050000D03*
X276160000Y-261650000D03*
%TD*%
%TO.C,R-K-LED11*%
X281660000Y-256830000D03*
X281660000Y-258230000D03*
X276160000Y-258230000D03*
X276160000Y-256830000D03*
%TD*%
%TO.C,R-K-LED10*%
X281660000Y-252010000D03*
X281660000Y-253410000D03*
X276160000Y-253410000D03*
X276160000Y-252010000D03*
%TD*%
%TO.C,R-K-LED9*%
X281660000Y-247190000D03*
X281660000Y-248590000D03*
X276160000Y-248590000D03*
X276160000Y-247190000D03*
%TD*%
%TO.C,R-K-LED7*%
X281660000Y-242370000D03*
X281660000Y-243770000D03*
X276160000Y-243770000D03*
X276160000Y-242370000D03*
%TD*%
%TO.C,R-K-LED6*%
X281660000Y-237550000D03*
X281660000Y-238950000D03*
X276160000Y-238950000D03*
X276160000Y-237550000D03*
%TD*%
%TO.C,R-K-LED5*%
X281660000Y-232730000D03*
X281660000Y-234130000D03*
X276160000Y-234130000D03*
X276160000Y-232730000D03*
%TD*%
%TO.C,R-K-LED4*%
X281660000Y-227910000D03*
X281660000Y-229310000D03*
X276160000Y-229310000D03*
X276160000Y-227910000D03*
%TD*%
%TO.C,R-K-LED3*%
X281660000Y-223090000D03*
X281660000Y-224490000D03*
X276160000Y-224490000D03*
X276160000Y-223090000D03*
%TD*%
%TO.C,R-K-LED2*%
X281660000Y-218270000D03*
X281660000Y-219670000D03*
X276160000Y-219670000D03*
X276160000Y-218270000D03*
%TD*%
%TO.C,R-K-LED1*%
X269250000Y-249110000D03*
X269250000Y-250510000D03*
X263750000Y-250510000D03*
X263750000Y-249110000D03*
%TD*%
D11*
%TO.C,R-UG-LED6*%
X327700000Y-322630000D03*
X327700000Y-325930000D03*
X322800000Y-325930000D03*
X322800000Y-322630000D03*
%TD*%
%TO.C,R-UG-LED5*%
X327700000Y-316010000D03*
X327700000Y-319310000D03*
X322800000Y-319310000D03*
X322800000Y-316010000D03*
%TD*%
%TO.C,R-UG-LED4*%
X327700000Y-309390000D03*
X327700000Y-312690000D03*
X322800000Y-312690000D03*
X322800000Y-309390000D03*
%TD*%
%TO.C,R-UG-LED3*%
X327700000Y-302770000D03*
X327700000Y-306070000D03*
X322800000Y-306070000D03*
X322800000Y-302770000D03*
%TD*%
%TO.C,R-UG-LED2*%
X314310000Y-332580000D03*
X314310000Y-335880000D03*
X309410000Y-335880000D03*
X309410000Y-332580000D03*
%TD*%
%TO.C,R-UG-LED1*%
X314310000Y-325960000D03*
X314310000Y-329260000D03*
X309410000Y-329260000D03*
X309410000Y-325960000D03*
%TD*%
%TO.C,R-UG-LED0*%
X314310000Y-319340000D03*
X314310000Y-322640000D03*
X309410000Y-322640000D03*
X309410000Y-319340000D03*
%TD*%
D12*
%TO.C,R-CRQ-CONN1*%
X294148000Y-278674000D03*
X301228000Y-278674000D03*
D13*
X294938000Y-276024000D03*
X295438000Y-276024000D03*
X295938000Y-276024000D03*
X296438000Y-276024000D03*
X296938000Y-276024000D03*
X297438000Y-276024000D03*
X297938000Y-276024000D03*
X298438000Y-276024000D03*
X298938000Y-276024000D03*
X299438000Y-276024000D03*
X299938000Y-276024000D03*
X300438000Y-276024000D03*
%TD*%
M02*
